<?xml version="1.0" standalone="no"?>
<!DOCTYPE svg PUBLIC "-//W3C//DTD SVG 1.1//EN" "http://www.w3.org/Graphics/SVG/1.1/DTD/svg11.dtd" >
<svg xmlns="http://www.w3.org/2000/svg" xmlns:xlink="http://www.w3.org/1999/xlink" version="1.1">
<metadata>
Created by Christoph Koeberlin (http://christoph.koe.berlin)
Copyright (c) 2017 by Hannes von Doehren. All rights reserved.
</metadata>
<defs>
<font id="Font" horiz-adv-x="582" >
  <font-face 
    font-family="Font"
    font-weight="700"
    font-stretch="normal"
    units-per-em="1000"
    panose-1="2 11 8 4 4 0 0 0 0 4"
    ascent="800"
    descent="-200"
    x-height="492"
    cap-height="700"
    bbox="-687 -291 1122 1042"
    underline-thickness="80"
    underline-position="-110"
    unicode-range="U+000D-FB02"
  />
<missing-glyph horiz-adv-x="597" 
d="M506 710v-740h-415v740h415zM461 662h-325v-644h325v644z" />
    <glyph glyph-name=".notdef" horiz-adv-x="597" 
d="M506 710v-740h-415v740h415zM461 662h-325v-644h325v644z" />
    <glyph glyph-name="glyph1" horiz-adv-x="0" 
 />
    <glyph glyph-name="uni000D" unicode="&#xd;" horiz-adv-x="227" 
 />
    <glyph glyph-name="space" unicode=" " horiz-adv-x="227" 
 />
    <glyph glyph-name="A" unicode="A" horiz-adv-x="661" 
d="M471 140h-281l-46 -140h-129l241 700h149l241 -700h-129zM435 248l-64 195q-25 77 -40 155h-2q-13 -76 -39 -155l-64 -195h209z" />
    <glyph glyph-name="Aacute" unicode="&#xc1;" horiz-adv-x="661" 
d="M471 140h-281l-46 -140h-129l241 700h149l241 -700h-129zM435 248l-64 195q-25 77 -40 155h-2q-13 -76 -39 -155l-64 -195h209zM351 897h123l-93 -141h-110z" />
    <glyph glyph-name="Abreve" unicode="&#x102;" horiz-adv-x="661" 
d="M471 140h-281l-46 -140h-129l241 700h149l241 -700h-129zM435 248l-64 195q-25 77 -40 155h-2q-13 -76 -39 -155l-64 -195h209zM175 897h86q4 -33 20 -49t49 -16q32 0 48 16t20 49h87q-3 -67 -41 -106t-114 -39t-114.5 39t-40.5 106z" />
    <glyph glyph-name="Acircumflex" unicode="&#xc2;" horiz-adv-x="661" 
d="M471 140h-281l-46 -140h-129l241 700h149l241 -700h-129zM435 248l-64 195q-25 77 -40 155h-2q-13 -76 -39 -155l-64 -195h209zM395 897l109 -141h-111l-63 74l-62 -74h-111l108 141h130z" />
    <glyph glyph-name="Adieresis" unicode="&#xc4;" horiz-adv-x="661" 
d="M471 140h-281l-46 -140h-129l241 700h149l241 -700h-129zM435 248l-64 195q-25 77 -40 155h-2q-13 -76 -39 -155l-64 -195h209zM144 873h118v-110h-118v110zM397 873h118v-110h-118v110z" />
    <glyph glyph-name="Agrave" unicode="&#xc0;" horiz-adv-x="661" 
d="M471 140h-281l-46 -140h-129l241 700h149l241 -700h-129zM435 248l-64 195q-25 77 -40 155h-2q-13 -76 -39 -155l-64 -195h209zM273 756l-93 141h123l80 -141h-110z" />
    <glyph glyph-name="Amacron" unicode="&#x100;" horiz-adv-x="661" 
d="M471 140h-281l-46 -140h-129l241 700h149l241 -700h-129zM435 248l-64 195q-25 77 -40 155h-2q-13 -76 -39 -155l-64 -195h209zM185 862h291v-93h-291v93z" />
    <glyph glyph-name="Aogonek" unicode="&#x104;" horiz-adv-x="661" 
d="M471 140h-281l-46 -140h-129l241 700h149l241 -700h-129zM435 248l-64 195q-25 77 -40 155h-2q-13 -76 -39 -155l-64 -195h209zM462 -114q0 31 12.5 55t43.5 48l63 49l65 -38l-60 -53q-13 -12 -18 -21.5t-5 -21.5q0 -13 8 -20t21 -7t27.5 5t25.5 12v-72q-11 -7 -33 -13
t-52 -6q-45 0 -71.5 22.5t-26.5 60.5z" />
    <glyph glyph-name="Aring" unicode="&#xc5;" horiz-adv-x="660" 
d="M471 140h-281l-46 -140h-129l241 700h149l241 -700h-129zM435 248l-64 195q-25 77 -40 155h-2q-13 -76 -39 -155l-64 -195h209zM195 752q0 56 35 90t100 34q64 0 99 -34t35 -90q0 -55 -35 -89t-99 -34q-65 0 -100 34t-35 89zM382 752q0 24 -13.5 38.5t-38.5 14.5
t-39 -14.5t-14 -38.5t14 -37.5t39 -13.5t38.5 13.5t13.5 37.5z" />
    <glyph glyph-name="Aringacute" unicode="&#x1fa;" horiz-adv-x="660" 
d="M356 1042h123l-93 -141h-110zM471 140h-281l-46 -140h-129l241 700h149l241 -700h-129zM435 248l-64 195q-25 77 -40 155h-2q-13 -76 -39 -155l-64 -195h209zM195 752q0 56 35 90t100 34q64 0 99 -34t35 -90q0 -55 -35 -89t-99 -34q-65 0 -100 34t-35 89zM382 752
q0 24 -13.5 38.5t-38.5 14.5t-39 -14.5t-14 -38.5t14 -37.5t39 -13.5t38.5 13.5t13.5 37.5z" />
    <glyph glyph-name="Atilde" unicode="&#xc3;" horiz-adv-x="661" 
d="M471 140h-281l-46 -140h-129l241 700h149l241 -700h-129zM435 248l-64 195q-25 77 -40 155h-2q-13 -76 -39 -155l-64 -195h209zM320 777q-31 20 -50 20q-30 0 -36 -39h-74q4 59 32 91t74 32q20 0 36 -6.5t39 -19.5q17 -10 28 -15t23 -5q17 0 24.5 10t11.5 28h74
q-4 -59 -32.5 -90.5t-74.5 -31.5q-21 0 -38 7t-37 19z" />
    <glyph glyph-name="AE" unicode="&#xc6;" horiz-adv-x="944" 
d="M888 593h-323v-187h306v-107h-306v-192h323v-107h-443v140h-238l-79 -140h-135l383 700h512v-107zM452 600h-2q-23 -59 -91 -185l-98 -168h184v151q0 141 7 202z" />
    <glyph glyph-name="AEacute" unicode="&#x1fc;" horiz-adv-x="944" 
d="M888 593h-323v-187h306v-107h-306v-192h323v-107h-443v140h-238l-79 -140h-135l383 700h512v-107zM452 600h-2q-23 -59 -91 -185l-98 -168h184v151q0 141 7 202zM665 897h123l-93 -141h-110z" />
    <glyph glyph-name="uni01E2" unicode="&#x1e2;" horiz-adv-x="944" 
d="M888 593h-323v-187h306v-107h-306v-192h323v-107h-443v140h-238l-79 -140h-135l383 700h512v-107zM452 600h-2q-23 -59 -91 -185l-98 -168h184v151q0 141 7 202zM499 862h291v-93h-291v93z" />
    <glyph glyph-name="B" unicode="B" horiz-adv-x="636" 
d="M567 509q0 -49 -21.5 -87t-61.5 -60q46 -20 73.5 -64t27.5 -100q0 -96 -51 -147t-155 -51h-300v700h279q104 0 156.5 -51t52.5 -140zM442 500q0 93 -99 93h-144v-185h144q52 0 75.5 23.5t23.5 68.5zM461 204q0 99 -100 99h-162v-196h161q101 0 101 97z" />
    <glyph glyph-name="C" unicode="C" horiz-adv-x="679" 
d="M353 714q130 0 202.5 -58t89.5 -165h-124q-15 61 -56 87t-112 26q-90 0 -136 -66.5t-46 -187.5t46 -187.5t136 -66.5q71 0 112 26t56 87h124q-17 -108 -89 -165.5t-202 -57.5q-157 0 -232 98.5t-75 265.5t75 265.5t231 98.5z" />
    <glyph glyph-name="Cacute" unicode="&#x106;" horiz-adv-x="679" 
d="M353 714q130 0 202.5 -58t89.5 -165h-124q-15 61 -56 87t-112 26q-90 0 -136 -66.5t-46 -187.5t46 -187.5t136 -66.5q71 0 112 26t56 87h124q-17 -108 -89 -165.5t-202 -57.5q-157 0 -232 98.5t-75 265.5t75 265.5t231 98.5zM374 897h123l-93 -141h-110z" />
    <glyph glyph-name="Ccaron" unicode="&#x10c;" horiz-adv-x="679" 
d="M353 714q130 0 202.5 -58t89.5 -165h-124q-15 61 -56 87t-112 26q-90 0 -136 -66.5t-46 -187.5t46 -187.5t136 -66.5q71 0 112 26t56 87h124q-17 -108 -89 -165.5t-202 -57.5q-157 0 -232 98.5t-75 265.5t75 265.5t231 98.5zM180 897h110l63 -74l62 74h110l-107 -141
h-130z" />
    <glyph glyph-name="Ccedilla" unicode="&#xc7;" horiz-adv-x="679" 
d="M353 714q130 0 202.5 -58t89.5 -165h-124q-15 61 -56 87t-112 26q-90 0 -136 -66.5t-46 -187.5t46 -187.5t136 -66.5q71 0 112 26t56 87h124q-17 -108 -89 -165.5t-202 -57.5q-157 0 -232 98.5t-75 265.5t75 265.5t231 98.5zM259 -164l72 188l100 -15l-60 -173h-112z" />
    <glyph glyph-name="Ccircumflex" unicode="&#x108;" horiz-adv-x="679" 
d="M353 714q130 0 202.5 -58t89.5 -165h-124q-15 61 -56 87t-112 26q-90 0 -136 -66.5t-46 -187.5t46 -187.5t136 -66.5q71 0 112 26t56 87h124q-17 -108 -89 -165.5t-202 -57.5q-157 0 -232 98.5t-75 265.5t75 265.5t231 98.5zM418 897l109 -141h-111l-63 74l-62 -74h-111
l108 141h130z" />
    <glyph glyph-name="Cdotaccent" unicode="&#x10a;" horiz-adv-x="679" 
d="M353 714q130 0 202.5 -58t89.5 -165h-124q-15 61 -56 87t-112 26q-90 0 -136 -66.5t-46 -187.5t46 -187.5t136 -66.5q71 0 112 26t56 87h124q-17 -108 -89 -165.5t-202 -57.5q-157 0 -232 98.5t-75 265.5t75 265.5t231 98.5zM291 873h124v-110h-124v110z" />
    <glyph glyph-name="D" unicode="D" horiz-adv-x="694" 
d="M647 350q0 -166 -76 -258t-230 -92h-262v700h262q154 0 230 -92t76 -258zM523 350q0 243 -184 243h-140v-486h140q184 0 184 243z" />
    <glyph glyph-name="Eth" unicode="&#xd0;" horiz-adv-x="702" 
d="M657 350q0 -166 -76 -258t-230 -92h-262v700h262q154 0 230 -92t76 -258zM533 350q0 243 -184 243h-140v-486h140q184 0 184 243zM33 396h290v-92h-290v92z" />
    <glyph glyph-name="Dcaron" unicode="&#x10e;" horiz-adv-x="694" 
d="M647 350q0 -166 -76 -258t-230 -92h-262v700h262q154 0 230 -92t76 -258zM523 350q0 243 -184 243h-140v-486h140q184 0 184 243zM138 897h110l63 -74l62 74h110l-107 -141h-130z" />
    <glyph glyph-name="Dcroat" unicode="&#x110;" horiz-adv-x="702" 
d="M657 350q0 -166 -76 -258t-230 -92h-262v700h262q154 0 230 -92t76 -258zM533 350q0 243 -184 243h-140v-486h140q184 0 184 243zM33 396h290v-92h-290v92z" />
    <glyph glyph-name="E" unicode="E" horiz-adv-x="578" 
d="M522 107v-107h-443v700h443v-107h-323v-187h306v-107h-306v-192h323z" />
    <glyph glyph-name="Eacute" unicode="&#xc9;" horiz-adv-x="578" 
d="M522 107v-107h-443v700h443v-107h-323v-187h306v-107h-306v-192h323zM323 897h123l-93 -141h-110z" />
    <glyph glyph-name="Ebreve" unicode="&#x114;" horiz-adv-x="578" 
d="M522 107v-107h-443v700h443v-107h-323v-187h306v-107h-306v-192h323zM147 897h86q4 -33 20 -49t49 -16q32 0 48 16t20 49h87q-3 -67 -41 -106t-114 -39t-114.5 39t-40.5 106z" />
    <glyph glyph-name="Ecaron" unicode="&#x11a;" horiz-adv-x="578" 
d="M522 107v-107h-443v700h443v-107h-323v-187h306v-107h-306v-192h323zM129 897h110l63 -74l62 74h110l-107 -141h-130z" />
    <glyph glyph-name="Ecircumflex" unicode="&#xca;" horiz-adv-x="578" 
d="M522 107v-107h-443v700h443v-107h-323v-187h306v-107h-306v-192h323zM367 897l109 -141h-111l-63 74l-62 -74h-111l108 141h130z" />
    <glyph glyph-name="Edieresis" unicode="&#xcb;" horiz-adv-x="578" 
d="M522 107v-107h-443v700h443v-107h-323v-187h306v-107h-306v-192h323zM116 873h118v-110h-118v110zM369 873h118v-110h-118v110z" />
    <glyph glyph-name="Edotaccent" unicode="&#x116;" horiz-adv-x="578" 
d="M522 107v-107h-443v700h443v-107h-323v-187h306v-107h-306v-192h323zM240 873h124v-110h-124v110z" />
    <glyph glyph-name="Egrave" unicode="&#xc8;" horiz-adv-x="578" 
d="M522 107v-107h-443v700h443v-107h-323v-187h306v-107h-306v-192h323zM245 756l-93 141h123l80 -141h-110z" />
    <glyph glyph-name="Emacron" unicode="&#x112;" horiz-adv-x="578" 
d="M522 107v-107h-443v700h443v-107h-323v-187h306v-107h-306v-192h323zM157 862h291v-93h-291v93z" />
    <glyph glyph-name="Eogonek" unicode="&#x118;" horiz-adv-x="578" 
d="M522 107v-107h-443v700h443v-107h-323v-187h306v-107h-306v-192h323zM338 -114q0 31 12.5 55t43.5 48l63 49l65 -38l-60 -53q-13 -12 -18 -21.5t-5 -21.5q0 -13 8 -20t21 -7t27.5 5t25.5 12v-72q-11 -7 -33 -13t-52 -6q-45 0 -71.5 22.5t-26.5 60.5z" />
    <glyph glyph-name="uni1EBC" unicode="&#x1ebc;" horiz-adv-x="578" 
d="M522 107v-107h-443v700h443v-107h-323v-187h306v-107h-306v-192h323zM292 777q-31 20 -50 20q-30 0 -36 -39h-74q4 59 32 91t74 32q20 0 36 -6.5t39 -19.5q17 -10 28 -15t23 -5q17 0 24.5 10t11.5 28h74q-4 -59 -32.5 -90.5t-74.5 -31.5q-21 0 -38 7t-37 19z" />
    <glyph glyph-name="F" unicode="F" horiz-adv-x="548" 
d="M79 0v700h427v-107h-307v-201h290v-107h-290v-285h-120z" />
    <glyph glyph-name="G" unicode="G" horiz-adv-x="704" 
d="M362 604q-95 0 -143 -65.5t-48 -188.5t49 -188.5t149 -65.5q98 0 161 58v89h-133v107h253v-251q-45 -49 -118 -81t-164 -32q-163 0 -242 97t-79 267q0 169 78 266.5t237 97.5q249 0 289 -209h-125q-17 54 -56.5 76.5t-107.5 22.5z" />
    <glyph glyph-name="Gbreve" unicode="&#x11e;" horiz-adv-x="704" 
d="M362 604q-95 0 -143 -65.5t-48 -188.5t49 -188.5t149 -65.5q98 0 161 58v89h-133v107h253v-251q-45 -49 -118 -81t-164 -32q-163 0 -242 97t-79 267q0 169 78 266.5t237 97.5q249 0 289 -209h-125q-17 54 -56.5 76.5t-107.5 22.5zM210 897h86q4 -33 20 -49t49 -16
q32 0 48 16t20 49h87q-3 -67 -41 -106t-114 -39t-114.5 39t-40.5 106z" />
    <glyph glyph-name="Gcaron" unicode="&#x1e6;" horiz-adv-x="704" 
d="M362 604q-95 0 -143 -65.5t-48 -188.5t49 -188.5t149 -65.5q98 0 161 58v89h-133v107h253v-251q-45 -49 -118 -81t-164 -32q-163 0 -242 97t-79 267q0 169 78 266.5t237 97.5q249 0 289 -209h-125q-17 54 -56.5 76.5t-107.5 22.5zM192 897h110l63 -74l62 74h110
l-107 -141h-130z" />
    <glyph glyph-name="Gcircumflex" unicode="&#x11c;" horiz-adv-x="704" 
d="M362 604q-95 0 -143 -65.5t-48 -188.5t49 -188.5t149 -65.5q98 0 161 58v89h-133v107h253v-251q-45 -49 -118 -81t-164 -32q-163 0 -242 97t-79 267q0 169 78 266.5t237 97.5q249 0 289 -209h-125q-17 54 -56.5 76.5t-107.5 22.5zM430 897l109 -141h-111l-63 74l-62 -74
h-111l108 141h130z" />
    <glyph glyph-name="uni0122" unicode="&#x122;" horiz-adv-x="704" 
d="M362 604q-95 0 -143 -65.5t-48 -188.5t49 -188.5t149 -65.5q98 0 161 58v89h-133v107h253v-251q-45 -49 -118 -81t-164 -32q-163 0 -242 97t-79 267q0 169 78 266.5t237 97.5q249 0 289 -209h-125q-17 54 -56.5 76.5t-107.5 22.5zM396 -291h-64l33 104h-54v116h120v-106z
" />
    <glyph glyph-name="Gdotaccent" unicode="&#x120;" horiz-adv-x="704" 
d="M362 604q-95 0 -143 -65.5t-48 -188.5t49 -188.5t149 -65.5q98 0 161 58v89h-133v107h253v-251q-45 -49 -118 -81t-164 -32q-163 0 -242 97t-79 267q0 169 78 266.5t237 97.5q249 0 289 -209h-125q-17 54 -56.5 76.5t-107.5 22.5zM303 873h124v-110h-124v110z" />
    <glyph glyph-name="uni021C" unicode="&#x21c;" horiz-adv-x="556" 
d="M226 714q135 0 198 -52t63 -140q0 -54 -25.5 -89.5t-80.5 -58.5q68 -13 100.5 -56t32.5 -108q0 -81 -49.5 -133t-149 -83.5t-264.5 -54.5v114q127 17 200.5 38.5t106 51.5t32.5 74q0 42 -27.5 65.5t-79.5 23.5q-20 0 -50 -5l-161 -28v111l161 27q64 11 96.5 35t32.5 67
q0 49 -32 70.5t-104 21.5q-41 0 -87 -10t-88 -26v116q38 12 85 20.5t90 8.5z" />
    <glyph glyph-name="H" unicode="H" horiz-adv-x="706" 
d="M507 406v294h120v-700h-120v299h-308v-299h-120v700h120v-294h308z" />
    <glyph glyph-name="Hbar" unicode="&#x126;" horiz-adv-x="708" 
d="M663 512h-35v-512h-120v299h-308v-299h-120v512h-35v93h35v95h120v-95h308v95h120v-95h35v-93zM508 512h-308v-106h308v106z" />
    <glyph glyph-name="Hcircumflex" unicode="&#x124;" horiz-adv-x="706" 
d="M507 406v294h120v-700h-120v299h-308v-299h-120v700h120v-294h308zM418 897l109 -141h-111l-63 74l-62 -74h-111l108 141h130z" />
    <glyph glyph-name="I" unicode="I" horiz-adv-x="279" 
d="M79 0v700h120v-700h-120z" />
    <glyph glyph-name="IJ" unicode="&#x132;" horiz-adv-x="839" 
d="M79 0v700h120v-700h-120zM756 700v-455q0 -123 -59.5 -191t-174.5 -68q-114 0 -172 56.5t-65 166.5h122q5 -62 31 -87.5t84 -25.5q56 0 85 38.5t29 107.5v458h120z" />
    <glyph glyph-name="Iacute" unicode="&#xcd;" horiz-adv-x="279" 
d="M79 0v700h120v-700h-120zM161 897h123l-93 -141h-110z" />
    <glyph glyph-name="Ibreve" unicode="&#x12c;" horiz-adv-x="279" 
d="M79 0v700h120v-700h-120zM-15 897h86q4 -33 20 -49t49 -16q32 0 48 16t20 49h87q-3 -67 -41 -106t-114 -39t-114.5 39t-40.5 106z" />
    <glyph glyph-name="Icircumflex" unicode="&#xce;" horiz-adv-x="279" 
d="M79 0v700h120v-700h-120zM205 897l109 -141h-111l-63 74l-62 -74h-111l108 141h130z" />
    <glyph glyph-name="Idieresis" unicode="&#xcf;" horiz-adv-x="279" 
d="M79 0v700h120v-700h-120zM-46 873h118v-110h-118v110zM207 873h118v-110h-118v110z" />
    <glyph glyph-name="Idotaccent" unicode="&#x130;" horiz-adv-x="279" 
d="M79 0v700h120v-700h-120zM78 873h124v-110h-124v110z" />
    <glyph glyph-name="Igrave" unicode="&#xcc;" horiz-adv-x="279" 
d="M79 0v700h120v-700h-120zM83 756l-93 141h123l80 -141h-110z" />
    <glyph glyph-name="Imacron" unicode="&#x12a;" horiz-adv-x="279" 
d="M79 0v700h120v-700h-120zM-5 862h291v-93h-291v93z" />
    <glyph glyph-name="Iogonek" unicode="&#x12e;" horiz-adv-x="279" 
d="M122 -99q0 -11 7 -18t19 -7q20 0 46 13v-71q-11 -5 -30.5 -10t-43.5 -5q-46 0 -72 25.5t-26 64.5q0 64 57 112v695h120v-700l-48 -44q-29 -27 -29 -55z" />
    <glyph glyph-name="Itilde" unicode="&#x128;" horiz-adv-x="279" 
d="M79 0v700h120v-700h-120zM130 777q-31 20 -50 20q-30 0 -36 -39h-74q4 59 32 91t74 32q20 0 36 -6.5t39 -19.5q17 -10 28 -15t23 -5q17 0 24.5 10t11.5 28h74q-4 -59 -32.5 -90.5t-74.5 -31.5q-21 0 -38 7t-37 19z" />
    <glyph glyph-name="J" unicode="J" horiz-adv-x="569" 
d="M496 700v-455q0 -123 -59.5 -191t-174.5 -68q-114 0 -172 56.5t-65 166.5h122q5 -62 31 -87.5t84 -25.5q56 0 85 38.5t29 107.5v458h120z" />
    <glyph glyph-name="Jcircumflex" unicode="&#x134;" horiz-adv-x="569" 
d="M496 700v-455q0 -123 -59.5 -191t-174.5 -68q-114 0 -172 56.5t-65 166.5h122q5 -62 31 -87.5t84 -25.5q56 0 85 38.5t29 107.5v458h120zM501 897l109 -141h-111l-63 74l-62 -74h-111l108 141h130z" />
    <glyph glyph-name="K" unicode="K" horiz-adv-x="622" 
d="M244 271l-45 -51v-220h-120v700h120v-215q0 -76 -3 -112h2q22 39 63 90l198 237h153l-249 -289l249 -411h-143l-156 262q-18 32 -29 57h-2q-7 -12 -20 -26.5t-18 -21.5z" />
    <glyph glyph-name="uni0136" unicode="&#x136;" horiz-adv-x="622" 
d="M244 271l-45 -51v-220h-120v700h120v-215q0 -76 -3 -112h2q22 39 63 90l198 237h153l-249 -289l249 -411h-143l-156 262q-18 32 -29 57h-2q-7 -12 -20 -26.5t-18 -21.5zM353 -291h-64l33 104h-54v116h120v-106z" />
    <glyph glyph-name="L" unicode="L" horiz-adv-x="521" 
d="M199 700v-593h297v-107h-417v700h120z" />
    <glyph glyph-name="Lacute" unicode="&#x139;" horiz-adv-x="521" 
d="M199 700v-593h297v-107h-417v700h120zM160 897h123l-93 -141h-110z" />
    <glyph glyph-name="Lcaron" unicode="&#x13d;" horiz-adv-x="524" 
d="M199 700v-593h297v-107h-417v700h120zM367 480h-64l33 104h-54v116h120v-106z" />
    <glyph glyph-name="uni013B" unicode="&#x13b;" horiz-adv-x="521" 
d="M199 700v-593h297v-107h-417v700h120zM310 -291h-64l33 104h-54v116h120v-106z" />
    <glyph glyph-name="Ldot" unicode="&#x13f;" horiz-adv-x="525" 
d="M199 700v-593h297v-107h-417v700h120zM474 451v-144h-144v144h144z" />
    <glyph glyph-name="Lslash" unicode="&#x141;" horiz-adv-x="533" 
d="M508 107v-107h-416v257l-63 -33v103l63 34v339h120v-276l108 58v-104l-108 -57v-214h296z" />
    <glyph glyph-name="M" unicode="M" horiz-adv-x="875" 
d="M249 358q-37 87 -56 155h-2q8 -69 8 -156v-357h-120v700h144l176 -420q26 -62 38 -125h2q10 61 37 125l176 420h144v-700h-120v357q0 79 9 156h-2q-22 -73 -57 -155l-150 -358h-77z" />
    <glyph glyph-name="N" unicode="N" horiz-adv-x="723" 
d="M524 700h120v-700h-114l-254 375q-55 82 -85 157h-2q10 -66 10 -162v-370h-120v700h115l253 -375q48 -70 85 -157h2q-10 66 -10 162v370z" />
    <glyph glyph-name="Nacute" unicode="&#x143;" horiz-adv-x="723" 
d="M524 700h120v-700h-114l-254 375q-55 82 -85 157h-2q10 -66 10 -162v-370h-120v700h115l253 -375q48 -70 85 -157h2q-10 66 -10 162v370zM385 897h123l-93 -141h-110z" />
    <glyph glyph-name="Ncaron" unicode="&#x147;" horiz-adv-x="723" 
d="M524 700h120v-700h-114l-254 375q-55 82 -85 157h-2q10 -66 10 -162v-370h-120v700h115l253 -375q48 -70 85 -157h2q-10 66 -10 162v370zM191 897h110l63 -74l62 74h110l-107 -141h-130z" />
    <glyph glyph-name="uni0145" unicode="&#x145;" horiz-adv-x="723" 
d="M524 700h120v-700h-114l-254 375q-55 82 -85 157h-2q10 -66 10 -162v-370h-120v700h115l253 -375q48 -70 85 -157h2q-10 66 -10 162v370zM388 -291h-64l33 104h-54v116h120v-106z" />
    <glyph glyph-name="Eng" unicode="&#x14a;" horiz-adv-x="723" 
d="M644 700v-732q0 -85 -42 -126t-121 -41q-37 0 -60 6v92q21 -4 39 -4q34 0 49 17.5t15 64.5v32l-248 366q-55 82 -85 157h-2q10 -66 10 -162v-370h-120v700h115l253 -375q48 -70 85 -157h2q-10 66 -10 162v370h120z" />
    <glyph glyph-name="Ntilde" unicode="&#xd1;" horiz-adv-x="723" 
d="M524 700h120v-700h-114l-254 375q-55 82 -85 157h-2q10 -66 10 -162v-370h-120v700h115l253 -375q48 -70 85 -157h2q-10 66 -10 162v370zM354 777q-31 20 -50 20q-30 0 -36 -39h-74q4 59 32 91t74 32q20 0 36 -6.5t39 -19.5q17 -10 28 -15t23 -5q17 0 24.5 10t11.5 28h74
q-4 -59 -32.5 -90.5t-74.5 -31.5q-21 0 -38 7t-37 19z" />
    <glyph glyph-name="O" unicode="O" horiz-adv-x="733" 
d="M47 350q0 166 79 265t240 99q162 0 241 -99t79 -265t-79 -265t-241 -99q-161 0 -240 99t-79 265zM561 350q0 121 -49 187.5t-146 66.5q-96 0 -145.5 -67t-49.5 -187t49.5 -187t145.5 -67q97 0 146 66.5t49 187.5z" />
    <glyph glyph-name="Oacute" unicode="&#xd3;" horiz-adv-x="733" 
d="M47 350q0 166 79 265t240 99q162 0 241 -99t79 -265t-79 -265t-241 -99q-161 0 -240 99t-79 265zM561 350q0 121 -49 187.5t-146 66.5q-96 0 -145.5 -67t-49.5 -187t49.5 -187t145.5 -67q97 0 146 66.5t49 187.5zM387 897h123l-93 -141h-110z" />
    <glyph glyph-name="Obreve" unicode="&#x14e;" horiz-adv-x="733" 
d="M47 350q0 166 79 265t240 99q162 0 241 -99t79 -265t-79 -265t-241 -99q-161 0 -240 99t-79 265zM561 350q0 121 -49 187.5t-146 66.5q-96 0 -145.5 -67t-49.5 -187t49.5 -187t145.5 -67q97 0 146 66.5t49 187.5zM211 897h86q4 -33 20 -49t49 -16q32 0 48 16t20 49h87
q-3 -67 -41 -106t-114 -39t-114.5 39t-40.5 106z" />
    <glyph glyph-name="Ocircumflex" unicode="&#xd4;" horiz-adv-x="733" 
d="M47 350q0 166 79 265t240 99q162 0 241 -99t79 -265t-79 -265t-241 -99q-161 0 -240 99t-79 265zM561 350q0 121 -49 187.5t-146 66.5q-96 0 -145.5 -67t-49.5 -187t49.5 -187t145.5 -67q97 0 146 66.5t49 187.5zM431 897l109 -141h-111l-63 74l-62 -74h-111l108 141h130
z" />
    <glyph glyph-name="Odieresis" unicode="&#xd6;" horiz-adv-x="733" 
d="M47 350q0 166 79 265t240 99q162 0 241 -99t79 -265t-79 -265t-241 -99q-161 0 -240 99t-79 265zM561 350q0 121 -49 187.5t-146 66.5q-96 0 -145.5 -67t-49.5 -187t49.5 -187t145.5 -67q97 0 146 66.5t49 187.5zM180 873h118v-110h-118v110zM433 873h118v-110h-118v110z
" />
    <glyph glyph-name="Ograve" unicode="&#xd2;" horiz-adv-x="733" 
d="M47 350q0 166 79 265t240 99q162 0 241 -99t79 -265t-79 -265t-241 -99q-161 0 -240 99t-79 265zM561 350q0 121 -49 187.5t-146 66.5q-96 0 -145.5 -67t-49.5 -187t49.5 -187t145.5 -67q97 0 146 66.5t49 187.5zM309 756l-93 141h123l80 -141h-110z" />
    <glyph glyph-name="Ohungarumlaut" unicode="&#x150;" horiz-adv-x="733" 
d="M47 350q0 166 79 265t240 99q162 0 241 -99t79 -265t-79 -265t-241 -99q-161 0 -240 99t-79 265zM561 350q0 121 -49 187.5t-146 66.5q-96 0 -145.5 -67t-49.5 -187t49.5 -187t145.5 -67q97 0 146 66.5t49 187.5zM294 897h123l-93 -141h-110zM489 897h123l-95 -141h-108z
" />
    <glyph glyph-name="Omacron" unicode="&#x14c;" horiz-adv-x="733" 
d="M47 350q0 166 79 265t240 99q162 0 241 -99t79 -265t-79 -265t-241 -99q-161 0 -240 99t-79 265zM561 350q0 121 -49 187.5t-146 66.5q-96 0 -145.5 -67t-49.5 -187t49.5 -187t145.5 -67q97 0 146 66.5t49 187.5zM221 862h291v-93h-291v93z" />
    <glyph glyph-name="Oslash" unicode="&#xd8;" horiz-adv-x="739" 
d="M640 572q50 -88 50 -222q0 -166 -79 -265t-240 -99q-129 0 -209 67l-57 -61l-69 69l64 69q-49 86 -49 220q0 166 79 265t241 99q127 0 207 -66l52 57l69 -69zM192 230l304 330q-47 44 -125 44q-97 0 -146 -66.5t-49 -187.5q0 -71 16 -120zM549 473l-306 -331
q49 -46 128 -46q96 0 145.5 67t49.5 187q0 69 -17 123z" />
    <glyph glyph-name="Oslashacute" unicode="&#x1fe;" horiz-adv-x="739" 
d="M640 572q50 -88 50 -222q0 -166 -79 -265t-240 -99q-129 0 -209 67l-57 -61l-69 69l64 69q-49 86 -49 220q0 166 79 265t241 99q127 0 207 -66l52 57l69 -69zM192 230l304 330q-47 44 -125 44q-97 0 -146 -66.5t-49 -187.5q0 -71 16 -120zM549 473l-306 -331
q49 -46 128 -46q96 0 145.5 67t49.5 187q0 69 -17 123zM392 897h123l-93 -141h-110z" />
    <glyph glyph-name="Otilde" unicode="&#xd5;" horiz-adv-x="733" 
d="M47 350q0 166 79 265t240 99q162 0 241 -99t79 -265t-79 -265t-241 -99q-161 0 -240 99t-79 265zM561 350q0 121 -49 187.5t-146 66.5q-96 0 -145.5 -67t-49.5 -187t49.5 -187t145.5 -67q97 0 146 66.5t49 187.5zM356 777q-31 20 -50 20q-30 0 -36 -39h-74q4 59 32 91
t74 32q20 0 36 -6.5t39 -19.5q17 -10 28 -15t23 -5q17 0 24.5 10t11.5 28h74q-4 -59 -32.5 -90.5t-74.5 -31.5q-21 0 -38 7t-37 19z" />
    <glyph glyph-name="OE" unicode="&#x152;" horiz-adv-x="1005" 
d="M627 593v-187h305v-107h-305v-192h322v-107h-442v33q-62 -47 -160 -47q-147 0 -223.5 99.5t-76.5 264.5t76.5 264.5t223.5 99.5q98 0 160 -48v34h442v-107h-322zM507 153v393q-26 29 -60 43.5t-81 14.5q-96 0 -145.5 -66.5t-49.5 -187.5t49.5 -187.5t145.5 -66.5
q90 0 141 57z" />
    <glyph glyph-name="P" unicode="P" horiz-adv-x="596" 
d="M564 490q0 -97 -54.5 -153.5t-156.5 -56.5h-154v-280h-120v700h273q102 0 157 -55t55 -155zM439 490q0 50 -25.5 76.5t-76.5 26.5h-138v-206h138q102 0 102 103z" />
    <glyph glyph-name="Thorn" unicode="&#xde;" horiz-adv-x="602" 
d="M79 700h120v-136h157q100 0 154 -55t54 -155q0 -96 -54.5 -153t-153.5 -57h-157v-144h-120v700zM341 251q98 0 98 103t-98 103h-142v-206h142z" />
    <glyph glyph-name="Q" unicode="Q" horiz-adv-x="733" 
d="M626 -57l-80 89q-72 -46 -180 -46q-161 0 -240 99t-79 265t79 265t240 99q162 0 241 -99t79 -265q0 -154 -65 -247l80 -88zM466 121l-148 164l71 70l144 -157q28 60 28 152q0 121 -49 187.5t-146 66.5q-96 0 -145.5 -67t-49.5 -187t49.5 -187t145.5 -67q58 0 100 25z" />
    <glyph glyph-name="R" unicode="R" horiz-adv-x="634" 
d="M589 0h-124l-11 95q-11 98 -45.5 142t-99.5 44h-110v-281h-120v700h278q106 0 162 -55t56 -151q0 -130 -109 -172q44 -26 71 -78.5t38 -137.5zM199 388h148q50 0 76.5 26.5t26.5 75.5t-26.5 76t-76.5 27h-148v-205z" />
    <glyph glyph-name="Racute" unicode="&#x154;" horiz-adv-x="634" 
d="M589 0h-124l-11 95q-11 98 -45.5 142t-99.5 44h-110v-281h-120v700h278q106 0 162 -55t56 -151q0 -130 -109 -172q44 -26 71 -78.5t38 -137.5zM199 388h148q50 0 76.5 26.5t26.5 75.5t-26.5 76t-76.5 27h-148v-205zM321 897h123l-93 -141h-110z" />
    <glyph glyph-name="Rcaron" unicode="&#x158;" horiz-adv-x="634" 
d="M589 0h-124l-11 95q-11 98 -45.5 142t-99.5 44h-110v-281h-120v700h278q106 0 162 -55t56 -151q0 -130 -109 -172q44 -26 71 -78.5t38 -137.5zM199 388h148q50 0 76.5 26.5t26.5 75.5t-26.5 76t-76.5 27h-148v-205zM127 897h110l63 -74l62 74h110l-107 -141h-130z" />
    <glyph glyph-name="uni0156" unicode="&#x156;" horiz-adv-x="634" 
d="M589 0h-124l-11 95q-11 98 -45.5 142t-99.5 44h-110v-281h-120v700h278q106 0 162 -55t56 -151q0 -130 -109 -172q44 -26 71 -78.5t38 -137.5zM199 388h148q50 0 76.5 26.5t26.5 75.5t-26.5 76t-76.5 27h-148v-205zM353 -291h-64l33 104h-54v116h120v-106z" />
    <glyph glyph-name="S" unicode="S" horiz-adv-x="605" 
d="M426 528q-9 42 -36.5 61t-83.5 19q-62 0 -91.5 -25.5t-29.5 -68.5q0 -39 19 -59t69 -28l92 -13q98 -15 147 -66t49 -146q0 -105 -68.5 -160.5t-197.5 -55.5q-126 0 -188.5 54t-72.5 155h124q8 -54 39.5 -77.5t97.5 -23.5q143 0 143 100q0 42 -24.5 67.5t-86.5 34.5
l-91 13q-88 14 -131.5 62t-43.5 136q0 59 27 106t82 74t136 27q112 0 172 -45.5t72 -140.5h-124z" />
    <glyph glyph-name="Sacute" unicode="&#x15a;" horiz-adv-x="605" 
d="M426 528q-9 42 -36.5 61t-83.5 19q-62 0 -91.5 -25.5t-29.5 -68.5q0 -39 19 -59t69 -28l92 -13q98 -15 147 -66t49 -146q0 -105 -68.5 -160.5t-197.5 -55.5q-126 0 -188.5 54t-72.5 155h124q8 -54 39.5 -77.5t97.5 -23.5q143 0 143 100q0 42 -24.5 67.5t-86.5 34.5
l-91 13q-88 14 -131.5 62t-43.5 136q0 59 27 106t82 74t136 27q112 0 172 -45.5t72 -140.5h-124zM327 897h123l-93 -141h-110z" />
    <glyph glyph-name="Scaron" unicode="&#x160;" horiz-adv-x="605" 
d="M426 528q-9 42 -36.5 61t-83.5 19q-62 0 -91.5 -25.5t-29.5 -68.5q0 -39 19 -59t69 -28l92 -13q98 -15 147 -66t49 -146q0 -105 -68.5 -160.5t-197.5 -55.5q-126 0 -188.5 54t-72.5 155h124q8 -54 39.5 -77.5t97.5 -23.5q143 0 143 100q0 42 -24.5 67.5t-86.5 34.5
l-91 13q-88 14 -131.5 62t-43.5 136q0 59 27 106t82 74t136 27q112 0 172 -45.5t72 -140.5h-124zM133 897h110l63 -74l62 74h110l-107 -141h-130z" />
    <glyph glyph-name="Scedilla" unicode="&#x15e;" horiz-adv-x="605" 
d="M426 528q-9 42 -36.5 61t-83.5 19q-62 0 -91.5 -25.5t-29.5 -68.5q0 -39 19 -59t69 -28l92 -13q98 -15 147 -66t49 -146q0 -105 -68.5 -160.5t-197.5 -55.5q-126 0 -188.5 54t-72.5 155h124q8 -54 39.5 -77.5t97.5 -23.5q143 0 143 100q0 42 -24.5 67.5t-86.5 34.5
l-91 13q-88 14 -131.5 62t-43.5 136q0 59 27 106t82 74t136 27q112 0 172 -45.5t72 -140.5h-124zM199 -164l72 188l100 -15l-60 -173h-112z" />
    <glyph glyph-name="Scircumflex" unicode="&#x15c;" horiz-adv-x="605" 
d="M426 528q-9 42 -36.5 61t-83.5 19q-62 0 -91.5 -25.5t-29.5 -68.5q0 -39 19 -59t69 -28l92 -13q98 -15 147 -66t49 -146q0 -105 -68.5 -160.5t-197.5 -55.5q-126 0 -188.5 54t-72.5 155h124q8 -54 39.5 -77.5t97.5 -23.5q143 0 143 100q0 42 -24.5 67.5t-86.5 34.5
l-91 13q-88 14 -131.5 62t-43.5 136q0 59 27 106t82 74t136 27q112 0 172 -45.5t72 -140.5h-124zM371 897l109 -141h-111l-63 74l-62 -74h-111l108 141h130z" />
    <glyph glyph-name="uni0218" unicode="&#x218;" horiz-adv-x="605" 
d="M426 528q-9 42 -36.5 61t-83.5 19q-62 0 -91.5 -25.5t-29.5 -68.5q0 -39 19 -59t69 -28l92 -13q98 -15 147 -66t49 -146q0 -105 -68.5 -160.5t-197.5 -55.5q-126 0 -188.5 54t-72.5 155h124q8 -54 39.5 -77.5t97.5 -23.5q143 0 143 100q0 42 -24.5 67.5t-86.5 34.5
l-91 13q-88 14 -131.5 62t-43.5 136q0 59 27 106t82 74t136 27q112 0 172 -45.5t72 -140.5h-124zM330 -291h-64l33 104h-54v116h120v-106z" />
    <glyph glyph-name="uni1E9E" unicode="&#x1e9e;" horiz-adv-x="675" 
d="M634 213q0 -114 -61.5 -170.5t-166.5 -56.5q-67 0 -119 15v111q46 -16 101 -16q59 0 90.5 28t31.5 85q0 54 -30 81.5t-83 27.5h-82v85l80 118q29 47 60 75v2q-39 -5 -88 -5h-45q-62 0 -95 -34.5t-33 -99.5v-459h-120v465q0 110 64 172.5t184 62.5h263v-94l-139 -190
q86 -5 137 -57t51 -146z" />
    <glyph glyph-name="uni018F" unicode="&#x18f;" horiz-adv-x="717" 
d="M670 350q0 -168 -76 -266t-236 -98q-161 0 -236.5 91.5t-75.5 257.5q0 16 2 48h497q-11 221 -187 221q-76 0 -116 -25t-58 -87h-125q22 108 93.5 165t205.5 57q160 0 236 -98t76 -266zM542 283h-367q9 -187 183 -187q162 0 184 187z" />
    <glyph glyph-name="T" unicode="T" horiz-adv-x="556" 
d="M32 593v107h492v-107h-186v-593h-120v593h-186z" />
    <glyph glyph-name="Tbar" unicode="&#x166;" horiz-adv-x="563" 
d="M35 593v107h492v-107h-186v-593h-120v593h-186zM137 367h290v-92h-290v92z" />
    <glyph glyph-name="Tcaron" unicode="&#x164;" horiz-adv-x="556" 
d="M32 593v107h492v-107h-186v-593h-120v593h-186zM106 897h110l63 -74l62 74h110l-107 -141h-130z" />
    <glyph glyph-name="uni0162" unicode="&#x162;" horiz-adv-x="556" 
d="M524 700v-107h-186v-593l-60 -165h-122l62 168v590h-186v107h492z" />
    <glyph glyph-name="uni021A" unicode="&#x21a;" horiz-adv-x="556" 
d="M32 593v107h492v-107h-186v-593h-120v593h-186zM303 -291h-64l33 104h-54v116h120v-106z" />
    <glyph glyph-name="uni1E6A" unicode="&#x1e6a;" horiz-adv-x="556" 
d="M32 593v107h492v-107h-186v-593h-120v593h-186zM217 873h124v-110h-124v110z" />
    <glyph glyph-name="U" unicode="U" horiz-adv-x="685" 
d="M193 700v-441q0 -79 39 -121t112 -42q72 0 110 42t38 121v441h120v-449q0 -122 -68 -193.5t-200 -71.5q-134 0 -202.5 71.5t-68.5 193.5v449h120z" />
    <glyph glyph-name="Uacute" unicode="&#xda;" horiz-adv-x="685" 
d="M193 700v-441q0 -79 39 -121t112 -42q72 0 110 42t38 121v441h120v-449q0 -122 -68 -193.5t-200 -71.5q-134 0 -202.5 71.5t-68.5 193.5v449h120zM364 897h123l-93 -141h-110z" />
    <glyph glyph-name="Ubreve" unicode="&#x16c;" horiz-adv-x="685" 
d="M193 700v-441q0 -79 39 -121t112 -42q72 0 110 42t38 121v441h120v-449q0 -122 -68 -193.5t-200 -71.5q-134 0 -202.5 71.5t-68.5 193.5v449h120zM188 897h86q4 -33 20 -49t49 -16q32 0 48 16t20 49h87q-3 -67 -41 -106t-114 -39t-114.5 39t-40.5 106z" />
    <glyph glyph-name="Ucircumflex" unicode="&#xdb;" horiz-adv-x="685" 
d="M193 700v-441q0 -79 39 -121t112 -42q72 0 110 42t38 121v441h120v-449q0 -122 -68 -193.5t-200 -71.5q-134 0 -202.5 71.5t-68.5 193.5v449h120zM408 897l109 -141h-111l-63 74l-62 -74h-111l108 141h130z" />
    <glyph glyph-name="Udieresis" unicode="&#xdc;" horiz-adv-x="685" 
d="M193 700v-441q0 -79 39 -121t112 -42q72 0 110 42t38 121v441h120v-449q0 -122 -68 -193.5t-200 -71.5q-134 0 -202.5 71.5t-68.5 193.5v449h120zM157 873h118v-110h-118v110zM410 873h118v-110h-118v110z" />
    <glyph glyph-name="Ugrave" unicode="&#xd9;" horiz-adv-x="685" 
d="M193 700v-441q0 -79 39 -121t112 -42q72 0 110 42t38 121v441h120v-449q0 -122 -68 -193.5t-200 -71.5q-134 0 -202.5 71.5t-68.5 193.5v449h120zM286 756l-93 141h123l80 -141h-110z" />
    <glyph glyph-name="Uhungarumlaut" unicode="&#x170;" horiz-adv-x="685" 
d="M193 700v-441q0 -79 39 -121t112 -42q72 0 110 42t38 121v441h120v-449q0 -122 -68 -193.5t-200 -71.5q-134 0 -202.5 71.5t-68.5 193.5v449h120zM271 897h123l-93 -141h-110zM466 897h123l-95 -141h-108z" />
    <glyph glyph-name="Umacron" unicode="&#x16a;" horiz-adv-x="685" 
d="M193 700v-441q0 -79 39 -121t112 -42q72 0 110 42t38 121v441h120v-449q0 -122 -68 -193.5t-200 -71.5q-134 0 -202.5 71.5t-68.5 193.5v449h120zM198 862h291v-93h-291v93z" />
    <glyph glyph-name="Uogonek" unicode="&#x172;" horiz-adv-x="685" 
d="M193 700v-441q0 -79 39 -121t112 -42q72 0 110 42t38 121v441h120v-449q0 -122 -68 -193.5t-200 -71.5q-134 0 -202.5 71.5t-68.5 193.5v449h120zM261 -114q0 31 12.5 55t43.5 48l63 49l65 -38l-60 -53q-13 -12 -18 -21.5t-5 -21.5q0 -13 8 -20t21 -7t27.5 5t25.5 12v-72
q-11 -7 -33 -13t-52 -6q-45 0 -71.5 22.5t-26.5 60.5z" />
    <glyph glyph-name="Uring" unicode="&#x16e;" horiz-adv-x="685" 
d="M193 700v-441q0 -79 39 -121t112 -42q72 0 110 42t38 121v441h120v-449q0 -122 -68 -193.5t-200 -71.5q-134 0 -202.5 71.5t-68.5 193.5v449h120zM208 862q0 56 35 90t100 34q64 0 99 -34t35 -90q0 -55 -35 -89t-99 -34q-65 0 -100 34t-35 89zM395 862q0 24 -13.5 38.5
t-38.5 14.5t-39 -14.5t-14 -38.5t14 -37.5t39 -13.5t38.5 13.5t13.5 37.5z" />
    <glyph glyph-name="Utilde" unicode="&#x168;" horiz-adv-x="685" 
d="M193 700v-441q0 -79 39 -121t112 -42q72 0 110 42t38 121v441h120v-449q0 -122 -68 -193.5t-200 -71.5q-134 0 -202.5 71.5t-68.5 193.5v449h120zM333 777q-31 20 -50 20q-30 0 -36 -39h-74q4 59 32 91t74 32q20 0 36 -6.5t39 -19.5q17 -10 28 -15t23 -5q17 0 24.5 10
t11.5 28h74q-4 -59 -32.5 -90.5t-74.5 -31.5q-21 0 -38 7t-37 19z" />
    <glyph glyph-name="V" unicode="V" horiz-adv-x="653" 
d="M327 102q14 73 39 155l141 443h130l-236 -700h-149l-236 700h130l141 -443l38 -155h2z" />
    <glyph glyph-name="W" unicode="W" horiz-adv-x="940" 
d="M433 391l-96 -391h-146l-167 700h132l86 -408q12 -58 25 -169h2q12 89 30 169l98 408h146l98 -408q18 -80 30 -169h2q11 96 25 169l86 408h133l-168 -700h-146l-96 391q-26 108 -36 187h-2q-10 -79 -36 -187z" />
    <glyph glyph-name="Wacute" unicode="&#x1e82;" horiz-adv-x="940" 
d="M433 391l-96 -391h-146l-167 700h132l86 -408q12 -58 25 -169h2q12 89 30 169l98 408h146l98 -408q18 -80 30 -169h2q11 96 25 169l86 408h133l-168 -700h-146l-96 391q-26 108 -36 187h-2q-10 -79 -36 -187zM491 897h123l-93 -141h-110z" />
    <glyph glyph-name="Wcircumflex" unicode="&#x174;" horiz-adv-x="940" 
d="M433 391l-96 -391h-146l-167 700h132l86 -408q12 -58 25 -169h2q12 89 30 169l98 408h146l98 -408q18 -80 30 -169h2q11 96 25 169l86 408h133l-168 -700h-146l-96 391q-26 108 -36 187h-2q-10 -79 -36 -187zM535 897l109 -141h-111l-63 74l-62 -74h-111l108 141h130z
" />
    <glyph glyph-name="Wdieresis" unicode="&#x1e84;" horiz-adv-x="940" 
d="M433 391l-96 -391h-146l-167 700h132l86 -408q12 -58 25 -169h2q12 89 30 169l98 408h146l98 -408q18 -80 30 -169h2q11 96 25 169l86 408h133l-168 -700h-146l-96 391q-26 108 -36 187h-2q-10 -79 -36 -187zM284 873h118v-110h-118v110zM537 873h118v-110h-118v110z" />
    <glyph glyph-name="Wgrave" unicode="&#x1e80;" horiz-adv-x="940" 
d="M433 391l-96 -391h-146l-167 700h132l86 -408q12 -58 25 -169h2q12 89 30 169l98 408h146l98 -408q18 -80 30 -169h2q11 96 25 169l86 408h133l-168 -700h-146l-96 391q-26 108 -36 187h-2q-10 -79 -36 -187zM413 756l-93 141h123l80 -141h-110z" />
    <glyph glyph-name="X" unicode="X" horiz-adv-x="637" 
d="M264 528q28 -48 53 -109h2q27 63 54 109l109 172h144l-225 -346l222 -354h-142l-108 176q-33 58 -54 109h-2q-17 -44 -53 -109l-108 -176h-142l222 354l-225 346h144z" />
    <glyph glyph-name="Y" unicode="Y" horiz-adv-x="614" 
d="M367 270v-270h-120v270l-229 430h139l104 -208q28 -60 45 -116h2q18 59 46 116l103 208h139z" />
    <glyph glyph-name="Yacute" unicode="&#xdd;" horiz-adv-x="614" 
d="M367 270v-270h-120v270l-229 430h139l104 -208q28 -60 45 -116h2q18 59 46 116l103 208h139zM328 897h123l-93 -141h-110z" />
    <glyph glyph-name="Ycircumflex" unicode="&#x176;" horiz-adv-x="614" 
d="M367 270v-270h-120v270l-229 430h139l104 -208q28 -60 45 -116h2q18 59 46 116l103 208h139zM372 897l109 -141h-111l-63 74l-62 -74h-111l108 141h130z" />
    <glyph glyph-name="Ydieresis" unicode="&#x178;" horiz-adv-x="614" 
d="M367 270v-270h-120v270l-229 430h139l104 -208q28 -60 45 -116h2q18 59 46 116l103 208h139zM121 873h118v-110h-118v110zM374 873h118v-110h-118v110z" />
    <glyph glyph-name="Ygrave" unicode="&#x1ef2;" horiz-adv-x="614" 
d="M367 270v-270h-120v270l-229 430h139l104 -208q28 -60 45 -116h2q18 59 46 116l103 208h139zM250 756l-93 141h123l80 -141h-110z" />
    <glyph glyph-name="uni0232" unicode="&#x232;" horiz-adv-x="614" 
d="M367 270v-270h-120v270l-229 430h139l104 -208q28 -60 45 -116h2q18 59 46 116l103 208h139zM162 862h291v-93h-291v93z" />
    <glyph glyph-name="uni1EF8" unicode="&#x1ef8;" horiz-adv-x="614" 
d="M367 270v-270h-120v270l-229 430h139l104 -208q28 -60 45 -116h2q18 59 46 116l103 208h139zM297 777q-31 20 -50 20q-30 0 -36 -39h-74q4 59 32 91t74 32q20 0 36 -6.5t39 -19.5q17 -10 28 -15t23 -5q17 0 24.5 10t11.5 28h74q-4 -59 -32.5 -90.5t-74.5 -31.5
q-21 0 -38 7t-37 19z" />
    <glyph glyph-name="Z" unicode="Z" horiz-adv-x="572" 
d="M526 700v-89l-262 -404q-49 -72 -78 -104v-2q38 6 122 6h229v-107h-501v89l261 404q49 72 78 104v2q-38 -6 -122 -6h-209v107h482z" />
    <glyph glyph-name="Zacute" unicode="&#x179;" horiz-adv-x="572" 
d="M526 700v-89l-262 -404q-49 -72 -78 -104v-2q38 6 122 6h229v-107h-501v89l261 404q49 72 78 104v2q-38 -6 -122 -6h-209v107h482zM308 897h123l-93 -141h-110z" />
    <glyph glyph-name="Zcaron" unicode="&#x17d;" horiz-adv-x="572" 
d="M526 700v-89l-262 -404q-49 -72 -78 -104v-2q38 6 122 6h229v-107h-501v89l261 404q49 72 78 104v2q-38 -6 -122 -6h-209v107h482zM114 897h110l63 -74l62 74h110l-107 -141h-130z" />
    <glyph glyph-name="Zdotaccent" unicode="&#x17b;" horiz-adv-x="572" 
d="M526 700v-89l-262 -404q-49 -72 -78 -104v-2q38 6 122 6h229v-107h-501v89l261 404q49 72 78 104v2q-38 -6 -122 -6h-209v107h482zM225 873h124v-110h-124v110z" />
    <glyph glyph-name="Iacute_J.locl" horiz-adv-x="839" 
d="M86 0v700h120v-700h-120zM158 897h123l-93 -141h-110zM763 700v-455q0 -123 -59.5 -191t-174.5 -68q-114 0 -172 56.5t-65 166.5h122q5 -62 31 -87.5t84 -25.5q56 0 85 38.5t29 107.5v458h120zM724 897h123l-93 -141h-110z" />
    <glyph glyph-name="a" unicode="a" horiz-adv-x="514" 
d="M254 506q99 0 148 -40.5t49 -127.5v-338h-103v64q-54 -76 -157 -76q-76 0 -115 40.5t-39 108.5q0 67 38.5 105.5t119.5 50.5l95 15q28 4 40 14.5t12 33.5q0 27 -21.5 43.5t-66.5 16.5q-41 0 -60.5 -13t-24.5 -40h-109q7 67 56 105t138 38zM299 226l-83 -13
q-35 -5 -52.5 -23t-17.5 -46q0 -31 19 -48.5t53 -17.5q52 0 87 30.5t35 81.5v46q-11 -4 -41 -10z" />
    <glyph glyph-name="aacute" unicode="&#xe1;" horiz-adv-x="514" 
d="M254 506q99 0 148 -40.5t49 -127.5v-338h-103v64q-54 -76 -157 -76q-76 0 -115 40.5t-39 108.5q0 67 38.5 105.5t119.5 50.5l95 15q28 4 40 14.5t12 33.5q0 27 -21.5 43.5t-66.5 16.5q-41 0 -60.5 -13t-24.5 -40h-109q7 67 56 105t138 38zM299 226l-83 -13
q-35 -5 -52.5 -23t-17.5 -46q0 -31 19 -48.5t53 -17.5q52 0 87 30.5t35 81.5v46q-11 -4 -41 -10zM402 731l-84 -158h-107l72 158h119z" />
    <glyph glyph-name="abreve" unicode="&#x103;" horiz-adv-x="514" 
d="M254 506q99 0 148 -40.5t49 -127.5v-338h-103v64q-54 -76 -157 -76q-76 0 -115 40.5t-39 108.5q0 67 38.5 105.5t119.5 50.5l95 15q28 4 40 14.5t12 33.5q0 27 -21.5 43.5t-66.5 16.5q-41 0 -60.5 -13t-24.5 -40h-109q7 67 56 105t138 38zM299 226l-83 -13
q-35 -5 -52.5 -23t-17.5 -46q0 -31 19 -48.5t53 -17.5q52 0 87 30.5t35 81.5v46q-11 -4 -41 -10zM108 730h86q2 -80 69 -80q66 0 69 80h85q0 -79 -38.5 -120.5t-115.5 -41.5t-115.5 41.5t-39.5 120.5z" />
    <glyph glyph-name="acircumflex" unicode="&#xe2;" horiz-adv-x="514" 
d="M254 506q99 0 148 -40.5t49 -127.5v-338h-103v64q-54 -76 -157 -76q-76 0 -115 40.5t-39 108.5q0 67 38.5 105.5t119.5 50.5l95 15q28 4 40 14.5t12 33.5q0 27 -21.5 43.5t-66.5 16.5q-41 0 -60.5 -13t-24.5 -40h-109q7 67 56 105t138 38zM299 226l-83 -13
q-35 -5 -52.5 -23t-17.5 -46q0 -31 19 -48.5t53 -17.5q52 0 87 30.5t35 81.5v46q-11 -4 -41 -10zM329 731l100 -158h-104l-62 92l-60 -92h-105l100 158h131z" />
    <glyph glyph-name="adieresis" unicode="&#xe4;" horiz-adv-x="514" 
d="M254 506q99 0 148 -40.5t49 -127.5v-338h-103v64q-54 -76 -157 -76q-76 0 -115 40.5t-39 108.5q0 67 38.5 105.5t119.5 50.5l95 15q28 4 40 14.5t12 33.5q0 27 -21.5 43.5t-66.5 16.5q-41 0 -60.5 -13t-24.5 -40h-109q7 67 56 105t138 38zM299 226l-83 -13
q-35 -5 -52.5 -23t-17.5 -46q0 -31 19 -48.5t53 -17.5q52 0 87 30.5t35 81.5v46q-11 -4 -41 -10zM106 700h118v-110h-118v110zM302 700h119v-110h-119v110z" />
    <glyph glyph-name="agrave" unicode="&#xe0;" horiz-adv-x="514" 
d="M254 506q99 0 148 -40.5t49 -127.5v-338h-103v64q-54 -76 -157 -76q-76 0 -115 40.5t-39 108.5q0 67 38.5 105.5t119.5 50.5l95 15q28 4 40 14.5t12 33.5q0 27 -21.5 43.5t-66.5 16.5q-41 0 -60.5 -13t-24.5 -40h-109q7 67 56 105t138 38zM299 226l-83 -13
q-35 -5 -52.5 -23t-17.5 -46q0 -31 19 -48.5t53 -17.5q52 0 87 30.5t35 81.5v46q-11 -4 -41 -10zM317 573h-107l-84 158h119z" />
    <glyph glyph-name="amacron" unicode="&#x101;" horiz-adv-x="514" 
d="M254 506q99 0 148 -40.5t49 -127.5v-338h-103v64q-54 -76 -157 -76q-76 0 -115 40.5t-39 108.5q0 67 38.5 105.5t119.5 50.5l95 15q28 4 40 14.5t12 33.5q0 27 -21.5 43.5t-66.5 16.5q-41 0 -60.5 -13t-24.5 -40h-109q7 67 56 105t138 38zM299 226l-83 -13
q-35 -5 -52.5 -23t-17.5 -46q0 -31 19 -48.5t53 -17.5q52 0 87 30.5t35 81.5v46q-11 -4 -41 -10zM118 675h291v-92h-291v92z" />
    <glyph glyph-name="aogonek" unicode="&#x105;" horiz-adv-x="514" 
d="M254 506q99 0 148 -40.5t49 -127.5v-338h-103v64q-54 -76 -157 -76q-76 0 -115 40.5t-39 108.5q0 67 38.5 105.5t119.5 50.5l95 15q28 4 40 14.5t12 33.5q0 27 -21.5 43.5t-66.5 16.5q-41 0 -60.5 -13t-24.5 -40h-109q7 67 56 105t138 38zM299 226l-83 -13
q-35 -5 -52.5 -23t-17.5 -46q0 -31 19 -48.5t53 -17.5q52 0 87 30.5t35 81.5v46q-11 -4 -41 -10zM267 -114q0 31 12.5 55t43.5 48l63 49l65 -38l-60 -53q-13 -12 -18 -21.5t-5 -21.5q0 -13 8 -20t21 -7t27.5 5t25.5 12v-72q-11 -7 -33 -13t-52 -6q-45 0 -71.5 22.5
t-26.5 60.5z" />
    <glyph glyph-name="aring" unicode="&#xe5;" horiz-adv-x="514" 
d="M254 506q99 0 148 -40.5t49 -127.5v-338h-103v64q-54 -76 -157 -76q-76 0 -115 40.5t-39 108.5q0 67 38.5 105.5t119.5 50.5l95 15q28 4 40 14.5t12 33.5q0 27 -21.5 43.5t-66.5 16.5q-41 0 -60.5 -13t-24.5 -40h-109q7 67 56 105t138 38zM299 226l-83 -13
q-35 -5 -52.5 -23t-17.5 -46q0 -31 19 -48.5t53 -17.5q52 0 87 30.5t35 81.5v46q-11 -4 -41 -10zM127 665q0 56 35 90t100 34q64 0 99 -34t35 -90t-35 -90t-99 -34q-65 0 -100 34t-35 90zM315 665q0 24 -14 38t-39 14t-39 -14t-14 -38t14 -38t39 -14t39 14t14 38z" />
    <glyph glyph-name="aringacute" unicode="&#x1fb;" horiz-adv-x="514" 
d="M254 506q99 0 148 -40.5t49 -127.5v-338h-103v64q-54 -76 -157 -76q-76 0 -115 40.5t-39 108.5q0 67 38.5 105.5t119.5 50.5l95 15q28 4 40 14.5t12 33.5q0 27 -21.5 43.5t-66.5 16.5q-41 0 -60.5 -13t-24.5 -40h-109q7 67 56 105t138 38zM299 226l-83 -13
q-35 -5 -52.5 -23t-17.5 -46q0 -31 19 -48.5t53 -17.5q52 0 87 30.5t35 81.5v46q-11 -4 -41 -10zM123 661q0 56 35 90t100 34q64 0 99 -34t35 -90t-35 -90t-99 -34q-65 0 -100 34t-35 90zM311 661q0 24 -14 38t-39 14t-39 -14t-14 -38t14 -38t39 -14t39 14t14 38zM395 969
l-84 -158h-107l72 158h119z" />
    <glyph glyph-name="atilde" unicode="&#xe3;" horiz-adv-x="514" 
d="M254 506q99 0 148 -40.5t49 -127.5v-338h-103v64q-54 -76 -157 -76q-76 0 -115 40.5t-39 108.5q0 67 38.5 105.5t119.5 50.5l95 15q28 4 40 14.5t12 33.5q0 27 -21.5 43.5t-66.5 16.5q-41 0 -60.5 -13t-24.5 -40h-109q7 67 56 105t138 38zM299 226l-83 -13
q-35 -5 -52.5 -23t-17.5 -46q0 -31 19 -48.5t53 -17.5q52 0 87 30.5t35 81.5v46q-11 -4 -41 -10zM253 592q-17 10 -28 15t-23 5q-16 0 -23.5 -10t-11.5 -29h-74q4 59 32 91t74 32q20 0 36 -6.5t39 -19.5q17 -10 28 -15t23 -5q16 0 23.5 10t11.5 28h75q-4 -58 -33 -90
t-74 -32q-20 0 -36 6.5t-39 19.5z" />
    <glyph glyph-name="ae" unicode="&#xe6;" horiz-adv-x="825" 
d="M782 215h-333q5 -69 32.5 -103t81.5 -34q42 0 65.5 13t34.5 43h111q-34 -148 -211 -148q-121 0 -175 85q-24 -39 -69 -61t-109 -22q-89 0 -131 40t-42 109q0 67 38.5 105.5t119.5 50.5l95 15q29 4 41 14.5t12 33.5q0 27 -22 43.5t-67 16.5q-41 0 -60.5 -13t-24.5 -40
h-109q7 67 56 105t138 38q62 0 100 -16t57 -50q48 66 151 66q115 0 168 -64.5t53 -186.5q0 -27 -1 -40zM671 303q-4 58 -29.5 86.5t-79.5 28.5q-49 0 -76 -28.5t-35 -86.5h220zM340 236q-10 -4 -42 -10l-83 -13q-34 -5 -52 -23.5t-18 -45.5q0 -32 19.5 -49t56.5 -17
q50 0 84.5 29t34.5 83v46z" />
    <glyph glyph-name="aeacute" unicode="&#x1fd;" horiz-adv-x="825" 
d="M782 215h-333q5 -69 32.5 -103t81.5 -34q42 0 65.5 13t34.5 43h111q-34 -148 -211 -148q-121 0 -175 85q-24 -39 -69 -61t-109 -22q-89 0 -131 40t-42 109q0 67 38.5 105.5t119.5 50.5l95 15q29 4 41 14.5t12 33.5q0 27 -22 43.5t-67 16.5q-41 0 -60.5 -13t-24.5 -40
h-109q7 67 56 105t138 38q62 0 100 -16t57 -50q48 66 151 66q115 0 168 -64.5t53 -186.5q0 -27 -1 -40zM671 303q-4 58 -29.5 86.5t-79.5 28.5q-49 0 -76 -28.5t-35 -86.5h220zM340 236q-10 -4 -42 -10l-83 -13q-34 -5 -52 -23.5t-18 -45.5q0 -32 19.5 -49t56.5 -17
q50 0 84.5 29t34.5 83v46zM553 731l-84 -158h-107l72 158h119z" />
    <glyph glyph-name="b" unicode="b" horiz-adv-x="571" 
d="M528 246q0 -260 -212 -260q-96 0 -143 66v-52h-106v700h112v-252q45 58 137 58q212 0 212 -260zM414 246q0 160 -121 160q-119 0 -119 -160q0 -159 119 -159q121 0 121 159z" />
    <glyph glyph-name="c" unicode="c" horiz-adv-x="516" 
d="M270 506q95 0 148.5 -44.5t65.5 -123.5h-111q-9 35 -34.5 51.5t-68.5 16.5q-58 0 -86.5 -41.5t-28.5 -118.5q0 -159 115 -159q44 0 69 16.5t34 50.5h111q-12 -79 -65.5 -123.5t-148.5 -44.5q-117 0 -172.5 69.5t-55.5 190.5t55.5 190.5t172.5 69.5z" />
    <glyph glyph-name="cacute" unicode="&#x107;" horiz-adv-x="516" 
d="M270 506q95 0 148.5 -44.5t65.5 -123.5h-111q-9 35 -34.5 51.5t-68.5 16.5q-58 0 -86.5 -41.5t-28.5 -118.5q0 -159 115 -159q44 0 69 16.5t34 50.5h111q-12 -79 -65.5 -123.5t-148.5 -44.5q-117 0 -172.5 69.5t-55.5 190.5t55.5 190.5t172.5 69.5zM412 731l-84 -158
h-107l72 158h119z" />
    <glyph glyph-name="ccaron" unicode="&#x10d;" horiz-adv-x="516" 
d="M270 506q95 0 148.5 -44.5t65.5 -123.5h-111q-9 35 -34.5 51.5t-68.5 16.5q-58 0 -86.5 -41.5t-28.5 -118.5q0 -159 115 -159q44 0 69 16.5t34 50.5h111q-12 -79 -65.5 -123.5t-148.5 -44.5q-117 0 -172.5 69.5t-55.5 190.5t55.5 190.5t172.5 69.5zM208 573l-100 158h104
l62 -92l60 92h105l-100 -158h-131z" />
    <glyph glyph-name="ccedilla" unicode="&#xe7;" horiz-adv-x="516" 
d="M270 506q95 0 148.5 -44.5t65.5 -123.5h-111q-9 35 -34.5 51.5t-68.5 16.5q-58 0 -86.5 -41.5t-28.5 -118.5q0 -159 115 -159q44 0 69 16.5t34 50.5h111q-12 -79 -65.5 -123.5t-148.5 -44.5q-117 0 -172.5 69.5t-55.5 190.5t55.5 190.5t172.5 69.5zM167 -164l72 188
l100 -15l-60 -173h-112z" />
    <glyph glyph-name="ccircumflex" unicode="&#x109;" horiz-adv-x="516" 
d="M270 506q95 0 148.5 -44.5t65.5 -123.5h-111q-9 35 -34.5 51.5t-68.5 16.5q-58 0 -86.5 -41.5t-28.5 -118.5q0 -159 115 -159q44 0 69 16.5t34 50.5h111q-12 -79 -65.5 -123.5t-148.5 -44.5q-117 0 -172.5 69.5t-55.5 190.5t55.5 190.5t172.5 69.5zM339 731l100 -158
h-104l-62 92l-60 -92h-105l100 158h131z" />
    <glyph glyph-name="cdotaccent" unicode="&#x10b;" horiz-adv-x="516" 
d="M270 506q95 0 148.5 -44.5t65.5 -123.5h-111q-9 35 -34.5 51.5t-68.5 16.5q-58 0 -86.5 -41.5t-28.5 -118.5q0 -159 115 -159q44 0 69 16.5t34 50.5h111q-12 -79 -65.5 -123.5t-148.5 -44.5q-117 0 -172.5 69.5t-55.5 190.5t55.5 190.5t172.5 69.5zM212 700h123v-116
h-123v116z" />
    <glyph glyph-name="d" unicode="d" horiz-adv-x="570" 
d="M504 700v-700h-106v52q-47 -66 -144 -66q-211 0 -211 260t211 260q93 0 138 -58v252h112zM397 246q0 160 -120 160q-121 0 -121 -160q0 -159 121 -159q120 0 120 159z" />
    <glyph glyph-name="eth" unicode="&#xf0;" horiz-adv-x="554" 
d="M510 258q0 -126 -58.5 -199t-176.5 -73q-111 0 -172 68.5t-61 184.5q0 124 60.5 188.5t165.5 64.5q36 0 69 -14q-24 47 -67 97l-97 -46l-38 65l77 37q-27 22 -56 41l108 52q24 -19 51 -44l84 40l39 -64l-68 -33q67 -79 103.5 -171t36.5 -194zM394 239q0 72 -31 112
t-88 40t-88.5 -40t-31.5 -112t31.5 -111.5t88.5 -39.5t88 39.5t31 111.5z" />
    <glyph glyph-name="dcaron" unicode="&#x10f;" horiz-adv-x="641" 
d="M504 700v-700h-106v52q-47 -66 -144 -66q-211 0 -211 260t211 260q93 0 138 -58v252h112zM397 246q0 160 -120 160q-121 0 -121 -160q0 -159 121 -159q120 0 120 159zM638 480h-64l33 104h-54v116h120v-106z" />
    <glyph glyph-name="dcroat" unicode="&#x111;" horiz-adv-x="570" 
d="M552 565h-48v-565h-106v52q-47 -66 -144 -66q-211 0 -211 260t211 260q93 0 138 -58v117h-109v78h109v57h112v-57h48v-78zM397 246q0 160 -120 160q-121 0 -121 -160q0 -159 121 -159q120 0 120 159z" />
    <glyph glyph-name="e" unicode="e" horiz-adv-x="527" 
d="M484 215h-332q5 -69 32.5 -103t81.5 -34q41 0 63.5 13t34.5 43h112q-33 -148 -210 -148q-114 0 -169 68.5t-55 191.5q0 117 53.5 188.5t168.5 71.5q222 0 222 -255q0 -23 -2 -36zM374 303q-5 57 -31 86t-79 29q-49 0 -75.5 -29t-34.5 -86h220z" />
    <glyph glyph-name="eacute" unicode="&#xe9;" horiz-adv-x="527" 
d="M484 215h-332q5 -69 32.5 -103t81.5 -34q41 0 63.5 13t34.5 43h112q-33 -148 -210 -148q-114 0 -169 68.5t-55 191.5q0 117 53.5 188.5t168.5 71.5q222 0 222 -255q0 -23 -2 -36zM374 303q-5 57 -31 86t-79 29q-49 0 -75.5 -29t-34.5 -86h220zM407 731l-84 -158h-107
l72 158h119z" />
    <glyph glyph-name="ebreve" unicode="&#x115;" horiz-adv-x="527" 
d="M484 215h-332q5 -69 32.5 -103t81.5 -34q41 0 63.5 13t34.5 43h112q-33 -148 -210 -148q-114 0 -169 68.5t-55 191.5q0 117 53.5 188.5t168.5 71.5q222 0 222 -255q0 -23 -2 -36zM374 303q-5 57 -31 86t-79 29q-49 0 -75.5 -29t-34.5 -86h220zM113 730h86q2 -80 69 -80
q66 0 69 80h85q0 -79 -38.5 -120.5t-115.5 -41.5t-115.5 41.5t-39.5 120.5z" />
    <glyph glyph-name="ecaron" unicode="&#x11b;" horiz-adv-x="527" 
d="M484 215h-332q5 -69 32.5 -103t81.5 -34q41 0 63.5 13t34.5 43h112q-33 -148 -210 -148q-114 0 -169 68.5t-55 191.5q0 117 53.5 188.5t168.5 71.5q222 0 222 -255q0 -23 -2 -36zM374 303q-5 57 -31 86t-79 29q-49 0 -75.5 -29t-34.5 -86h220zM203 573l-100 158h104
l62 -92l60 92h105l-100 -158h-131z" />
    <glyph glyph-name="ecircumflex" unicode="&#xea;" horiz-adv-x="527" 
d="M484 215h-332q5 -69 32.5 -103t81.5 -34q41 0 63.5 13t34.5 43h112q-33 -148 -210 -148q-114 0 -169 68.5t-55 191.5q0 117 53.5 188.5t168.5 71.5q222 0 222 -255q0 -23 -2 -36zM374 303q-5 57 -31 86t-79 29q-49 0 -75.5 -29t-34.5 -86h220zM334 731l100 -158h-104
l-62 92l-60 -92h-105l100 158h131z" />
    <glyph glyph-name="edieresis" unicode="&#xeb;" horiz-adv-x="527" 
d="M484 215h-332q5 -69 32.5 -103t81.5 -34q41 0 63.5 13t34.5 43h112q-33 -148 -210 -148q-114 0 -169 68.5t-55 191.5q0 117 53.5 188.5t168.5 71.5q222 0 222 -255q0 -23 -2 -36zM374 303q-5 57 -31 86t-79 29q-49 0 -75.5 -29t-34.5 -86h220zM111 700h118v-110h-118v110
zM307 700h119v-110h-119v110z" />
    <glyph glyph-name="edotaccent" unicode="&#x117;" horiz-adv-x="527" 
d="M484 215h-332q5 -69 32.5 -103t81.5 -34q41 0 63.5 13t34.5 43h112q-33 -148 -210 -148q-114 0 -169 68.5t-55 191.5q0 117 53.5 188.5t168.5 71.5q222 0 222 -255q0 -23 -2 -36zM374 303q-5 57 -31 86t-79 29q-49 0 -75.5 -29t-34.5 -86h220zM207 700h123v-116h-123v116
z" />
    <glyph glyph-name="egrave" unicode="&#xe8;" horiz-adv-x="527" 
d="M484 215h-332q5 -69 32.5 -103t81.5 -34q41 0 63.5 13t34.5 43h112q-33 -148 -210 -148q-114 0 -169 68.5t-55 191.5q0 117 53.5 188.5t168.5 71.5q222 0 222 -255q0 -23 -2 -36zM374 303q-5 57 -31 86t-79 29q-49 0 -75.5 -29t-34.5 -86h220zM322 573h-107l-84 158h119z
" />
    <glyph glyph-name="emacron" unicode="&#x113;" horiz-adv-x="527" 
d="M484 215h-332q5 -69 32.5 -103t81.5 -34q41 0 63.5 13t34.5 43h112q-33 -148 -210 -148q-114 0 -169 68.5t-55 191.5q0 117 53.5 188.5t168.5 71.5q222 0 222 -255q0 -23 -2 -36zM374 303q-5 57 -31 86t-79 29q-49 0 -75.5 -29t-34.5 -86h220zM123 675h291v-92h-291v92z
" />
    <glyph glyph-name="eogonek" unicode="&#x119;" horiz-adv-x="527" 
d="M313 -197q-46 0 -72 23t-26 61q0 28 11 51.5t37 47.5q-58 0 -99.5 19t-68.5 52.5t-40 81.5t-13 107q0 54 12 101t38 82.5t68.5 56t103.5 20.5q58 0 100 -17.5t69 -50t40 -79t13 -104.5v-19.5t-2 -20.5h-332q5 -69 32 -103t82 -34q41 0 63.5 12.5t34.5 43.5h112
q-17 -69 -63 -106l-70 -70q-15 -15 -21 -27t-6 -25q0 -29 31 -29q12 0 26 5t25 12v-72q-8 -5 -29.5 -12t-55.5 -7zM264 418q-50 0 -76 -29t-34 -86h220q-5 55 -30 85t-80 30z" />
    <glyph glyph-name="uni1EBD" unicode="&#x1ebd;" horiz-adv-x="527" 
d="M484 215h-332q5 -69 32.5 -103t81.5 -34q41 0 63.5 13t34.5 43h112q-33 -148 -210 -148q-114 0 -169 68.5t-55 191.5q0 117 53.5 188.5t168.5 71.5q222 0 222 -255q0 -23 -2 -36zM374 303q-5 57 -31 86t-79 29q-49 0 -75.5 -29t-34.5 -86h220zM258 592q-17 10 -28 15
t-23 5q-16 0 -23.5 -10t-11.5 -29h-74q4 59 32 91t74 32q20 0 36 -6.5t39 -19.5q17 -10 28 -15t23 -5q16 0 23.5 10t11.5 28h75q-4 -58 -33 -90t-74 -32q-20 0 -36 6.5t-39 19.5z" />
    <glyph glyph-name="uni0259" unicode="&#x259;" horiz-adv-x="528" 
d="M41.9971 276.983h331.98q-5 68.9951 -32.498 102.993q-27.499 33.998 -81.4951 33.998q-40.998 0 -63.4961 -12.999q-22.499 -12.999 -34.498 -42.9971h-111.993q32.998 147.99 209.987 147.99q113.993 0 168.989 -68.4951q54.9971 -68.4961 54.9971 -191.488
q0 -116.993 -53.4971 -188.489q-53.4971 -71.4951 -168.489 -71.4951q-221.986 0 -221.986 254.984q0 22.999 1.99902 35.998zM151.99 188.988q5 -56.9961 30.999 -85.9941q25.998 -28.999 78.9951 -28.999q48.9971 0 75.4951 28.999q26.498 28.998 34.498 85.9941h-219.987
z" />
    <glyph glyph-name="f" unicode="f" horiz-adv-x="358" 
d="M106 492v40q0 88 46 132t129 44q30 0 60 -6v-92q-16 3 -42 3q-40 0 -60.5 -18t-20.5 -63v-40h123v-92h-123v-400h-112v400h-84v92h84z" />
    <glyph glyph-name="g" unicode="g" horiz-adv-x="565" 
d="M498 492v-465q0 -114 -56 -169t-171 -55q-100 0 -155 40t-68 124h111q10 -38 35.5 -52.5t76.5 -14.5q58 0 86.5 29.5t28.5 91.5v67q-46 -54 -133 -54q-107 0 -158.5 61t-51.5 176q0 114 51.5 174.5t158.5 60.5q93 0 139 -62v48h106zM389 271q0 135 -115 135
q-114 0 -114 -135q0 -136 114 -136q115 0 115 136z" />
    <glyph glyph-name="gbreve" unicode="&#x11f;" horiz-adv-x="565" 
d="M498 492v-465q0 -114 -56 -169t-171 -55q-100 0 -155 40t-68 124h111q10 -38 35.5 -52.5t76.5 -14.5q58 0 86.5 29.5t28.5 91.5v67q-46 -54 -133 -54q-107 0 -158.5 61t-51.5 176q0 114 51.5 174.5t158.5 60.5q93 0 139 -62v48h106zM389 271q0 135 -115 135
q-114 0 -114 -135q0 -136 114 -136q115 0 115 136zM122 730h86q2 -80 69 -80q66 0 69 80h85q0 -79 -38.5 -120.5t-115.5 -41.5t-115.5 41.5t-39.5 120.5z" />
    <glyph glyph-name="gcaron" unicode="&#x1e7;" horiz-adv-x="565" 
d="M498 492v-465q0 -114 -56 -169t-171 -55q-100 0 -155 40t-68 124h111q10 -38 35.5 -52.5t76.5 -14.5q58 0 86.5 29.5t28.5 91.5v67q-46 -54 -133 -54q-107 0 -158.5 61t-51.5 176q0 114 51.5 174.5t158.5 60.5q93 0 139 -62v48h106zM389 271q0 135 -115 135
q-114 0 -114 -135q0 -136 114 -136q115 0 115 136zM212 573l-100 158h104l62 -92l60 92h105l-100 -158h-131z" />
    <glyph glyph-name="gcircumflex" unicode="&#x11d;" horiz-adv-x="565" 
d="M498 492v-465q0 -114 -56 -169t-171 -55q-100 0 -155 40t-68 124h111q10 -38 35.5 -52.5t76.5 -14.5q58 0 86.5 29.5t28.5 91.5v67q-46 -54 -133 -54q-107 0 -158.5 61t-51.5 176q0 114 51.5 174.5t158.5 60.5q93 0 139 -62v48h106zM389 271q0 135 -115 135
q-114 0 -114 -135q0 -136 114 -136q115 0 115 136zM343 731l100 -158h-104l-62 92l-60 -92h-105l100 158h131z" />
    <glyph glyph-name="uni0123" unicode="&#x123;" horiz-adv-x="565" 
d="M498 492v-465q0 -114 -56 -169t-171 -55q-100 0 -155 40t-68 124h111q10 -38 35.5 -52.5t76.5 -14.5q58 0 86.5 29.5t28.5 91.5v67q-46 -54 -133 -54q-107 0 -158.5 61t-51.5 176q0 114 51.5 174.5t158.5 60.5q93 0 139 -62v48h106zM389 271q0 135 -115 135
q-114 0 -114 -135q0 -136 114 -136q115 0 115 136zM251 795h65l-33 -103h53v-116h-119v106z" />
    <glyph glyph-name="gdotaccent" unicode="&#x121;" horiz-adv-x="565" 
d="M498 492v-465q0 -114 -56 -169t-171 -55q-100 0 -155 40t-68 124h111q10 -38 35.5 -52.5t76.5 -14.5q58 0 86.5 29.5t28.5 91.5v67q-46 -54 -133 -54q-107 0 -158.5 61t-51.5 176q0 114 51.5 174.5t158.5 60.5q93 0 139 -62v48h106zM389 271q0 135 -115 135
q-114 0 -114 -135q0 -136 114 -136q115 0 115 136zM216 700h123v-116h-123v116z" />
    <glyph glyph-name="uni021D" unicode="&#x21d;" horiz-adv-x="534" 
d="M32 2h109q7 -53 36.5 -78t82.5 -23q59 0 89.5 28t30.5 79t-31 81.5t-93 30.5h-58v92h58q52 0 78.5 27t26.5 69q0 46 -27 72t-78 26q-44 0 -68.5 -19t-34.5 -58h-110q11 81 62 128.5t151 47.5q106 0 162 -52.5t56 -137.5q0 -50 -24 -87.5t-70 -60.5q53 -16 83.5 -62
t30.5 -105q0 -92 -62.5 -146.5t-171.5 -54.5q-104 0 -161 52.5t-67 150.5z" />
    <glyph glyph-name="h" unicode="h" horiz-adv-x="546" 
d="M67 700h114v-257q39 63 124 63q91 0 134.5 -45.5t43.5 -151.5v-309h-112v297q0 58 -23.5 83.5t-72.5 25.5t-72.5 -25.5t-23.5 -83.5v-297h-112v700z" />
    <glyph glyph-name="hbar" unicode="&#x127;" horiz-adv-x="546" 
d="M483 309v-309h-112v297q0 58 -23.5 83.5t-72.5 25.5t-72.5 -25.5t-23.5 -83.5v-297h-112v565h-59v78h59v57h114v-57h95v-78h-95v-122q39 63 124 63q91 0 134.5 -45.5t43.5 -151.5z" />
    <glyph glyph-name="hcircumflex" unicode="&#x125;" horiz-adv-x="546" 
d="M67 700h114v-257q39 63 124 63q91 0 134.5 -45.5t43.5 -151.5v-309h-112v297q0 58 -23.5 83.5t-72.5 25.5t-72.5 -25.5t-23.5 -83.5v-297h-112v700zM332 894l109 -141h-111l-63 74l-62 -74h-111l108 141h130z" />
    <glyph glyph-name="i" unicode="i" horiz-adv-x="249" 
d="M63 700h123v-116h-123v116zM68 492h113v-492h-113v492z" />
    <glyph glyph-name="dotlessi" unicode="&#x131;" horiz-adv-x="249" 
d="M68 492h113v-492h-113v492z" />
    <glyph glyph-name="iacute" unicode="&#xed;" horiz-adv-x="249" 
d="M68 492h113v-492h-113v492zM263 731l-84 -158h-107l72 158h119z" />
    <glyph glyph-name="ibreve" unicode="&#x12d;" horiz-adv-x="249" 
d="M68 492h113v-492h-113v492zM-31 730h86q2 -80 69 -80q66 0 69 80h85q0 -79 -38.5 -120.5t-115.5 -41.5t-115.5 41.5t-39.5 120.5z" />
    <glyph glyph-name="icircumflex" unicode="&#xee;" horiz-adv-x="249" 
d="M68 492h113v-492h-113v492zM190 731l100 -158h-104l-62 92l-60 -92h-105l100 158h131z" />
    <glyph glyph-name="idieresis" unicode="&#xef;" horiz-adv-x="249" 
d="M68 492h113v-492h-113v492zM-32 700h118v-110h-118v110zM164 700h119v-110h-119v110z" />
    <glyph glyph-name="i.locl" horiz-adv-x="249" 
d="M68 492h113v-492h-113v492zM64 700h123v-116h-123v116z" />
    <glyph glyph-name="igrave" unicode="&#xec;" horiz-adv-x="249" 
d="M68 492h113v-492h-113v492zM178 573h-107l-84 158h119z" />
    <glyph glyph-name="ij" unicode="&#x133;" horiz-adv-x="477" 
d="M63 700h123v-116h-123v116zM68 492h113v-492h-113v492zM298 700h123v-116h-123v116zM256 -193q-24 0 -39 3v94q8 -1 18 -1q33 0 50.5 17.5t17.5 57.5v514h112v-514q0 -86 -44 -128.5t-115 -42.5z" />
    <glyph glyph-name="imacron" unicode="&#x12b;" horiz-adv-x="249" 
d="M68 492h113v-492h-113v492zM-20 675h291v-92h-291v92z" />
    <glyph glyph-name="iogonek" unicode="&#x12f;" horiz-adv-x="249" 
d="M186 700v-116h-123v116h123zM68 492h113v-492l-54 -48q-14 -14 -19 -25.5t-5 -24.5q0 -11 7.5 -18t19.5 -7q21 0 44 13v-72q-9 -5 -30 -10t-46 -5q-44 0 -70 25t-26 64q0 64 61 115l5 4v481z" />
    <glyph glyph-name="itilde" unicode="&#x129;" horiz-adv-x="249" 
d="M68 492h113v-492h-113v492zM114 592q-17 10 -28 15t-23 5q-16 0 -23.5 -10t-11.5 -29h-74q4 59 32 91t74 32q20 0 36 -6.5t39 -19.5q17 -10 28 -15t23 -5q16 0 23.5 10t11.5 28h75q-4 -58 -33 -90t-74 -32q-20 0 -36 6.5t-39 19.5z" />
    <glyph glyph-name="j" unicode="j" horiz-adv-x="256" 
d="M70 700h123v-116h-123v116zM28 -193q-24 0 -39 3v94q8 -1 18 -1q33 0 50.5 17.5t17.5 57.5v514h112v-514q0 -86 -44 -128.5t-115 -42.5z" />
    <glyph glyph-name="uni0237" unicode="&#x237;" horiz-adv-x="256" 
d="M28 -193q-24 0 -39 3v94q8 -1 18 -1q33 0 50.5 17.5t17.5 57.5v514h112v-514q0 -86 -44 -128.5t-115 -42.5z" />
    <glyph glyph-name="jcircumflex" unicode="&#x135;" horiz-adv-x="256" 
d="M28 -193q-24 0 -39 3v94q8 -1 18 -1q33 0 50.5 17.5t17.5 57.5v514h112v-514q0 -86 -44 -128.5t-115 -42.5zM197 731l100 -158h-104l-62 92l-60 -92h-105l100 158h131z" />
    <glyph glyph-name="k" unicode="k" horiz-adv-x="519" 
d="M213 169l-34 -36v-133h-112v700h112v-311v-46q0 -50 -2 -72h2q37 55 64 85l120 136h147l-184 -202l184 -290h-137l-96 160q-18 29 -28 50h-2q-16 -24 -34 -41z" />
    <glyph glyph-name="uni0137" unicode="&#x137;" horiz-adv-x="519" 
d="M213 169l-34 -36v-133h-112v700h112v-311v-46q0 -50 -2 -72h2q37 55 64 85l120 136h147l-184 -202l184 -290h-137l-96 160q-18 29 -28 50h-2q-16 -24 -34 -41zM293 -291h-64l33 104h-54v116h120v-106z" />
    <glyph glyph-name="kgreenlandic" unicode="&#x138;" horiz-adv-x="519" 
d="M251 216q-8 -12 -17.5 -22.5t-20.5 -21.5l-34 -33v-139h-112v492h112v-96v-59.5t-2 -59.5h2q15 23 31.5 45.5t33.5 40.5l119 129h147l-181 -196l181 -296h-137l-93 166q-7 12 -14 24.5t-13 25.5h-2v0z" />
    <glyph glyph-name="l" unicode="l" horiz-adv-x="249" 
d="M68 700h113v-700h-113v700z" />
    <glyph glyph-name="lacute" unicode="&#x13a;" horiz-adv-x="249" 
d="M68 700h113v-700h-113v700zM142 894h123l-93 -141h-110z" />
    <glyph glyph-name="lcaron" unicode="&#x13e;" horiz-adv-x="328" 
d="M68 700h113v-700h-113v700zM315 480h-64l33 104h-54v116h120v-106z" />
    <glyph glyph-name="uni013C" unicode="&#x13c;" horiz-adv-x="249" 
d="M68 700h113v-700h-113v700zM151 -291h-64l33 104h-54v116h120v-106z" />
    <glyph glyph-name="ldot" unicode="&#x140;" horiz-adv-x="369" 
d="M68 700h113v-700h-113v700zM382 422v-144h-144v144h144z" />
    <glyph glyph-name="lslash" unicode="&#x142;" horiz-adv-x="317" 
d="M288 374l-70 -36v-338h-112v280l-65 -34v103l65 34v317h112v-259l70 37v-104z" />
    <glyph glyph-name="m" unicode="m" horiz-adv-x="846" 
d="M301 506q62 0 98.5 -20t53.5 -63q19 39 53.5 61t98.5 22q92 0 135.5 -44.5t43.5 -150.5v-311h-113v298q0 59 -22 83.5t-74 24.5q-50 0 -72 -27t-22 -78v-301h-112v298q0 59 -23 83.5t-74 24.5q-49 0 -71 -27.5t-22 -80.5v-298h-112v492h106v-55q43 69 128 69z" />
    <glyph glyph-name="n" unicode="n" horiz-adv-x="546" 
d="M67 492h105v-55q35 69 134 69q89 0 133 -45.5t44 -151.5v-309h-112v297q0 58 -23.5 83.5t-72.5 25.5t-72.5 -25.5t-23.5 -83.5v-297h-112v492z" />
    <glyph glyph-name="nacute" unicode="&#x144;" horiz-adv-x="546" 
d="M67 492h105v-55q35 69 134 69q89 0 133 -45.5t44 -151.5v-309h-112v297q0 58 -23.5 83.5t-72.5 25.5t-72.5 -25.5t-23.5 -83.5v-297h-112v492zM414 731l-84 -158h-107l72 158h119z" />
    <glyph glyph-name="ncaron" unicode="&#x148;" horiz-adv-x="546" 
d="M67 492h105v-55q35 69 134 69q89 0 133 -45.5t44 -151.5v-309h-112v297q0 58 -23.5 83.5t-72.5 25.5t-72.5 -25.5t-23.5 -83.5v-297h-112v492zM210 573l-100 158h104l62 -92l60 92h105l-100 -158h-131z" />
    <glyph glyph-name="uni0146" unicode="&#x146;" horiz-adv-x="546" 
d="M67 492h105v-55q35 69 134 69q89 0 133 -45.5t44 -151.5v-309h-112v297q0 58 -23.5 83.5t-72.5 25.5t-72.5 -25.5t-23.5 -83.5v-297h-112v492zM298 -291h-64l33 104h-54v116h120v-106z" />
    <glyph glyph-name="eng" unicode="&#x14b;" horiz-adv-x="545" 
d="M483 309v-341q0 -86 -37 -126.5t-112 -40.5q-36 0 -57 5v92q17 -3 34 -3q33 0 46.5 17.5t13.5 64.5v320q0 58 -23.5 83.5t-72.5 25.5t-72.5 -25.5t-23.5 -83.5v-297h-112v492h105v-55q35 69 134 69q89 0 133 -45.5t44 -151.5z" />
    <glyph glyph-name="ntilde" unicode="&#xf1;" horiz-adv-x="546" 
d="M67 492h105v-55q35 69 134 69q89 0 133 -45.5t44 -151.5v-309h-112v297q0 58 -23.5 83.5t-72.5 25.5t-72.5 -25.5t-23.5 -83.5v-297h-112v492zM265 592q-17 10 -28 15t-23 5q-16 0 -23.5 -10t-11.5 -29h-74q4 59 32 91t74 32q20 0 36 -6.5t39 -19.5q17 -10 28 -15t23 -5
q16 0 23.5 10t11.5 28h75q-4 -58 -33 -90t-74 -32q-20 0 -36 6.5t-39 19.5z" />
    <glyph glyph-name="o" unicode="o" horiz-adv-x="552" 
d="M42 246q0 122 58 191t176 69q119 0 176.5 -69t57.5 -191t-57.5 -191t-176.5 -69q-118 0 -176 69t-58 191zM156 246q0 -159 120 -159t120 159q0 160 -120 160t-120 -160z" />
    <glyph glyph-name="oacute" unicode="&#xf3;" horiz-adv-x="552" 
d="M42 246q0 122 58 191t176 69q119 0 176.5 -69t57.5 -191t-57.5 -191t-176.5 -69q-118 0 -176 69t-58 191zM156 246q0 -159 120 -159t120 159q0 160 -120 160t-120 -160zM415 731l-84 -158h-107l72 158h119z" />
    <glyph glyph-name="obreve" unicode="&#x14f;" horiz-adv-x="552" 
d="M42 246q0 122 58 191t176 69q119 0 176.5 -69t57.5 -191t-57.5 -191t-176.5 -69q-118 0 -176 69t-58 191zM156 246q0 -159 120 -159t120 159q0 160 -120 160t-120 -160zM121 730h86q2 -80 69 -80q66 0 69 80h85q0 -79 -38.5 -120.5t-115.5 -41.5t-115.5 41.5t-39.5 120.5
z" />
    <glyph glyph-name="ocircumflex" unicode="&#xf4;" horiz-adv-x="552" 
d="M42 246q0 122 58 191t176 69q119 0 176.5 -69t57.5 -191t-57.5 -191t-176.5 -69q-118 0 -176 69t-58 191zM156 246q0 -159 120 -159t120 159q0 160 -120 160t-120 -160zM342 731l100 -158h-104l-62 92l-60 -92h-105l100 158h131z" />
    <glyph glyph-name="odieresis" unicode="&#xf6;" horiz-adv-x="552" 
d="M42 246q0 122 58 191t176 69q119 0 176.5 -69t57.5 -191t-57.5 -191t-176.5 -69q-118 0 -176 69t-58 191zM156 246q0 -159 120 -159t120 159q0 160 -120 160t-120 -160zM119 700h118v-110h-118v110zM315 700h119v-110h-119v110z" />
    <glyph glyph-name="ograve" unicode="&#xf2;" horiz-adv-x="552" 
d="M42 246q0 122 58 191t176 69q119 0 176.5 -69t57.5 -191t-57.5 -191t-176.5 -69q-118 0 -176 69t-58 191zM156 246q0 -159 120 -159t120 159q0 160 -120 160t-120 -160zM330 573h-107l-84 158h119z" />
    <glyph glyph-name="ohungarumlaut" unicode="&#x151;" horiz-adv-x="552" 
d="M42 246q0 122 58 191t176 69q119 0 176.5 -69t57.5 -191t-57.5 -191t-176.5 -69q-118 0 -176 69t-58 191zM156 246q0 -159 120 -159t120 159q0 160 -120 160t-120 -160zM320 731l-84 -158h-107l72 158h119zM510 731l-84 -158h-107l72 158h119z" />
    <glyph glyph-name="omacron" unicode="&#x14d;" horiz-adv-x="552" 
d="M42 246q0 122 58 191t176 69q119 0 176.5 -69t57.5 -191t-57.5 -191t-176.5 -69q-118 0 -176 69t-58 191zM156 246q0 -159 120 -159t120 159q0 160 -120 160t-120 -160zM131 675h291v-92h-291v92z" />
    <glyph glyph-name="oslash" unicode="&#xf8;" horiz-adv-x="561" 
d="M482 397q31 -61 31 -151q0 -122 -57.5 -191t-176.5 -69q-90 0 -146 42l-41 -43l-62 67l45 47q-29 59 -29 147q0 122 57.5 191t175.5 69q87 0 143 -39l47 49l63 -67zM163 193l184 194q-26 19 -68 19q-120 0 -120 -160q0 -32 4 -53zM395 304l-187 -196q28 -21 71 -21
q121 0 121 159q0 30 -5 58z" />
    <glyph glyph-name="oslashacute" unicode="&#x1ff;" horiz-adv-x="561" 
d="M482 397q31 -61 31 -151q0 -122 -57.5 -191t-176.5 -69q-90 0 -146 42l-41 -43l-62 67l45 47q-29 59 -29 147q0 122 57.5 191t175.5 69q87 0 143 -39l47 49l63 -67zM163 193l184 194q-26 19 -68 19q-120 0 -120 -160q0 -32 4 -53zM395 304l-187 -196q28 -21 71 -21
q121 0 121 159q0 30 -5 58zM410 731l-84 -158h-107l72 158h119z" />
    <glyph glyph-name="otilde" unicode="&#xf5;" horiz-adv-x="552" 
d="M42 246q0 122 58 191t176 69q119 0 176.5 -69t57.5 -191t-57.5 -191t-176.5 -69q-118 0 -176 69t-58 191zM156 246q0 -159 120 -159t120 159q0 160 -120 160t-120 -160zM266 592q-17 10 -28 15t-23 5q-16 0 -23.5 -10t-11.5 -29h-74q4 59 32 91t74 32q20 0 36 -6.5
t39 -19.5q17 -10 28 -15t23 -5q16 0 23.5 10t11.5 28h75q-4 -58 -33 -90t-74 -32q-20 0 -36 6.5t-39 19.5z" />
    <glyph glyph-name="oe" unicode="&#x153;" horiz-adv-x="892" 
d="M849 215h-333q9 -137 114 -137q42 0 65.5 13t34.5 43h111q-34 -148 -211 -148q-120 0 -173 81q-57 -81 -181 -81q-118 0 -176 69t-58 191t58 191t176 69q125 0 181 -81q53 81 172 81q115 0 168 -64.5t53 -186.5q0 -27 -1 -40zM738 303q-4 58 -30 86.5t-79 28.5
q-49 0 -76 -28.5t-35 -86.5h220zM396 246q0 160 -120 160t-120 -160q0 -159 120 -159t120 159z" />
    <glyph glyph-name="p" unicode="p" horiz-adv-x="570" 
d="M528 246q0 -124 -51.5 -192t-160.5 -68q-89 0 -137 56v-230h-112v680h105v-51q48 65 144 65q109 0 160.5 -68t51.5 -192zM414 246q0 160 -120 160t-120 -160q0 -159 120 -159t120 159z" />
    <glyph glyph-name="thorn" unicode="&#xfe;" horiz-adv-x="570" 
d="M528 246q0 -124 -51.5 -192t-160.5 -68q-89 0 -137 56v-230h-112v888h112v-250q48 56 137 56q109 0 160.5 -68t51.5 -192zM414 246q0 160 -120 160t-120 -160q0 -159 120 -159t120 159z" />
    <glyph glyph-name="q" unicode="q" horiz-adv-x="570" 
d="M503 492v-680h-112v230q-45 -56 -136 -56q-212 0 -212 260t212 260q97 0 143 -65v51h105zM396 246q0 160 -120 160q-60 0 -90 -40.5t-30 -119.5q0 -78 30 -118.5t90 -40.5q120 0 120 159z" />
    <glyph glyph-name="r" unicode="r" horiz-adv-x="345" 
d="M172 492v-62q15 34 47 55t84 21l23 -2v-108q-17 3 -50 3q-44 0 -70.5 -28t-26.5 -78v-293h-112v492h105z" />
    <glyph glyph-name="racute" unicode="&#x155;" horiz-adv-x="345" 
d="M172 492v-62q15 34 47 55t84 21l23 -2v-108q-17 3 -50 3q-44 0 -70.5 -28t-26.5 -78v-293h-112v492h105zM322 731l-84 -158h-107l72 158h119z" />
    <glyph glyph-name="rcaron" unicode="&#x159;" horiz-adv-x="345" 
d="M172 492v-62q15 34 47 55t84 21l23 -2v-108q-17 3 -50 3q-44 0 -70.5 -28t-26.5 -78v-293h-112v492h105zM118 573l-100 158h104l62 -92l60 92h105l-100 -158h-131z" />
    <glyph glyph-name="uni0157" unicode="&#x157;" horiz-adv-x="345" 
d="M172 492v-62q15 34 47 55t84 21l23 -2v-108q-17 3 -50 3q-44 0 -70.5 -28t-26.5 -78v-293h-112v492h105zM148 -291h-64l33 104h-54v116h120v-106z" />
    <glyph glyph-name="s" unicode="s" horiz-adv-x="477" 
d="M429 363h-111q-6 28 -24.5 40.5t-54.5 12.5q-39 0 -57.5 -15t-18.5 -41q0 -47 59 -55l54 -8q84 -13 123 -47.5t39 -101.5q0 -79 -51 -120.5t-152 -41.5q-97 0 -146 38t-58 110h112q5 -30 26.5 -44t65.5 -14q91 0 91 61q0 26 -16.5 40t-54.5 20l-54 9q-75 12 -112 46
t-37 98q0 71 47.5 113.5t139.5 42.5q85 0 133.5 -36t56.5 -107z" />
    <glyph glyph-name="sacute" unicode="&#x15b;" horiz-adv-x="477" 
d="M429 363h-111q-6 28 -24.5 40.5t-54.5 12.5q-39 0 -57.5 -15t-18.5 -41q0 -47 59 -55l54 -8q84 -13 123 -47.5t39 -101.5q0 -79 -51 -120.5t-152 -41.5q-97 0 -146 38t-58 110h112q5 -30 26.5 -44t65.5 -14q91 0 91 61q0 26 -16.5 40t-54.5 20l-54 9q-75 12 -112 46
t-37 98q0 71 47.5 113.5t139.5 42.5q85 0 133.5 -36t56.5 -107zM378 731l-84 -158h-107l72 158h119z" />
    <glyph glyph-name="scaron" unicode="&#x161;" horiz-adv-x="477" 
d="M429 363h-111q-6 28 -24.5 40.5t-54.5 12.5q-39 0 -57.5 -15t-18.5 -41q0 -47 59 -55l54 -8q84 -13 123 -47.5t39 -101.5q0 -79 -51 -120.5t-152 -41.5q-97 0 -146 38t-58 110h112q5 -30 26.5 -44t65.5 -14q91 0 91 61q0 26 -16.5 40t-54.5 20l-54 9q-75 12 -112 46
t-37 98q0 71 47.5 113.5t139.5 42.5q85 0 133.5 -36t56.5 -107zM174 573l-100 158h104l62 -92l60 92h105l-100 -158h-131z" />
    <glyph glyph-name="scedilla" unicode="&#x15f;" horiz-adv-x="477" 
d="M429 363h-111q-6 28 -24.5 40.5t-54.5 12.5q-39 0 -57.5 -15t-18.5 -41q0 -47 59 -55l54 -8q84 -13 123 -47.5t39 -101.5q0 -79 -51 -120.5t-152 -41.5q-97 0 -146 38t-58 110h112q5 -30 26.5 -44t65.5 -14q91 0 91 61q0 26 -16.5 40t-54.5 20l-54 9q-75 12 -112 46
t-37 98q0 71 47.5 113.5t139.5 42.5q85 0 133.5 -36t56.5 -107zM130 -164l72 188l100 -15l-60 -173h-112z" />
    <glyph glyph-name="scircumflex" unicode="&#x15d;" horiz-adv-x="477" 
d="M429 363h-111q-6 28 -24.5 40.5t-54.5 12.5q-39 0 -57.5 -15t-18.5 -41q0 -47 59 -55l54 -8q84 -13 123 -47.5t39 -101.5q0 -79 -51 -120.5t-152 -41.5q-97 0 -146 38t-58 110h112q5 -30 26.5 -44t65.5 -14q91 0 91 61q0 26 -16.5 40t-54.5 20l-54 9q-75 12 -112 46
t-37 98q0 71 47.5 113.5t139.5 42.5q85 0 133.5 -36t56.5 -107zM305 731l100 -158h-104l-62 92l-60 -92h-105l100 158h131z" />
    <glyph glyph-name="uni0219" unicode="&#x219;" horiz-adv-x="477" 
d="M429 363h-111q-6 28 -24.5 40.5t-54.5 12.5q-39 0 -57.5 -15t-18.5 -41q0 -47 59 -55l54 -8q84 -13 123 -47.5t39 -101.5q0 -79 -51 -120.5t-152 -41.5q-97 0 -146 38t-58 110h112q5 -30 26.5 -44t65.5 -14q91 0 91 61q0 26 -16.5 40t-54.5 20l-54 9q-75 12 -112 46
t-37 98q0 71 47.5 113.5t139.5 42.5q85 0 133.5 -36t56.5 -107zM265 -291h-64l33 104h-54v116h120v-106z" />
    <glyph glyph-name="germandbls" unicode="&#xdf;" horiz-adv-x="587" 
d="M546 194q0 -105 -58 -153.5t-154 -48.5q-43 0 -76 6v99q23 -6 55 -6q58 0 88.5 26t30.5 85t-30.5 84.5t-89.5 25.5h-42v93h22q100 0 100 103q0 49 -26.5 77t-81.5 28q-54 0 -79.5 -31.5t-25.5 -94.5v-487h-112v480q0 115 53.5 174t161.5 59q113 0 168 -54t55 -141
q0 -103 -78 -144q58 -16 88.5 -59t30.5 -121z" />
    <glyph glyph-name="t" unicode="t" horiz-adv-x="371" 
d="M341 492v-92h-126v-229q0 -47 20.5 -64.5t61.5 -17.5q24 0 44 4v-94q-34 -6 -64 -6q-174 0 -174 171v236h-84v92h84v145h112v-145h126z" />
    <glyph glyph-name="tbar" unicode="&#x167;" horiz-adv-x="373" 
d="M216 400v-89h77v-92h-77v-48q0 -47 21 -64.5t62 -17.5q24 0 44 4v-94q-36 -6 -65 -6q-174 0 -174 171v55h-55v92h55v89h-83v92h83v145h112v-145h127v-92h-127z" />
    <glyph glyph-name="tcaron" unicode="&#x165;" horiz-adv-x="434" 
d="M447 448h-71l41 110h-60v142h134v-132zM341 492v-92h-126v-229q0 -47 20.5 -64.5t61.5 -17.5q24 0 44 4v-94q-34 -6 -64 -6q-174 0 -174 171v236h-84v92h84v145h112v-145h126z" />
    <glyph glyph-name="uni0163" unicode="&#x163;" horiz-adv-x="371" 
d="M341 492v-92h-126v-229q0 -47 20.5 -64.5t61.5 -17.5q24 0 44 4v-94q-34 -6 -64 -6q-174 0 -174 171v236h-84v92h84v145h112v-145h126zM129 -164l72 188l100 -15l-60 -173h-112z" />
    <glyph glyph-name="uni021B" unicode="&#x21b;" horiz-adv-x="371" 
d="M341 492v-92h-126v-229q0 -47 20.5 -64.5t61.5 -17.5q24 0 44 4v-94q-34 -6 -64 -6q-174 0 -174 171v236h-84v92h84v145h112v-145h126zM239 -291h-64l33 104h-54v116h120v-106z" />
    <glyph glyph-name="uni1E6B" unicode="&#x1e6b;" horiz-adv-x="371" 
d="M341 492v-92h-126v-229q0 -47 20.5 -64.5t61.5 -17.5q24 0 44 4v-94q-34 -6 -64 -6q-174 0 -174 171v236h-84v92h84v145h112v-145h126z" />
    <glyph glyph-name="u" unicode="u" horiz-adv-x="541" 
d="M63 184v308h111v-296q0 -58 23 -83.5t71 -25.5t71 25.5t23 83.5v296h112v-492h-105v56q-35 -70 -131 -70q-88 0 -131.5 46t-43.5 152z" />
    <glyph glyph-name="uacute" unicode="&#xfa;" horiz-adv-x="541" 
d="M63 184v308h111v-296q0 -58 23 -83.5t71 -25.5t71 25.5t23 83.5v296h112v-492h-105v56q-35 -70 -131 -70q-88 0 -131.5 46t-43.5 152zM409 731l-84 -158h-107l72 158h119z" />
    <glyph glyph-name="ubreve" unicode="&#x16d;" horiz-adv-x="541" 
d="M63 184v308h111v-296q0 -58 23 -83.5t71 -25.5t71 25.5t23 83.5v296h112v-492h-105v56q-35 -70 -131 -70q-88 0 -131.5 46t-43.5 152zM115 730h86q2 -80 69 -80q66 0 69 80h85q0 -79 -38.5 -120.5t-115.5 -41.5t-115.5 41.5t-39.5 120.5z" />
    <glyph glyph-name="ucircumflex" unicode="&#xfb;" horiz-adv-x="541" 
d="M63 184v308h111v-296q0 -58 23 -83.5t71 -25.5t71 25.5t23 83.5v296h112v-492h-105v56q-35 -70 -131 -70q-88 0 -131.5 46t-43.5 152zM336 731l100 -158h-104l-62 92l-60 -92h-105l100 158h131z" />
    <glyph glyph-name="udieresis" unicode="&#xfc;" horiz-adv-x="541" 
d="M63 184v308h111v-296q0 -58 23 -83.5t71 -25.5t71 25.5t23 83.5v296h112v-492h-105v56q-35 -70 -131 -70q-88 0 -131.5 46t-43.5 152zM113 700h118v-110h-118v110zM309 700h119v-110h-119v110z" />
    <glyph glyph-name="ugrave" unicode="&#xf9;" horiz-adv-x="541" 
d="M63 184v308h111v-296q0 -58 23 -83.5t71 -25.5t71 25.5t23 83.5v296h112v-492h-105v56q-35 -70 -131 -70q-88 0 -131.5 46t-43.5 152zM324 573h-107l-84 158h119z" />
    <glyph glyph-name="uhungarumlaut" unicode="&#x171;" horiz-adv-x="541" 
d="M63 184v308h111v-296q0 -58 23 -83.5t71 -25.5t71 25.5t23 83.5v296h112v-492h-105v56q-35 -70 -131 -70q-88 0 -131.5 46t-43.5 152zM314 731l-84 -158h-107l72 158h119zM504 731l-84 -158h-107l72 158h119z" />
    <glyph glyph-name="umacron" unicode="&#x16b;" horiz-adv-x="541" 
d="M63 184v308h111v-296q0 -58 23 -83.5t71 -25.5t71 25.5t23 83.5v296h112v-492h-105v56q-35 -70 -131 -70q-88 0 -131.5 46t-43.5 152zM125 675h291v-92h-291v92z" />
    <glyph glyph-name="uogonek" unicode="&#x173;" horiz-adv-x="541" 
d="M63 184v308h111v-296q0 -58 23 -83.5t71 -25.5t71 25.5t23 83.5v296h112v-492h-105v56q-35 -70 -131 -70q-88 0 -131.5 46t-43.5 152zM290 -114q0 31 12.5 55t43.5 48l63 49l65 -38l-60 -53q-13 -12 -18 -21.5t-5 -21.5q0 -13 8 -20t21 -7t27.5 5t25.5 12v-72
q-11 -7 -33 -13t-52 -6q-45 0 -71.5 22.5t-26.5 60.5z" />
    <glyph glyph-name="uring" unicode="&#x16f;" horiz-adv-x="541" 
d="M63 184v308h111v-296q0 -58 23 -83.5t71 -25.5t71 25.5t23 83.5v296h112v-492h-105v56q-35 -70 -131 -70q-88 0 -131.5 46t-43.5 152zM134 665q0 56 35 90t100 34q64 0 99 -34t35 -90t-35 -90t-99 -34q-65 0 -100 34t-35 90zM322 665q0 24 -14 38t-39 14t-39 -14t-14 -38
t14 -38t39 -14t39 14t14 38z" />
    <glyph glyph-name="utilde" unicode="&#x169;" horiz-adv-x="541" 
d="M63 184v308h111v-296q0 -58 23 -83.5t71 -25.5t71 25.5t23 83.5v296h112v-492h-105v56q-35 -70 -131 -70q-88 0 -131.5 46t-43.5 152zM260 592q-17 10 -28 15t-23 5q-16 0 -23.5 -10t-11.5 -29h-74q4 59 32 91t74 32q20 0 36 -6.5t39 -19.5q17 -10 28 -15t23 -5
q16 0 23.5 10t11.5 28h75q-4 -58 -33 -90t-74 -32q-20 0 -36 6.5t-39 19.5z" />
    <glyph glyph-name="v" unicode="v" horiz-adv-x="514" 
d="M297 251l78 241h122l-173 -492h-134l-173 492h122l78 -241q28 -94 39 -153h2q11 59 39 153z" />
    <glyph glyph-name="w" unicode="w" horiz-adv-x="747" 
d="M345 244l-64 -244h-129l-130 492h121l49 -223q12 -68 24 -160h2q14 92 29 160l59 223h135l58 -223q18 -82 30 -160h2q12 92 24 160l49 223h121l-131 -492h-128l-64 244q-17 73 -28 146h-2q-12 -84 -27 -146z" />
    <glyph glyph-name="wacute" unicode="&#x1e83;" horiz-adv-x="747" 
d="M345 244l-64 -244h-129l-130 492h121l49 -223q12 -68 24 -160h2q14 92 29 160l59 223h135l58 -223q18 -82 30 -160h2q12 92 24 160l49 223h121l-131 -492h-128l-64 244q-17 73 -28 146h-2q-12 -84 -27 -146zM512 731l-84 -158h-107l72 158h119z" />
    <glyph glyph-name="wcircumflex" unicode="&#x175;" horiz-adv-x="747" 
d="M345 244l-64 -244h-129l-130 492h121l49 -223q12 -68 24 -160h2q14 92 29 160l59 223h135l58 -223q18 -82 30 -160h2q12 92 24 160l49 223h121l-131 -492h-128l-64 244q-17 73 -28 146h-2q-12 -84 -27 -146zM439 731l100 -158h-104l-62 92l-60 -92h-105l100 158h131z" />
    <glyph glyph-name="wdieresis" unicode="&#x1e85;" horiz-adv-x="747" 
d="M345 244l-64 -244h-129l-130 492h121l49 -223q12 -68 24 -160h2q14 92 29 160l59 223h135l58 -223q18 -82 30 -160h2q12 92 24 160l49 223h121l-131 -492h-128l-64 244q-17 73 -28 146h-2q-12 -84 -27 -146zM216 700h118v-110h-118v110zM412 700h119v-110h-119v110z" />
    <glyph glyph-name="wgrave" unicode="&#x1e81;" horiz-adv-x="747" 
d="M345 244l-64 -244h-129l-130 492h121l49 -223q12 -68 24 -160h2q14 92 29 160l59 223h135l58 -223q18 -82 30 -160h2q12 92 24 160l49 223h121l-131 -492h-128l-64 244q-17 73 -28 146h-2q-12 -84 -27 -146zM427 573h-107l-84 158h119z" />
    <glyph glyph-name="x" unicode="x" horiz-adv-x="494" 
d="M206 111l-66 -111h-123l156 250l-156 242h123l66 -105q24 -38 40 -76h2q19 43 39 76l66 105h124l-156 -242l156 -250h-124l-66 111q-22 38 -39 76h-2q-16 -36 -40 -76z" />
    <glyph glyph-name="y" unicode="y" horiz-adv-x="509" 
d="M136 492l78 -220q25 -78 38 -145h2q17 85 39 146l79 219h122l-260 -680h-122l85 210l-183 470h122z" />
    <glyph glyph-name="yacute" unicode="&#xfd;" horiz-adv-x="509" 
d="M136 492l78 -220q25 -78 38 -145h2q17 85 39 146l79 219h122l-260 -680h-122l85 210l-183 470h122zM392 731l-84 -158h-107l72 158h119z" />
    <glyph glyph-name="ycircumflex" unicode="&#x177;" horiz-adv-x="509" 
d="M136 492l78 -220q25 -78 38 -145h2q17 85 39 146l79 219h122l-260 -680h-122l85 210l-183 470h122zM319 731l100 -158h-104l-62 92l-60 -92h-105l100 158h131z" />
    <glyph glyph-name="ydieresis" unicode="&#xff;" horiz-adv-x="509" 
d="M136 492l78 -220q25 -78 38 -145h2q17 85 39 146l79 219h122l-260 -680h-122l85 210l-183 470h122zM96 700h118v-110h-118v110zM292 700h119v-110h-119v110z" />
    <glyph glyph-name="ygrave" unicode="&#x1ef3;" horiz-adv-x="509" 
d="M136 492l78 -220q25 -78 38 -145h2q17 85 39 146l79 219h122l-260 -680h-122l85 210l-183 470h122zM307 573h-107l-84 158h119z" />
    <glyph glyph-name="uni0233" unicode="&#x233;" horiz-adv-x="509" 
d="M136 492l78 -220q25 -78 38 -145h2q17 85 39 146l79 219h122l-260 -680h-122l85 210l-183 470h122zM108 675h291v-92h-291v92z" />
    <glyph glyph-name="uni1EF9" unicode="&#x1ef9;" horiz-adv-x="509" 
d="M136 492l78 -220q25 -78 38 -145h2q17 85 39 146l79 219h122l-260 -680h-122l85 210l-183 470h122zM243 592q-17 10 -28 15t-23 5q-16 0 -23.5 -10t-11.5 -29h-74q4 59 32 91t74 32q20 0 36 -6.5t39 -19.5q17 -10 28 -15t23 -5q16 0 23.5 10t11.5 28h75q-4 -58 -33 -90
t-74 -32q-20 0 -36 6.5t-39 19.5z" />
    <glyph glyph-name="z" unicode="z" horiz-adv-x="453" 
d="M37 80l175 241q26 38 67 82v2q-41 -4 -98 -4h-140v91h369v-80l-173 -241q-25 -34 -66 -81v-2q60 4 97 4h149v-92h-380v80z" />
    <glyph glyph-name="zacute" unicode="&#x17a;" horiz-adv-x="453" 
d="M37 80l175 241q26 38 67 82v2q-41 -4 -98 -4h-140v91h369v-80l-173 -241q-25 -34 -66 -81v-2q60 4 97 4h149v-92h-380v80zM365 731l-84 -158h-107l72 158h119z" />
    <glyph glyph-name="zcaron" unicode="&#x17e;" horiz-adv-x="453" 
d="M37 80l175 241q26 38 67 82v2q-41 -4 -98 -4h-140v91h369v-80l-173 -241q-25 -34 -66 -81v-2q60 4 97 4h149v-92h-380v80zM161 573l-100 158h104l62 -92l60 92h105l-100 -158h-131z" />
    <glyph glyph-name="zdotaccent" unicode="&#x17c;" horiz-adv-x="453" 
d="M37 80l175 241q26 38 67 82v2q-41 -4 -98 -4h-140v91h369v-80l-173 -241q-25 -34 -66 -81v-2q60 4 97 4h149v-92h-380v80zM166 700h123v-116h-123v116z" />
    <glyph glyph-name="iacute_j.locl" horiz-adv-x="477" 
d="M73 492h113v-492h-113v492zM267 731l-84 -158h-107l72 158h119zM261 -193q-24 0 -39 3v94q8 -1 18 -1q33 0 50.5 17.5t17.5 57.5v514h112v-514q0 -86 -44 -128.5t-115 -42.5zM494 731l-84 -158h-107l72 158h119z" />
    <glyph glyph-name="uniFB01" unicode="&#xfb01;" horiz-adv-x="588" 
d="M106 492v40q0 88 46 132t129 44q30 0 60 -6v-92q-16 3 -42 3q-40 0 -60.5 -18t-20.5 -63v-40h123v-92h-123v-400h-112v400h-84v92h84zM405 700h123v-116h-123v116zM410 492h113v-492h-113v492z" />
    <glyph glyph-name="uniFB02" unicode="&#xfb02;" horiz-adv-x="586" 
d="M106 492v40q0 88 46 132t129 44q30 0 60 -6v-92q-16 3 -42 3q-40 0 -60.5 -18t-20.5 -63v-40h123v-92h-123v-400h-112v400h-84v92h84zM410 700h113v-700h-113v700z" />
    <glyph glyph-name="ordfeminine" unicode="&#xaa;" horiz-adv-x="403" 
d="M153 352q-54 0 -81.5 29.5t-27.5 77.5q0 47 28 73.5t86 33.5l62 7q21 3 29 9.5t8 22.5q0 17 -13.5 27.5t-42.5 10.5t-41 -8.5t-14 -25.5h-85q6 102 140 102q69 0 104.5 -29.5t35.5 -93.5v-226h-80v43q-35 -53 -108 -53zM229 511l-58 -7q-45 -6 -45 -41q0 -20 12.5 -31.5
t35.5 -11.5q33 0 57.5 20.5t24.5 52.5v26q-10 -6 -27 -8z" />
    <glyph glyph-name="ordmasculine" unicode="&#xba;" horiz-adv-x="418" 
d="M208 711q86 0 127 -48t41 -132t-41 -131.5t-127 -47.5q-84 0 -125 48t-41 131q0 84 41 132t125 48zM208 429q81 0 81 102t-81 102q-79 0 -79 -102t79 -102z" />
    <glyph glyph-name="uni207F" unicode="&#x207f;" horiz-adv-x="393" 
d="M47 700h75v-42q14 25 39.5 39t59.5 14q65 0 98 -37t33 -108v-204h-84v200q0 31 -17 51t-51 20q-35 0 -51.5 -20t-16.5 -51v-200h-85v338z" />
    <glyph glyph-name="uni0410" unicode="&#x410;" horiz-adv-x="661" 
d="M471 140h-281l-46 -140h-129l241 700h149l241 -700h-129zM435 248l-64 195q-25 77 -40 155h-2q-13 -76 -39 -155l-64 -195h209z" />
    <glyph glyph-name="uni0411" unicode="&#x411;" horiz-adv-x="617" 
d="M79 700h452v-107h-332v-174h175q102 0 154.5 -56t52.5 -153t-52.5 -153.5t-154.5 -56.5h-295v700zM354 107q51 0 76.5 27t25.5 76t-25.5 75.5t-76.5 26.5h-155v-205h155z" />
    <glyph glyph-name="uni0412" unicode="&#x412;" horiz-adv-x="636" 
d="M567 509q0 -49 -21.5 -87t-61.5 -60q46 -20 73.5 -64t27.5 -100q0 -96 -51 -147t-155 -51h-300v700h279q104 0 156.5 -51t52.5 -140zM442 500q0 93 -99 93h-144v-185h144q52 0 75.5 23.5t23.5 68.5zM461 204q0 99 -100 99h-162v-196h161q101 0 101 97z" />
    <glyph glyph-name="uni0413" unicode="&#x413;" horiz-adv-x="530" 
d="M79 0v700h427v-107h-306v-593h-121z" />
    <glyph glyph-name="uni0403" unicode="&#x403;" horiz-adv-x="530" 
d="M79 0v700h427v-107h-306v-593h-121zM307 897h123l-93 -141h-110z" />
    <glyph glyph-name="uni0490" unicode="&#x490;" horiz-adv-x="548" 
d="M79 700h324v136h120v-243h-324v-593h-120v700z" />
    <glyph glyph-name="uni0414" unicode="&#x414;" horiz-adv-x="708" 
d="M74 107q34 50 52 115.5t22 165.5l14 312h439v-593h68v-243h-120v136h-410v-136h-120v243h55zM481 593h-210l-8 -205q-4 -102 -18 -170t-38 -111h274v486z" />
    <glyph glyph-name="uni0415" unicode="&#x415;" horiz-adv-x="578" 
d="M522 107v-107h-443v700h443v-107h-323v-187h306v-107h-306v-192h323z" />
    <glyph glyph-name="uni0400" unicode="&#x400;" horiz-adv-x="578" 
d="M522 107v-107h-443v700h443v-107h-323v-187h306v-107h-306v-192h323zM245 756l-93 141h123l80 -141h-110z" />
    <glyph glyph-name="uni0401" unicode="&#x401;" horiz-adv-x="578" 
d="M522 107v-107h-443v700h443v-107h-323v-187h306v-107h-306v-192h323zM116 873h118v-110h-118v110zM369 873h118v-110h-118v110z" />
    <glyph glyph-name="uni0416" unicode="&#x416;" horiz-adv-x="957" 
d="M688 356l261 -356h-151l-214 298h-45v-298h-120v298h-46l-213 -298h-152l261 356l-261 344h152l219 -295h40v295h120v-295h39l220 295h151z" />
    <glyph glyph-name="uni0417" unicode="&#x417;" horiz-adv-x="595" 
d="M404 513q0 46 -27.5 69.5t-88.5 23.5q-95 0 -108 -69h-124q9 80 64 128.5t168 48.5q123 0 181.5 -53.5t58.5 -139.5q0 -54 -22 -94t-65 -62q52 -19 80.5 -62t28.5 -106q0 -100 -65 -155.5t-197 -55.5q-126 0 -186.5 53t-69.5 152h124q7 -51 36.5 -73t95.5 -22
q74 0 105.5 27t31.5 81q0 55 -31.5 81.5t-105.5 26.5h-72v108h72q61 0 88.5 23.5t27.5 69.5z" />
    <glyph glyph-name="uni0418" unicode="&#x418;" horiz-adv-x="723" 
d="M190 166h2q29 72 84 157l254 377h114v-700h-120v372q0 86 10 162h-2q-33 -81 -85 -157l-254 -377h-114v700h120v-372q0 -94 -9 -162z" />
    <glyph glyph-name="uni0419" unicode="&#x419;" horiz-adv-x="723" 
d="M190 166h2q29 72 84 157l254 377h114v-700h-120v372q0 86 10 162h-2q-33 -81 -85 -157l-254 -377h-114v700h120v-372q0 -94 -9 -162zM214 897h86q4 -33 20 -49t49 -16q32 0 48 16t20 49h87q-3 -67 -41 -106t-114 -39t-114.5 39t-40.5 106z" />
    <glyph glyph-name="uni040D" unicode="&#x40d;" horiz-adv-x="723" 
d="M190 166h2q29 72 84 157l254 377h114v-700h-120v372q0 86 10 162h-2q-33 -81 -85 -157l-254 -377h-114v700h120v-372q0 -94 -9 -162zM312 756l-93 141h123l80 -141h-110z" />
    <glyph glyph-name="uni041A" unicode="&#x41a;" horiz-adv-x="617" 
d="M349 356l260 -356h-151l-214 298h-45v-298h-120v700h120v-295h39l220 295h151z" />
    <glyph glyph-name="uni040C" unicode="&#x40c;" horiz-adv-x="617" 
d="M349 356l260 -356h-151l-214 298h-45v-298h-120v700h120v-295h39l220 295h151zM322 897h123l-93 -141h-110z" />
    <glyph glyph-name="uni041B" unicode="&#x41b;" horiz-adv-x="698" 
d="M128 347l14 353h477v-700h-120v593h-246l-12 -252q-6 -143 -32.5 -219t-72.5 -103.5t-119 -27.5v107q38 0 59.5 16t34.5 69.5t17 163.5z" />
    <glyph glyph-name="uni041C" unicode="&#x41c;" horiz-adv-x="875" 
d="M249 358q-37 87 -56 155h-2q8 -69 8 -156v-357h-120v700h144l176 -420q26 -62 38 -125h2q10 61 37 125l176 420h144v-700h-120v357q0 79 9 156h-2q-22 -73 -57 -155l-150 -358h-77z" />
    <glyph glyph-name="uni041D" unicode="&#x41d;" horiz-adv-x="706" 
d="M507 406v294h120v-700h-120v299h-308v-299h-120v700h120v-294h308z" />
    <glyph glyph-name="uni041E" unicode="&#x41e;" horiz-adv-x="733" 
d="M47 350q0 166 79 265t240 99q162 0 241 -99t79 -265t-79 -265t-241 -99q-161 0 -240 99t-79 265zM561 350q0 121 -49 187.5t-146 66.5q-96 0 -145.5 -67t-49.5 -187t49.5 -187t145.5 -67q97 0 146 66.5t49 187.5z" />
    <glyph glyph-name="uni041F" unicode="&#x41f;" horiz-adv-x="701" 
d="M622 0h-120v593h-303v-593h-120v700h543v-700z" />
    <glyph glyph-name="uni0420" unicode="&#x420;" horiz-adv-x="596" 
d="M564 490q0 -97 -54.5 -153.5t-156.5 -56.5h-154v-280h-120v700h273q102 0 157 -55t55 -155zM439 490q0 50 -25.5 76.5t-76.5 26.5h-138v-206h138q102 0 102 103z" />
    <glyph glyph-name="uni0421" unicode="&#x421;" horiz-adv-x="679" 
d="M353 714q130 0 202.5 -58t89.5 -165h-124q-15 61 -56 87t-112 26q-90 0 -136 -66.5t-46 -187.5t46 -187.5t136 -66.5q71 0 112 26t56 87h124q-17 -108 -89 -165.5t-202 -57.5q-157 0 -232 98.5t-75 265.5t75 265.5t231 98.5z" />
    <glyph glyph-name="uni0422" unicode="&#x422;" horiz-adv-x="556" 
d="M32 593v107h492v-107h-186v-593h-120v593h-186z" />
    <glyph glyph-name="uni0423" unicode="&#x423;" horiz-adv-x="608" 
d="M609 700l-243 -536q-29 -66 -62 -101.5t-72.5 -49t-94.5 -13.5h-59v107h51q45 0 71 16t42 54l12 28l-239 495h134l100 -226q26 -62 40.5 -102t22.5 -78h2q16 68 64 180l99 226h132z" />
    <glyph glyph-name="uni040E" unicode="&#x40e;" horiz-adv-x="608" 
d="M609 700l-243 -536q-29 -66 -62 -101.5t-72.5 -49t-94.5 -13.5h-59v107h51q45 0 71 16t42 54l12 28l-239 495h134l100 -226q26 -62 40.5 -102t22.5 -78h2q16 68 64 180l99 226h132zM158 897h86q4 -33 20 -49t49 -16q32 0 48 16t20 49h87q-3 -67 -41 -106t-114 -39
t-114.5 39t-40.5 106z" />
    <glyph glyph-name="uni0424" unicode="&#x424;" horiz-adv-x="805" 
d="M343 27q-155 6 -228 91t-73 227q0 143 73 227.5t228 91.5v87h120v-87q155 -7 228 -91.5t73 -227.5q0 -142 -73 -227t-228 -91v-91h-120v91zM343 561q-89 -7 -133 -62.5t-44 -153.5t43.5 -153t133.5 -62v431zM639 345q0 98 -43.5 153.5t-132.5 62.5v-431q89 7 132.5 62
t43.5 153z" />
    <glyph glyph-name="uni0425" unicode="&#x425;" horiz-adv-x="637" 
d="M264 528q28 -48 53 -109h2q27 63 54 109l109 172h144l-225 -346l222 -354h-142l-108 176q-33 58 -54 109h-2q-17 -44 -53 -109l-108 -176h-142l222 354l-225 346h144z" />
    <glyph glyph-name="uni0427" unicode="&#x427;" horiz-adv-x="643" 
d="M173 451q0 -140 141 -140q74 0 129 25v364h120v-700h-120v229q-24 -11 -64 -19t-76 -8q-121 0 -185.5 63.5t-64.5 188.5v246h120v-249z" />
    <glyph glyph-name="uni0426" unicode="&#x426;" horiz-adv-x="734" 
d="M199 107h303v593h120v-593h77v-243h-120v136h-500v700h120v-593z" />
    <glyph glyph-name="uni0428" unicode="&#x428;" horiz-adv-x="1069" 
d="M199 700v-593h276v593h120v-593h274v593h120v-700h-910v700h120z" />
    <glyph glyph-name="uni0429" unicode="&#x429;" horiz-adv-x="1101" 
d="M199 700v-593h276v593h120v-593h274v593h120v-593h78v-243h-120v136h-868v700h120z" />
    <glyph glyph-name="uni040F" unicode="&#x40f;" horiz-adv-x="701" 
d="M622 0h-211v-136h-120v136h-212v700h120v-593h303v593h120v-700z" />
    <glyph glyph-name="uni042C" unicode="&#x42c;" horiz-adv-x="614" 
d="M79 700h120v-281h175q102 0 154.5 -56t52.5 -153t-52.5 -153.5t-154.5 -56.5h-295v700zM354 107q51 0 76.5 27t25.5 76t-25.5 75.5t-76.5 26.5h-155v-205h155z" />
    <glyph glyph-name="uni042A" unicode="&#x42a;" horiz-adv-x="696" 
d="M663 210q0 -97 -52.5 -153.5t-154.5 -56.5h-294v594h-142v106h262v-281h174q102 0 154.5 -56t52.5 -153zM538 210q0 49 -25.5 75.5t-76.5 26.5h-154v-205h154q51 0 76.5 27t25.5 76z" />
    <glyph glyph-name="uni042B" unicode="&#x42b;" horiz-adv-x="897" 
d="M79 700h120v-281h175q102 0 154.5 -56t52.5 -153t-52.5 -153.5t-154.5 -56.5h-295v700zM354 107q51 0 76.5 27t25.5 76t-25.5 75.5t-76.5 26.5h-155v-205h155zM697 0v700h120v-700h-120z" />
    <glyph glyph-name="uni0409" unicode="&#x409;" horiz-adv-x="1018" 
d="M985 210q0 -97 -52.5 -153.5t-154.5 -56.5h-294v593h-231l-11 -252q-6 -143 -32.5 -219t-72.5 -103.5t-120 -27.5v107q38 0 59.5 16t35 69t17.5 164l14 353h462l-1 -1v-280h174q102 0 154.5 -56t52.5 -153zM861 210q0 49 -25.5 75.5t-77.5 26.5h-154v-205h154q51 0 77 27
t26 76z" />
    <glyph glyph-name="uni040A" unicode="&#x40a;" horiz-adv-x="1010" 
d="M977 210q0 -98 -52.5 -154t-154.5 -56h-294v312h-277v-312h-120v700h120v-281h277v281h120v-281h174q102 0 154.5 -56t52.5 -153zM853 210q0 49 -25.5 75.5t-77.5 26.5h-154v-205h154q51 0 77 27t26 76z" />
    <glyph glyph-name="uni0405" unicode="&#x405;" horiz-adv-x="605" 
d="M426 528q-9 42 -36.5 61t-83.5 19q-62 0 -91.5 -25.5t-29.5 -68.5q0 -39 19 -59t69 -28l92 -13q98 -15 147 -66t49 -146q0 -105 -68.5 -160.5t-197.5 -55.5q-126 0 -188.5 54t-72.5 155h124q8 -54 39.5 -77.5t97.5 -23.5q143 0 143 100q0 42 -24.5 67.5t-86.5 34.5
l-91 13q-88 14 -131.5 62t-43.5 136q0 59 27 106t82 74t136 27q112 0 172 -45.5t72 -140.5h-124z" />
    <glyph glyph-name="uni0404" unicode="&#x404;" horiz-adv-x="679" 
d="M521 209h124q-17 -108 -89 -165.5t-202 -57.5q-157 0 -232 98.5t-75 265.5t75 265.5t231 98.5q130 0 202.5 -58t89.5 -165h-124q-15 61 -56 87t-112 26q-80 0 -125 -51.5t-54 -147.5h222v-107h-223q9 -97 54.5 -149.5t125.5 -52.5q71 0 112 26t56 87z" />
    <glyph glyph-name="uni042D" unicode="&#x42d;" horiz-adv-x="679" 
d="M633 350q0 -167 -75.5 -265.5t-232.5 -98.5q-130 0 -202 57.5t-89 165.5h124q15 -61 56 -87t112 -26q81 0 126 52.5t54 149.5h-223v107h222q-9 96 -54 147.5t-125 51.5q-71 0 -112 -26t-56 -87h-124q17 107 89.5 165t202.5 58q156 0 231.5 -98.5t75.5 -265.5z" />
    <glyph glyph-name="uni0406" unicode="&#x406;" horiz-adv-x="279" 
d="M79 0v700h120v-700h-120z" />
    <glyph glyph-name="uni0407" unicode="&#x407;" horiz-adv-x="279" 
d="M79 0v700h120v-700h-120zM-46 873h118v-110h-118v110zM207 873h118v-110h-118v110z" />
    <glyph glyph-name="uni0408" unicode="&#x408;" horiz-adv-x="569" 
d="M496 700v-455q0 -123 -59.5 -191t-174.5 -68q-114 0 -172 56.5t-65 166.5h122q5 -62 31 -87.5t84 -25.5q56 0 85 38.5t29 107.5v458h120z" />
    <glyph glyph-name="uni040B" unicode="&#x40b;" horiz-adv-x="697" 
d="M153 593h-127v107h428v-107h-181v-177q25 9 61 14t72 5q122 0 182.5 -58.5t60.5 -184.5v-192h-120v188q0 67 -33 102.5t-100 35.5q-64 0 -123 -18v-308h-120v593z" />
    <glyph glyph-name="uni042E" unicode="&#x42e;" horiz-adv-x="1007" 
d="M961 350q0 -166 -79.5 -265t-239.5 -99q-148 0 -227 84.5t-91 228.5h-125v-299h-120v700h120v-294h125q13 143 92 225.5t226 82.5q160 0 239.5 -99t79.5 -265zM836 350q0 120 -49 187t-145 67q-97 0 -146 -66.5t-49 -187.5t49 -187.5t146 -66.5q96 0 145 67t49 187z" />
    <glyph glyph-name="uni042F" unicode="&#x42f;" horiz-adv-x="634" 
d="M44.9971 0h123.992l11 95q10.999 98 45.4971 142t99.4941 44h109.993v-281h119.992v700h-277.982q-105.994 0 -161.99 -55q-55.9971 -55 -55.9971 -151q0 -130 108.994 -172q-43.998 -26 -70.9961 -78.5t-37.998 -137.5zM434.974 388h-147.991q-49.9971 0 -76.4951 26.5
q-26.499 26.5 -26.499 75.5t26.499 76q26.498 27 76.4951 27h147.991v-205z" />
    <glyph glyph-name="uni0402" unicode="&#x402;" horiz-adv-x="707" 
d="M454 700v-107h-181v-176q27 8 68.5 13.5t78.5 5.5q254 0 254 -226q0 -98 -57 -156t-176 -58h-28v106h26q57 0 84.5 29.5t27.5 79.5q0 115 -140 115q-34 0 -74 -5t-64 -12v-309h-121v593h-126v107h428z" />
    <glyph glyph-name="uni0462" unicode="&#x462;" horiz-adv-x="714" 
d="M680 210q0 -97 -52.5 -153.5t-154.5 -56.5h-295v534h-144v106h144v60h120v-60h164v-106h-164v-115h175q102 0 154.5 -56t52.5 -153zM555 210q0 49 -25.5 75.5t-76.5 26.5h-155v-205h155q51 0 76.5 27t25.5 76z" />
    <glyph glyph-name="uni0472" unicode="&#x472;" horiz-adv-x="733" 
d="M686 350q0 -166 -79 -265t-241 -99q-161 0 -240 99t-79 265t79 265t240 99q162 0 241 -99t79 -265zM173 396h386q-9 100 -57.5 154t-135.5 54t-135.5 -54t-57.5 -154zM559 303h-386q9 -99 58 -153t135 -54q87 0 135.5 54t57.5 153z" />
    <glyph glyph-name="uni0474" unicode="&#x474;" horiz-adv-x="692" 
d="M629 707h37v-107h-19q-23 0 -40.5 -18.5t-28.5 -52.5l-177 -529h-149l-236 700h130l141 -443q25 -83 38 -155h2q14 73 39 155l96 300q23 76 59.5 113t107.5 37z" />
    <glyph glyph-name="uni0492" unicode="&#x492;" horiz-adv-x="552" 
d="M222 593v-215h131v-93h-131v-285h-121v285h-84v93h84v322h427v-107h-306z" />
    <glyph glyph-name="uni0496" unicode="&#x496;" horiz-adv-x="1006" 
d="M996 107v-243h-120v136h-78l-214 298h-45v-298h-120v298h-46l-213 -298h-152l261 356l-261 344h152l219 -295h40v295h120v-295h39l220 295h151l-261 -344l183 -249h125z" />
    <glyph glyph-name="uni0498" unicode="&#x498;" horiz-adv-x="595" 
d="M354 -10v-149h-120v148q-98 11 -146 62.5t-56 139.5h124q7 -51 36.5 -73t95.5 -22q74 0 105.5 27t31.5 81q0 55 -31.5 81.5t-105.5 26.5h-72v108h72q61 0 88.5 23.5t27.5 69.5t-27.5 69.5t-88.5 23.5q-95 0 -108 -69h-124q9 80 64 128.5t168 48.5q123 0 181.5 -53.5
t58.5 -139.5q0 -54 -22 -94t-65 -62q52 -19 80.5 -62t28.5 -106q0 -86 -48.5 -140t-147.5 -67z" />
    <glyph glyph-name="uni049A" unicode="&#x49a;" horiz-adv-x="665" 
d="M656 106v-242h-120v136h-78l-214 298h-45v-298h-120v700h120v-295h39l220 295h151l-260 -344l183 -250h124z" />
    <glyph glyph-name="uni04A0" unicode="&#x4a0;" horiz-adv-x="753" 
d="M485 356l261 -356h-151l-214 298h-45v-298h-120v594h-184v106h304v-295h39l220 295h151z" />
    <glyph glyph-name="uni04A2" unicode="&#x4a2;" horiz-adv-x="739" 
d="M705 107v-243h-120v136h-78v299h-308v-299h-120v700h120v-294h308v294h120v-593h78z" />
    <glyph glyph-name="uni04AA" unicode="&#x4aa;" horiz-adv-x="679" 
d="M521 209h124q-30 -189 -221 -218v-150h-120v148q-131 16 -194 112t-63 249q0 167 75 265.5t231 98.5q130 0 202.5 -58t89.5 -165h-124q-15 61 -56 87t-112 26q-90 0 -136 -66.5t-46 -187.5t46 -187.5t136 -66.5q71 0 112 26t56 87z" />
    <glyph glyph-name="uni04AE" unicode="&#x4ae;" horiz-adv-x="614" 
d="M367 270v-270h-120v270l-229 430h139l104 -208q28 -60 45 -116h2q18 59 46 116l103 208h139z" />
    <glyph glyph-name="uni04B0" unicode="&#x4b0;" horiz-adv-x="614" 
d="M367 265h141v-93h-141v-172h-120v172h-140v93h140v5l-229 430h139l104 -208q29 -60 45 -116h2q18 59 46 116l103 208h139l-229 -430v-5z" />
    <glyph glyph-name="uni04B2" unicode="&#x4b2;" horiz-adv-x="687" 
d="M677 107v-243h-120v136h-76l-108 176q-33 58 -54 109h-2q-17 -44 -53 -109l-108 -176h-142l222 354l-225 346h144l109 -172q28 -48 53 -109h2q27 63 54 109l109 172h144l-225 -346l155 -247h121z" />
    <glyph glyph-name="uni04B6" unicode="&#x4b6;" horiz-adv-x="676" 
d="M642 107v-243h-120v136h-79v229q-24 -11 -64 -19t-76 -8q-121 0 -185.5 63.5t-64.5 188.5v246h120v-249q0 -140 141 -140q74 0 129 25v364h120v-593h79z" />
    <glyph glyph-name="uni04BA" unicode="&#x4ba;" horiz-adv-x="643" 
d="M469.972 248.984q0 139.992 -140.992 139.992q-73.9951 0 -128.991 -24.999v-363.978h-119.993v699.957h119.993v-228.985q23.998 10.999 63.9961 18.998q39.9971 8 75.9951 8q120.992 0 185.488 -63.4961t64.4961 -188.488v-245.985h-119.992v248.984z" />
    <glyph glyph-name="uni04C0" unicode="&#x4c0;" horiz-adv-x="279" 
d="M79 0v700h120v-700h-120z" />
    <glyph glyph-name="uni04C1" unicode="&#x4c1;" horiz-adv-x="957" 
d="M688 356l261 -356h-151l-214 298h-45v-298h-120v298h-46l-213 -298h-152l261 356l-261 344h152l219 -295h40v295h120v-295h39l220 295h151zM324 897h86q4 -33 20 -49t49 -16q32 0 48 16t20 49h87q-3 -67 -41 -106t-114 -39t-114.5 39t-40.5 106z" />
    <glyph glyph-name="uni04D0" unicode="&#x4d0;" horiz-adv-x="661" 
d="M471 140h-281l-46 -140h-129l241 700h149l241 -700h-129zM435 248l-64 195q-25 77 -40 155h-2q-13 -76 -39 -155l-64 -195h209zM175 897h86q4 -33 20 -49t49 -16q32 0 48 16t20 49h87q-3 -67 -41 -106t-114 -39t-114.5 39t-40.5 106z" />
    <glyph glyph-name="uni04D2" unicode="&#x4d2;" horiz-adv-x="661" 
d="M471 140h-281l-46 -140h-129l241 700h149l241 -700h-129zM435 248l-64 195q-25 77 -40 155h-2q-13 -76 -39 -155l-64 -195h209zM144 873h118v-110h-118v110zM397 873h118v-110h-118v110z" />
    <glyph glyph-name="uni04D4" unicode="&#x4d4;" horiz-adv-x="944" 
d="M888 593h-323v-187h306v-107h-306v-192h323v-107h-443v140h-238l-79 -140h-135l383 700h512v-107zM452 600h-2q-23 -59 -91 -185l-98 -168h184v151q0 141 7 202z" />
    <glyph glyph-name="uni04D6" unicode="&#x4d6;" horiz-adv-x="578" 
d="M522 107v-107h-443v700h443v-107h-323v-187h306v-107h-306v-192h323zM147 897h86q4 -33 20 -49t49 -16q32 0 48 16t20 49h87q-3 -67 -41 -106t-114 -39t-114.5 39t-40.5 106z" />
    <glyph glyph-name="uni04D8" unicode="&#x4d8;" horiz-adv-x="717" 
d="M670 350q0 -168 -76 -266t-236 -98q-161 0 -236.5 91.5t-75.5 257.5q0 16 2 48h497q-11 221 -187 221q-76 0 -116 -25t-58 -87h-125q22 108 93.5 165t205.5 57q160 0 236 -98t76 -266zM542 283h-367q9 -187 183 -187q162 0 184 187z" />
    <glyph glyph-name="uni04E2" unicode="&#x4e2;" horiz-adv-x="723" 
d="M190 166h2q29 72 84 157l254 377h114v-700h-120v372q0 86 10 162h-2q-33 -81 -85 -157l-254 -377h-114v700h120v-372q0 -94 -9 -162zM224 862h291v-93h-291v93z" />
    <glyph glyph-name="uni04E6" unicode="&#x4e6;" horiz-adv-x="733" 
d="M47 350q0 166 79 265t240 99q162 0 241 -99t79 -265t-79 -265t-241 -99q-161 0 -240 99t-79 265zM561 350q0 121 -49 187.5t-146 66.5q-96 0 -145.5 -67t-49.5 -187t49.5 -187t145.5 -67q97 0 146 66.5t49 187.5zM180 873h118v-110h-118v110zM433 873h118v-110h-118v110z
" />
    <glyph glyph-name="uni04E8" unicode="&#x4e8;" horiz-adv-x="733" 
d="M686 350q0 -166 -79 -265t-241 -99q-161 0 -240 99t-79 265t79 265t240 99q162 0 241 -99t79 -265zM173 396h386q-9 100 -57.5 154t-135.5 54t-135.5 -54t-57.5 -154zM559 303h-386q9 -99 58 -153t135 -54q87 0 135.5 54t57.5 153z" />
    <glyph glyph-name="uni04EE" unicode="&#x4ee;" horiz-adv-x="608" 
d="M609 700l-243 -536q-29 -66 -62 -101.5t-72.5 -49t-94.5 -13.5h-59v107h51q45 0 71 16t42 54l12 28l-239 495h134l100 -226q26 -62 40.5 -102t22.5 -78h2q16 68 64 180l99 226h132zM168 862h291v-93h-291v93z" />
    <glyph glyph-name="uni04F0" unicode="&#x4f0;" horiz-adv-x="608" 
d="M609 700l-243 -536q-29 -66 -62 -101.5t-72.5 -49t-94.5 -13.5h-59v107h51q45 0 71 16t42 54l12 28l-239 495h134l100 -226q26 -62 40.5 -102t22.5 -78h2q16 68 64 180l99 226h132zM127 873h118v-110h-118v110zM380 873h118v-110h-118v110z" />
    <glyph glyph-name="uni04F2" unicode="&#x4f2;" horiz-adv-x="608" 
d="M609 700l-243 -536q-29 -66 -62 -101.5t-72.5 -49t-94.5 -13.5h-59v107h51q45 0 71 16t42 54l12 28l-239 495h134l100 -226q26 -62 40.5 -102t22.5 -78h2q16 68 64 180l99 226h132zM241 897h123l-93 -141h-110zM436 897h123l-95 -141h-108z" />
    <glyph glyph-name="uni0500" unicode="&#x500;" horiz-adv-x="614" 
d="M534.968 700h-119.993v-281h-174.989q-101.994 0 -154.49 -56q-52.4971 -56 -52.4971 -153t52.4971 -153.5q52.4961 -56.5 154.49 -56.5h294.982v700zM259.984 107q-50.9971 0 -76.4951 27q-25.499 27 -25.499 76t25.499 75.5q25.498 26.5 76.4951 26.5h154.99v-205
h-154.99z" />
    <glyph glyph-name="uni051A" unicode="&#x51a;" horiz-adv-x="733" 
d="M626 -57l-80 89q-72 -46 -180 -46q-161 0 -240 99t-79 265t79 265t240 99q162 0 241 -99t79 -265q0 -154 -65 -247l80 -88zM466 121l-148 164l71 70l144 -157q28 60 28 152q0 121 -49 187.5t-146 66.5q-96 0 -145.5 -67t-49.5 -187t49.5 -187t145.5 -67q58 0 100 25z" />
    <glyph glyph-name="uni051C" unicode="&#x51c;" horiz-adv-x="940" 
d="M433 391l-96 -391h-146l-167 700h132l86 -408q12 -58 25 -169h2q12 89 30 169l98 408h146l98 -408q18 -80 30 -169h2q11 96 25 169l86 408h133l-168 -700h-146l-96 391q-26 108 -36 187h-2q-10 -79 -36 -187z" />
    <glyph glyph-name="uni0430" unicode="&#x430;" horiz-adv-x="514" 
d="M254 506q99 0 148 -40.5t49 -127.5v-338h-103v64q-54 -76 -157 -76q-76 0 -115 40.5t-39 108.5q0 67 38.5 105.5t119.5 50.5l95 15q28 4 40 14.5t12 33.5q0 27 -21.5 43.5t-66.5 16.5q-41 0 -60.5 -13t-24.5 -40h-109q7 67 56 105t138 38zM299 226l-83 -13
q-35 -5 -52.5 -23t-17.5 -46q0 -31 19 -48.5t53 -17.5q52 0 87 30.5t35 81.5v46q-11 -4 -41 -10z" />
    <glyph glyph-name="uni0431" unicode="&#x431;" horiz-adv-x="560" 
d="M53 297q0 128 17 208t57 125t110 61q30 7 74.5 9t52.5 2q79 2 113 9v-103q-12 -4 -34.5 -5.5t-38 -2t-22.5 -0.5q-78 -2 -107 -8q-63 -14 -86 -54t-24 -120q43 68 151 68q100 0 151 -66.5t51 -180.5q0 -116 -57.5 -184.5t-173.5 -68.5q-120 0 -177 78.5t-57 232.5z
M285 87q119 0 119 149q0 72 -29 111t-90 39q-60 0 -88.5 -39t-28.5 -111q0 -149 117 -149z" />
    <glyph glyph-name="uni0432" unicode="&#x432;" horiz-adv-x="526" 
d="M468 365q0 -41 -14.5 -68t-45.5 -43q34 -14 54 -44t20 -74q0 -63 -38.5 -99.5t-117.5 -36.5h-259v492h244q79 0 118 -34t39 -93zM353 346q0 25 -15 38.5t-41 13.5h-119v-105h119q26 0 41 13.5t15 39.5zM365 150q0 27 -15 42t-42 15h-130v-112h131q27 0 41.5 14t14.5 41z
" />
    <glyph glyph-name="uni0433" unicode="&#x433;" horiz-adv-x="438" 
d="M179 400v-400h-112v492h349v-92h-237z" />
    <glyph glyph-name="uni0453" unicode="&#x453;" horiz-adv-x="438" 
d="M179 400v-400h-112v492h349v-92h-237zM379 731l-84 -158h-107l72 158h119z" />
    <glyph glyph-name="uni0491" unicode="&#x491;" horiz-adv-x="463" 
d="M442 619v-219h-263v-400h-112v492h264v127h111z" />
    <glyph glyph-name="uni0434" unicode="&#x434;" horiz-adv-x="577" 
d="M67 92q27 34 39.5 78.5t15.5 117.5l10 204h355v-400h54v-218h-111v126h-298v-126h-111v218h46zM375 400h-143l-5 -113q-3 -74 -12.5 -119.5t-26.5 -75.5h187v308z" />
    <glyph glyph-name="uni0435" unicode="&#x435;" horiz-adv-x="527" 
d="M484 215h-332q5 -69 32.5 -103t81.5 -34q41 0 63.5 13t34.5 43h112q-33 -148 -210 -148q-114 0 -169 68.5t-55 191.5q0 117 53.5 188.5t168.5 71.5q222 0 222 -255q0 -23 -2 -36zM374 303q-5 57 -31 86t-79 29q-49 0 -75.5 -29t-34.5 -86h220z" />
    <glyph glyph-name="uni0450" unicode="&#x450;" horiz-adv-x="527" 
d="M484 215h-332q5 -69 32.5 -103t81.5 -34q41 0 63.5 13t34.5 43h112q-33 -148 -210 -148q-114 0 -169 68.5t-55 191.5q0 117 53.5 188.5t168.5 71.5q222 0 222 -255q0 -23 -2 -36zM374 303q-5 57 -31 86t-79 29q-49 0 -75.5 -29t-34.5 -86h220zM322 573h-107l-84 158h119z
" />
    <glyph glyph-name="uni0451" unicode="&#x451;" horiz-adv-x="527" 
d="M484 215h-332q5 -69 32.5 -103t81.5 -34q41 0 63.5 13t34.5 43h112q-33 -148 -210 -148q-114 0 -169 68.5t-55 191.5q0 117 53.5 188.5t168.5 71.5q222 0 222 -255q0 -23 -2 -36zM374 303q-5 57 -31 86t-79 29q-49 0 -75.5 -29t-34.5 -86h220z" />
    <glyph glyph-name="uni0436" unicode="&#x436;" horiz-adv-x="770" 
d="M563 251l198 -251h-141l-155 200h-24v-200h-111v200h-25l-155 -200h-140l198 251l-198 241h141l154 -197h25v197h111v-197h24l155 197h141z" />
    <glyph glyph-name="uni0437" unicode="&#x437;" horiz-adv-x="498" 
d="M339 149q0 28 -18.5 43t-55.5 15h-59v92h59q29 0 43.5 14t14.5 37q0 29 -21 44t-61 15q-43 0 -65 -14t-27 -44h-113q10 79 60 117t145 38q104 0 152 -39t48 -107q0 -37 -18 -65t-50 -41q40 -10 62 -42t22 -78q0 -71 -52.5 -109.5t-162.5 -38.5q-98 0 -150 40t-60 124h112
q7 -38 30 -52t68 -14q97 0 97 65z" />
    <glyph glyph-name="uni0438" unicode="&#x438;" horiz-adv-x="585" 
d="M67 0v492h112v-189q0 -47 -1.5 -82t-7.5 -71h2q37 71 82 130l159 212h105v-492h-113v188q0 48 1.5 83t8.5 72h-2q-39 -73 -81 -128l-161 -215h-104z" />
    <glyph glyph-name="uni0439" unicode="&#x439;" horiz-adv-x="585" 
d="M67 0v492h112v-189q0 -47 -1.5 -82t-7.5 -71h2q37 71 82 130l159 212h105v-492h-113v188q0 48 1.5 83t8.5 72h-2q-39 -73 -81 -128l-161 -215h-104zM140 730h86q2 -80 69 -80q66 0 69 80h85q0 -79 -38.5 -120.5t-115.5 -41.5t-115.5 41.5t-39.5 120.5z" />
    <glyph glyph-name="uni045D" unicode="&#x45d;" horiz-adv-x="585" 
d="M67 0v492h112v-189q0 -47 -1.5 -82t-7.5 -71h2q37 71 82 130l159 212h105v-492h-113v188q0 48 1.5 83t8.5 72h-2q-39 -73 -81 -128l-161 -215h-104zM349 573h-107l-84 158h119z" />
    <glyph glyph-name="uni043A" unicode="&#x43a;" horiz-adv-x="505" 
d="M301 251l198 -251h-142l-155 200h-23v-200h-112v492h112v-197h23l156 197h141z" />
    <glyph glyph-name="uni045C" unicode="&#x45c;" horiz-adv-x="505" 
d="M301 251l198 -251h-142l-155 200h-23v-200h-112v492h112v-197h23l156 197h141zM386 731l-84 -158h-107l72 158h119z" />
    <glyph glyph-name="uni043B" unicode="&#x43b;" horiz-adv-x="565" 
d="M109 257l10 235h379v-492h-112v400h-164l-7 -149q-5 -110 -27.5 -166t-61.5 -74.5t-105 -18.5v92q35 0 51.5 11t24.5 47t12 115z" />
    <glyph glyph-name="uni043C" unicode="&#x43c;" horiz-adv-x="693" 
d="M67 0v492h134l101 -235q24 -59 43 -135h2q19 76 43 135l102 235h134v-492h-108v197q0 78 7 147h-3q-9 -36 -20 -65t-32 -77l-87 -202h-71l-88 202q-4 9 -16 37.5t-21 54t-15 50.5h-3q7 -69 7 -147v-197h-109z" />
    <glyph glyph-name="uni043D" unicode="&#x43d;" horiz-adv-x="556" 
d="M377 293v199h112v-492h-112v201h-198v-201h-112v492h112v-199h198z" />
    <glyph glyph-name="uni043E" unicode="&#x43e;" horiz-adv-x="552" 
d="M42 246q0 122 58 191t176 69q119 0 176.5 -69t57.5 -191t-57.5 -191t-176.5 -69q-118 0 -176 69t-58 191zM156 246q0 -159 120 -159t120 159q0 160 -120 160t-120 -160z" />
    <glyph glyph-name="uni043F" unicode="&#x43f;" horiz-adv-x="556" 
d="M489 492v-492h-112v400h-198v-400h-112v492h422z" />
    <glyph glyph-name="uni0440" unicode="&#x440;" horiz-adv-x="570" 
d="M528 246q0 -124 -51.5 -192t-160.5 -68q-89 0 -137 56v-230h-112v680h105v-51q48 65 144 65q109 0 160.5 -68t51.5 -192zM414 246q0 160 -120 160t-120 -160q0 -159 120 -159t120 159z" />
    <glyph glyph-name="uni0441" unicode="&#x441;" horiz-adv-x="516" 
d="M270 506q95 0 148.5 -44.5t65.5 -123.5h-111q-9 35 -34.5 51.5t-68.5 16.5q-58 0 -86.5 -41.5t-28.5 -118.5q0 -159 115 -159q44 0 69 16.5t34 50.5h111q-12 -79 -65.5 -123.5t-148.5 -44.5q-117 0 -172.5 69.5t-55.5 190.5t55.5 190.5t172.5 69.5z" />
    <glyph glyph-name="uni0442" unicode="&#x442;" horiz-adv-x="437" 
d="M22 400v92h393v-92h-141v-400h-111v400h-141z" />
    <glyph glyph-name="uni0443" unicode="&#x443;" horiz-adv-x="509" 
d="M136 492l78 -220q25 -78 38 -145h2q17 85 39 146l79 219h122l-260 -680h-122l85 210l-183 470h122z" />
    <glyph glyph-name="uni045E" unicode="&#x45e;" horiz-adv-x="509" 
d="M136 492l78 -220q25 -78 38 -145h2q17 85 39 146l79 219h122l-260 -680h-122l85 210l-183 470h122zM98 730h86q2 -80 69 -80q66 0 69 80h85q0 -79 -38.5 -120.5t-115.5 -41.5t-115.5 41.5t-39.5 120.5z" />
    <glyph glyph-name="uni0444" unicode="&#x444;" horiz-adv-x="674" 
d="M281 -13q-119 7 -179 74.5t-60 185.5t60 185t179 74v194h112v-194q119 -7 179 -74t60 -185t-60 -185.5t-179 -74.5v-175h-112v175zM281 406q-65 -7 -95 -45.5t-30 -113.5q0 -76 30 -114.5t95 -45.5v319zM518 247q0 75 -30 113.5t-95 45.5v-319q65 7 95 45.5t30 114.5z
" />
    <glyph glyph-name="uni0445" unicode="&#x445;" horiz-adv-x="494" 
d="M206 111l-66 -111h-123l156 250l-156 242h123l66 -105q24 -38 40 -76h2q19 43 39 76l66 105h124l-156 -242l156 -250h-124l-66 111q-22 38 -39 76h-2q-16 -36 -40 -76z" />
    <glyph glyph-name="uni0447" unicode="&#x447;" horiz-adv-x="512" 
d="M157 309q0 -90 93 -90q46 0 82 15v258h113v-492h-113v140q-19 -7 -47.5 -11t-56.5 -4q-85 0 -134 47t-49 140v180h112v-183z" />
    <glyph glyph-name="uni0446" unicode="&#x446;" horiz-adv-x="577" 
d="M179 92h196v400h111v-400h54v-218h-112v126h-361v492h112v-400z" />
    <glyph glyph-name="uni0448" unicode="&#x448;" horiz-adv-x="845" 
d="M179 492v-400h187v400h112v-400h188v400h112v-492h-711v492h112z" />
    <glyph glyph-name="uni0449" unicode="&#x449;" horiz-adv-x="869" 
d="M179 492v-400h187v400h112v-400h188v400h112v-400h53v-218h-112v126h-652v492h112z" />
    <glyph glyph-name="uni045F" unicode="&#x45f;" horiz-adv-x="555" 
d="M488 0h-154v-126h-111v126h-156v492h112v-400h197v400h112v-492z" />
    <glyph glyph-name="uni044C" unicode="&#x44c;" horiz-adv-x="499" 
d="M67 492h112v-179h130q79 0 119.5 -43t40.5 -114t-40.5 -113.5t-119.5 -42.5h-242v492zM289 92q32 0 48.5 17t16.5 47q0 31 -16.5 48t-48.5 17h-110v-129h110z" />
    <glyph glyph-name="uni044A" unicode="&#x44a;" horiz-adv-x="576" 
d="M546 156q0 -71 -40.5 -113.5t-119.5 -42.5h-242v401h-121v91h234l-1 -1v-178h130q79 0 119.5 -43t40.5 -114zM431 156q0 31 -16.5 48t-48.5 17h-110v-129h110q32 0 48.5 17t16.5 47z" />
    <glyph glyph-name="uni044B" unicode="&#x44b;" horiz-adv-x="728" 
d="M67 492h112v-179h130q79 0 119.5 -43t40.5 -114t-40.5 -113.5t-119.5 -42.5h-242v492zM289 92q32 0 48.5 17t16.5 47q0 31 -16.5 48t-48.5 17h-110v-129h110zM540 492h113v-492h-113v492z" />
    <glyph glyph-name="uni0459" unicode="&#x459;" horiz-adv-x="790" 
d="M760 156q0 -71 -40.5 -113.5t-119.5 -42.5h-242v400h-139l-7 -149q-4 -109 -28 -165t-62.5 -75t-100.5 -19v92q32 0 48.5 12.5t24.5 48.5t11 112l9 235h357l-1 -1v-178h130q79 0 119.5 -43t40.5 -114zM645 156q0 31 -16.5 48t-48.5 17h-110v-129h110q32 0 48.5 17
t16.5 47z" />
    <glyph glyph-name="uni045A" unicode="&#x45a;" horiz-adv-x="786" 
d="M756 156q0 -71 -40.5 -113.5t-119.5 -42.5h-242v221h-175v-221h-112v492h112v-179h175v179h112v-179h130q79 0 119.5 -43t40.5 -114zM641 156q0 31 -16.5 48t-48.5 17h-110v-129h110q32 0 48.5 17t16.5 47z" />
    <glyph glyph-name="uni0455" unicode="&#x455;" horiz-adv-x="477" 
d="M429 363h-111q-6 28 -24.5 40.5t-54.5 12.5q-39 0 -57.5 -15t-18.5 -41q0 -47 59 -55l54 -8q84 -13 123 -47.5t39 -101.5q0 -79 -51 -120.5t-152 -41.5q-97 0 -146 38t-58 110h112q5 -30 26.5 -44t65.5 -14q91 0 91 61q0 26 -16.5 40t-54.5 20l-54 9q-75 12 -112 46
t-37 98q0 71 47.5 113.5t139.5 42.5q85 0 133.5 -36t56.5 -107z" />
    <glyph glyph-name="uni0454" unicode="&#x454;" horiz-adv-x="516" 
d="M373 154h111q-12 -79 -65.5 -123.5t-148.5 -44.5q-117 0 -172.5 69.5t-55.5 190.5t55.5 190.5t172.5 69.5q95 0 148.5 -44.5t65.5 -123.5h-111q-9 35 -34.5 51.5t-68.5 16.5q-95 0 -112 -112h138v-93h-138q16 -114 112 -114q44 0 69 16.5t34 50.5z" />
    <glyph glyph-name="uni044D" unicode="&#x44d;" horiz-adv-x="516" 
d="M142.991 154h-110.993q11.999 -79 65.4961 -123.5t148.491 -44.5q116.992 0 172.489 69.5q55.4961 69.5 55.4961 190.5t-55.4961 190.5q-55.4971 69.5 -172.489 69.5q-94.9941 0 -148.491 -44.5t-65.4961 -123.5h110.993q8.99902 35 34.498 51.5
q25.498 16.5 68.4961 16.5q94.9941 0 111.993 -112h-137.992v-93h137.992q-15.999 -114 -111.993 -114q-43.998 0 -68.9961 16.5q-24.999 16.5 -33.998 50.5z" />
    <glyph glyph-name="uni0456" unicode="&#x456;" horiz-adv-x="249" 
d="M63 700h123v-116h-123v116zM68 492h113v-492h-113v492z" />
    <glyph glyph-name="uni0457" unicode="&#x457;" horiz-adv-x="249" 
d="M68 492h113v-492h-113v492z" />
    <glyph glyph-name="uni0458" unicode="&#x458;" horiz-adv-x="256" 
d="M70 700h123v-116h-123v116zM28 -193q-24 0 -39 3v94q8 -1 18 -1q33 0 50.5 17.5t17.5 57.5v514h112v-514q0 -86 -44 -128.5t-115 -42.5z" />
    <glyph glyph-name="uni045B" unicode="&#x45b;" horiz-adv-x="546" 
d="M483 309v-309h-112v297q0 58 -23.5 83.5t-72.5 25.5t-72.5 -25.5t-23.5 -83.5v-297h-112v564h-59v79h59v57h114v-57h95v-79h-95v-121q39 63 124 63q91 0 134.5 -45.5t43.5 -151.5z" />
    <glyph glyph-name="uni044E" unicode="&#x44e;" horiz-adv-x="788" 
d="M746 246q0 -122 -57.5 -191t-176.5 -69q-107 0 -165 57.5t-67 160.5h-101v-204h-112v492h112v-196h102q11 100 68 155t163 55q119 0 176.5 -69t57.5 -191zM632 246q0 160 -120 160t-120 -160q0 -159 120 -159t120 159z" />
    <glyph glyph-name="uni044F" unicode="&#x44f;" horiz-adv-x="516" 
d="M450 492v-492h-113v177h-80q-42 0 -64 -28.5t-29 -86.5l-8 -62h-116l11 72q14 104 74 142q-74 32 -74 125q0 73 39 113t120 40h240zM167 335q0 -31 15 -48.5t45 -17.5h110v131h-110q-30 0 -45 -17.5t-15 -47.5z" />
    <glyph glyph-name="uni0452" unicode="&#x452;" horiz-adv-x="546" 
d="M483 309v-344q0 -84 -36 -124t-109 -40q-31 0 -56 5v93q9 -3 33 -3q30 0 43 16.5t13 60.5v324q0 58 -23.5 83.5t-72.5 25.5t-72.5 -25.5t-23.5 -83.5v-297h-112v564h-59v80h59v56h114v-56h95v-80h-95v-121q39 63 124 63q91 0 134.5 -45.5t43.5 -151.5z" />
    <glyph glyph-name="uni0463" unicode="&#x463;" horiz-adv-x="562" 
d="M532 156q0 -71 -40.5 -113.5t-119.5 -42.5h-241v424h-110v93h110v183h112v-183h139v-93h-139v-111h129q79 0 119.5 -43t40.5 -114zM417 156q0 31 -16.5 48t-48.5 17h-109v-129h109q32 0 48.5 16.5t16.5 47.5z" />
    <glyph glyph-name="uni0473" unicode="&#x473;" horiz-adv-x="552" 
d="M510 246q0 -122 -57.5 -191t-176.5 -69q-118 0 -176 69t-58 191t58 191t176 69q119 0 176.5 -69t57.5 -191zM159 289h234q-14 117 -117 117t-117 -117zM394 204h-236q16 -117 118 -117t118 117z" />
    <glyph glyph-name="uni0475" unicode="&#x475;" horiz-adv-x="535" 
d="M18 492h121l79 -241q29 -102 39 -153h2q11 59 39 153l35 100q15 52 32 83t47 48t79 17h29v-99h-9q-47 0 -73 -75l-113 -325h-135z" />
    <glyph glyph-name="uni0493" unicode="&#x493;" horiz-adv-x="465" 
d="M205 400v-400h-112v492h349v-92h-237zM18 273h290v-92h-290v92z" />
    <glyph glyph-name="uni0497" unicode="&#x497;" horiz-adv-x="800" 
d="M783 92v-218h-111v126h-52l-155 200h-24v-200h-111v200h-25l-155 -200h-140l198 251l-198 241h141l154 -197h25v197h111v-197h24l155 197h141l-198 -241l125 -159h95z" />
    <glyph glyph-name="uni0499" unicode="&#x499;" horiz-adv-x="498" 
d="M310 -9v-130h-112v127q-77 8 -118 47.5t-48 114.5h112q7 -37 30 -51.5t67 -14.5q98 0 98 65q0 28 -18.5 43t-55.5 15h-59v92h59q29 0 43.5 14.5t14.5 36.5q0 29 -21 44t-61 15q-43 0 -65 -14t-27 -44h-113q10 79 60 117t145 38q104 0 152 -39t48 -107q0 -37 -18 -65
t-50 -41q40 -10 62 -42t22 -78q0 -122 -147 -143z" />
    <glyph glyph-name="uni049B" unicode="&#x49b;" horiz-adv-x="533" 
d="M518 92v-218h-111v126h-50l-155 200h-23v-200h-112v492h112v-197h23l156 197h141l-198 -241l125 -159h92z" />
    <glyph glyph-name="uni04A1" unicode="&#x4a1;" horiz-adv-x="592" 
d="M388 251l198 -251h-142l-155 200h-23v-200h-112v400h-132v92h244v-197h23l156 197h141z" />
    <glyph glyph-name="uni04A3" unicode="&#x4a3;" horiz-adv-x="586" 
d="M555 92v-218h-112v126h-66v201h-198v-201h-112v492h112v-199h198v199h112v-401l1 1h65z" />
    <glyph glyph-name="uni04AB" unicode="&#x4ab;" horiz-adv-x="516" 
d="M373 154h111q-9 -65 -47.5 -107.5t-105.5 -55.5v-130h-113v129q-90 15 -133 82.5t-43 173.5q0 121 55.5 190.5t172.5 69.5q95 0 148.5 -44.5t65.5 -123.5h-111q-9 35 -34.5 51.5t-68.5 16.5q-58 0 -86.5 -41.5t-28.5 -118.5q0 -159 115 -159q44 0 69 16.5t34 50.5z" />
    <glyph glyph-name="uni04AF" unicode="&#x4af;" horiz-adv-x="509" 
d="M311 25v-213h-113v213l-184 467h123l73 -206q30 -89 43 -163h2q13 78 44 163l73 206h123z" />
    <glyph glyph-name="uni04B1" unicode="&#x4b1;" horiz-adv-x="512" 
d="M331 73h105v-92h-124v-169h-112v169h-123v92h104l-165 419h123l72 -206q32 -93 44 -166h2q12 73 44 166l72 206h124z" />
    <glyph glyph-name="uni04B3" unicode="&#x4b3;" horiz-adv-x="522" 
d="M509 92v-218h-112v126h-44l-66 111q-22 38 -39 76h-2q-16 -36 -40 -76l-66 -111h-123l156 250l-156 242h123l66 -105q24 -38 40 -76h2q19 43 39 76l66 105h124l-156 -242l99 -158h89z" />
    <glyph glyph-name="uni04B7" unicode="&#x4b7;" horiz-adv-x="541" 
d="M510 92v-218h-112v126h-66v140q-19 -7 -47.5 -11t-56.5 -4q-85 0 -134 47t-49 140v180h112v-183q0 -90 93 -90q46 0 82 15v258h113v-400h65z" />
    <glyph glyph-name="uni04BB" unicode="&#x4bb;" horiz-adv-x="546" 
d="M67 700h114v-257q39 63 124 63q91 0 134.5 -45.5t43.5 -151.5v-309h-112v297q0 58 -23.5 83.5t-72.5 25.5t-72.5 -25.5t-23.5 -83.5v-297h-112v700z" />
    <glyph glyph-name="uni04CF" unicode="&#x4cf;" horiz-adv-x="249" 
d="M68 700h113v-700h-113v700z" />
    <glyph glyph-name="uni04C2" unicode="&#x4c2;" horiz-adv-x="770" 
d="M563 251l198 -251h-141l-155 200h-24v-200h-111v200h-25l-155 -200h-140l198 251l-198 241h141l154 -197h25v197h111v-197h24l155 197h141zM231 730h86q2 -80 69 -80q66 0 69 80h85q0 -79 -38.5 -120.5t-115.5 -41.5t-115.5 41.5t-39.5 120.5z" />
    <glyph glyph-name="uni04D1" unicode="&#x4d1;" horiz-adv-x="514" 
d="M254 506q99 0 148 -40.5t49 -127.5v-338h-103v64q-54 -76 -157 -76q-76 0 -115 40.5t-39 108.5q0 67 38.5 105.5t119.5 50.5l95 15q28 4 40 14.5t12 33.5q0 27 -21.5 43.5t-66.5 16.5q-41 0 -60.5 -13t-24.5 -40h-109q7 67 56 105t138 38zM299 226l-83 -13
q-35 -5 -52.5 -23t-17.5 -46q0 -31 19 -48.5t53 -17.5q52 0 87 30.5t35 81.5v46q-11 -4 -41 -10zM108 730h86q2 -80 69 -80q66 0 69 80h85q0 -79 -38.5 -120.5t-115.5 -41.5t-115.5 41.5t-39.5 120.5z" />
    <glyph glyph-name="uni04D3" unicode="&#x4d3;" horiz-adv-x="514" 
d="M254 506q99 0 148 -40.5t49 -127.5v-338h-103v64q-54 -76 -157 -76q-76 0 -115 40.5t-39 108.5q0 67 38.5 105.5t119.5 50.5l95 15q28 4 40 14.5t12 33.5q0 27 -21.5 43.5t-66.5 16.5q-41 0 -60.5 -13t-24.5 -40h-109q7 67 56 105t138 38zM299 226l-83 -13
q-35 -5 -52.5 -23t-17.5 -46q0 -31 19 -48.5t53 -17.5q52 0 87 30.5t35 81.5v46q-11 -4 -41 -10zM106 700h118v-110h-118v110zM302 700h119v-110h-119v110z" />
    <glyph glyph-name="uni04D5" unicode="&#x4d5;" horiz-adv-x="825" 
d="M782 215h-333q5 -69 32.5 -103t81.5 -34q42 0 65.5 13t34.5 43h111q-34 -148 -211 -148q-121 0 -175 85q-24 -39 -69 -61t-109 -22q-89 0 -131 40t-42 109q0 67 38.5 105.5t119.5 50.5l95 15q29 4 41 14.5t12 33.5q0 27 -22 43.5t-67 16.5q-41 0 -60.5 -13t-24.5 -40
h-109q7 67 56 105t138 38q62 0 100 -16t57 -50q48 66 151 66q115 0 168 -64.5t53 -186.5q0 -27 -1 -40zM671 303q-4 58 -29.5 86.5t-79.5 28.5q-49 0 -76 -28.5t-35 -86.5h220zM340 236q-10 -4 -42 -10l-83 -13q-34 -5 -52 -23.5t-18 -45.5q0 -32 19.5 -49t56.5 -17
q50 0 84.5 29t34.5 83v46z" />
    <glyph glyph-name="uni04D7" unicode="&#x4d7;" horiz-adv-x="527" 
d="M484 215h-332q5 -69 32.5 -103t81.5 -34q41 0 63.5 13t34.5 43h112q-33 -148 -210 -148q-114 0 -169 68.5t-55 191.5q0 117 53.5 188.5t168.5 71.5q222 0 222 -255q0 -23 -2 -36zM374 303q-5 57 -31 86t-79 29q-49 0 -75.5 -29t-34.5 -86h220zM113 730h86q2 -80 69 -80
q66 0 69 80h85q0 -79 -38.5 -120.5t-115.5 -41.5t-115.5 41.5t-39.5 120.5z" />
    <glyph glyph-name="uni04D9" unicode="&#x4d9;" horiz-adv-x="527" 
d="M42.9971 276.983h331.98q-5 68.9951 -32.498 102.993q-27.499 33.998 -81.4951 33.998q-40.998 0 -63.4961 -12.999q-22.499 -12.999 -34.498 -42.9971h-111.993q32.998 147.99 209.987 147.99q113.993 0 168.989 -68.4951q54.9971 -68.4961 54.9971 -191.488
q0 -116.993 -53.4971 -188.489q-53.4971 -71.4951 -168.489 -71.4951q-221.987 0 -221.987 254.984q0 22.999 2 35.998zM152.99 188.988q5 -56.9961 30.998 -85.9941q25.999 -28.999 78.9961 -28.999q48.9961 0 75.4951 28.999q26.498 28.998 34.498 85.9941h-219.987z" />
    <glyph glyph-name="uni04E3" unicode="&#x4e3;" horiz-adv-x="585" 
d="M67 0v492h112v-189q0 -47 -1.5 -82t-7.5 -71h2q37 71 82 130l159 212h105v-492h-113v188q0 48 1.5 83t8.5 72h-2q-39 -73 -81 -128l-161 -215h-104zM150 675h291v-92h-291v92z" />
    <glyph glyph-name="uni04E7" unicode="&#x4e7;" horiz-adv-x="552" 
d="M42 246q0 122 58 191t176 69q119 0 176.5 -69t57.5 -191t-57.5 -191t-176.5 -69q-118 0 -176 69t-58 191zM156 246q0 -159 120 -159t120 159q0 160 -120 160t-120 -160zM119 700h118v-110h-118v110zM315 700h119v-110h-119v110z" />
    <glyph glyph-name="uni04E9" unicode="&#x4e9;" horiz-adv-x="552" 
d="M510 246q0 -122 -57.5 -191t-176.5 -69q-118 0 -176 69t-58 191t58 191t176 69q119 0 176.5 -69t57.5 -191zM159 289h234q-14 117 -117 117t-117 -117zM394 204h-236q16 -117 118 -117t118 117z" />
    <glyph glyph-name="uni04EF" unicode="&#x4ef;" horiz-adv-x="509" 
d="M136 492l78 -220q25 -78 38 -145h2q17 85 39 146l79 219h122l-260 -680h-122l85 210l-183 470h122zM108 675h291v-92h-291v92z" />
    <glyph glyph-name="uni04F1" unicode="&#x4f1;" horiz-adv-x="509" 
d="M136 492l78 -220q25 -78 38 -145h2q17 85 39 146l79 219h122l-260 -680h-122l85 210l-183 470h122zM96 700h118v-110h-118v110zM292 700h119v-110h-119v110z" />
    <glyph glyph-name="uni04F3" unicode="&#x4f3;" horiz-adv-x="509" 
d="M136 492l78 -220q25 -78 38 -145h2q17 85 39 146l79 219h122l-260 -680h-122l85 210l-183 470h122zM297 731l-84 -158h-107l72 158h119zM487 731l-84 -158h-107l72 158h119z" />
    <glyph glyph-name="uni0501" unicode="&#x501;" horiz-adv-x="570" 
d="M504 700v-700h-106v52q-47 -66 -144 -66q-211 0 -211 260t211 260q93 0 138 -58v252h112zM397 246q0 160 -120 160q-121 0 -121 -160q0 -159 121 -159q120 0 120 159z" />
    <glyph glyph-name="uni051B" unicode="&#x51b;" horiz-adv-x="570" 
d="M503 492v-680h-112v230q-45 -56 -136 -56q-212 0 -212 260t212 260q97 0 143 -65v51h105zM396 246q0 160 -120 160q-60 0 -90 -40.5t-30 -119.5q0 -78 30 -118.5t90 -40.5q120 0 120 159z" />
    <glyph glyph-name="uni051D" unicode="&#x51d;" horiz-adv-x="747" 
d="M345 244l-64 -244h-129l-130 492h121l49 -223q12 -68 24 -160h2q14 92 29 160l59 223h135l58 -223q18 -82 30 -160h2q12 92 24 160l49 223h121l-131 -492h-128l-64 244q-17 73 -28 146h-2q-12 -84 -27 -146z" />
    <glyph glyph-name="Alpha" unicode="&#x391;" horiz-adv-x="661" 
d="M471 140h-281l-46 -140h-129l241 700h149l241 -700h-129zM435 248l-64 195q-25 77 -40 155h-2q-13 -76 -39 -155l-64 -195h209z" />
    <glyph glyph-name="Beta" unicode="&#x392;" horiz-adv-x="636" 
d="M567 509q0 -49 -21.5 -87t-61.5 -60q46 -20 73.5 -64t27.5 -100q0 -96 -51 -147t-155 -51h-300v700h279q104 0 156.5 -51t52.5 -140zM442 500q0 93 -99 93h-144v-185h144q52 0 75.5 23.5t23.5 68.5zM461 204q0 99 -100 99h-162v-196h161q101 0 101 97z" />
    <glyph glyph-name="Gamma" unicode="&#x393;" horiz-adv-x="530" 
d="M79 0v700h427v-107h-306v-593h-121z" />
    <glyph glyph-name="uni0394" unicode="&#x394;" horiz-adv-x="661" 
d="M646 0h-631l241 700h149zM482 107l-111 336q-25 77 -40 155h-2q-13 -76 -39 -155l-111 -336h303z" />
    <glyph glyph-name="Epsilon" unicode="&#x395;" horiz-adv-x="578" 
d="M522 107v-107h-443v700h443v-107h-323v-187h306v-107h-306v-192h323z" />
    <glyph glyph-name="Zeta" unicode="&#x396;" horiz-adv-x="572" 
d="M526 700v-89l-262 -404q-49 -72 -78 -104v-2q38 6 122 6h229v-107h-501v89l261 404q49 72 78 104v2q-38 -6 -122 -6h-209v107h482z" />
    <glyph glyph-name="Eta" unicode="&#x397;" horiz-adv-x="706" 
d="M507 406v294h120v-700h-120v299h-308v-299h-120v700h120v-294h308z" />
    <glyph glyph-name="Theta" unicode="&#x398;" horiz-adv-x="733" 
d="M47 350q0 166 79 265t240 99q162 0 241 -99t79 -265t-79 -265t-241 -99q-161 0 -240 99t-79 265zM561 350q0 121 -49 187.5t-146 66.5q-96 0 -145.5 -67t-49.5 -187t49.5 -187t145.5 -67q97 0 146 66.5t49 187.5zM239 397h253v-94h-253v94z" />
    <glyph glyph-name="Iota" unicode="&#x399;" horiz-adv-x="279" 
d="M79 0v700h120v-700h-120z" />
    <glyph glyph-name="Kappa" unicode="&#x39a;" horiz-adv-x="622" 
d="M244 271l-45 -51v-220h-120v700h120v-215q0 -76 -3 -112h2q22 39 63 90l198 237h153l-249 -289l249 -411h-143l-156 262q-18 32 -29 57h-2q-7 -12 -20 -26.5t-18 -21.5z" />
    <glyph glyph-name="Lambda" unicode="&#x39b;" horiz-adv-x="652" 
d="M327 597.964q14 -72.9961 39 -154.991l141 -442.973h130l-236 699.957h-149l-236 -699.957h130l141 442.973l38 154.991h2z" />
    <glyph glyph-name="Mu" unicode="&#x39c;" horiz-adv-x="875" 
d="M249 358q-37 87 -56 155h-2q8 -69 8 -156v-357h-120v700h144l176 -420q26 -62 38 -125h2q10 61 37 125l176 420h144v-700h-120v357q0 79 9 156h-2q-22 -73 -57 -155l-150 -358h-77z" />
    <glyph glyph-name="Nu" unicode="&#x39d;" horiz-adv-x="723" 
d="M524 700h120v-700h-114l-254 375q-55 82 -85 157h-2q10 -66 10 -162v-370h-120v700h115l253 -375q48 -70 85 -157h2q-10 66 -10 162v370z" />
    <glyph glyph-name="Xi" unicode="&#x39e;" horiz-adv-x="565" 
d="M56 700h453v-107h-453v107zM73 406h418v-108h-418v108zM56 107h453v-107h-453v107z" />
    <glyph glyph-name="Omicron" unicode="&#x39f;" horiz-adv-x="733" 
d="M47 350q0 166 79 265t240 99q162 0 241 -99t79 -265t-79 -265t-241 -99q-161 0 -240 99t-79 265zM561 350q0 121 -49 187.5t-146 66.5q-96 0 -145.5 -67t-49.5 -187t49.5 -187t145.5 -67q97 0 146 66.5t49 187.5z" />
    <glyph glyph-name="Pi" unicode="&#x3a0;" horiz-adv-x="701" 
d="M622 0h-120v593h-303v-593h-120v700h543v-700z" />
    <glyph glyph-name="Rho" unicode="&#x3a1;" horiz-adv-x="596" 
d="M564 490q0 -97 -54.5 -153.5t-156.5 -56.5h-154v-280h-120v700h273q102 0 157 -55t55 -155zM439 490q0 50 -25.5 76.5t-76.5 26.5h-138v-206h138q102 0 102 103z" />
    <glyph glyph-name="Sigma" unicode="&#x3a3;" horiz-adv-x="562" 
d="M187 602v-2q50 -52 75 -89l109 -153l-108 -157q-35 -53 -84 -100v-2q46 8 123 8h217v-107h-482v92l195 266l-187 250v92h474v-107h-217q-37 0 -63 1.5t-52 7.5z" />
    <glyph glyph-name="Tau" unicode="&#x3a4;" horiz-adv-x="556" 
d="M32 593v107h492v-107h-186v-593h-120v593h-186z" />
    <glyph glyph-name="Upsilon" unicode="&#x3a5;" horiz-adv-x="614" 
d="M367 270v-270h-120v270l-229 430h139l104 -208q28 -60 45 -116h2q18 59 46 116l103 208h139z" />
    <glyph glyph-name="Phi" unicode="&#x3a6;" horiz-adv-x="805" 
d="M343 27q-155 6 -228 91t-73 227q0 143 73 227.5t228 91.5v87h120v-87q155 -7 228 -91.5t73 -227.5q0 -142 -73 -227t-228 -91v-91h-120v91zM343 561q-89 -7 -133 -62.5t-44 -153.5t43.5 -153t133.5 -62v431zM639 345q0 98 -43.5 153.5t-132.5 62.5v-431q89 7 132.5 62
t43.5 153z" />
    <glyph glyph-name="Chi" unicode="&#x3a7;" horiz-adv-x="637" 
d="M264 528q28 -48 53 -109h2q27 63 54 109l109 172h144l-225 -346l222 -354h-142l-108 176q-33 58 -54 109h-2q-17 -44 -53 -109l-108 -176h-142l222 354l-225 346h144z" />
    <glyph glyph-name="Psi" unicode="&#x3a8;" horiz-adv-x="758" 
d="M319 150q-134 3 -201 75t-67 203v272h120v-265q0 -89 37.5 -131t110.5 -45v441h120v-441q73 3 110.5 45.5t37.5 130.5v265h120v-272q0 -131 -67 -203t-201 -75v-150h-120v150z" />
    <glyph glyph-name="uni03A9" unicode="&#x3a9;" horiz-adv-x="755" 
d="M698 107v-107h-274v99q76 22 110.5 87t34.5 168q0 119 -47.5 184.5t-144.5 65.5q-96 0 -143.5 -65.5t-47.5 -184.5q0 -103 34.5 -168t110.5 -87v-99h-274v107h106q-51 42 -76.5 109t-25.5 153q0 155 78 250t238 95t238.5 -95t78.5 -250q0 -86 -25.5 -153t-76.5 -109h106z
" />
    <glyph glyph-name="Alphatonos" unicode="&#x386;" horiz-adv-x="695" 
d="M506 140h-281l-46 -140h-129l241 700h149l241 -700h-129zM470 248l-64 195q-25 77 -40 155h-2q-13 -76 -39 -155l-64 -195h209zM192 700l-54 -157h-102l44 157h112z" />
    <glyph glyph-name="Epsilontonos" unicode="&#x388;" horiz-adv-x="701" 
d="M653 107v-107h-443v700h443v-107h-323v-187h306v-107h-306v-192h323zM158 700l-54 -157h-102l44 157h112z" />
    <glyph glyph-name="Etatonos" unicode="&#x389;" horiz-adv-x="828" 
d="M638 406v294h120v-700h-120v299h-308v-299h-120v700h120v-294h308zM158 700l-54 -157h-102l44 157h112z" />
    <glyph glyph-name="Iotatonos" unicode="&#x38a;" horiz-adv-x="400" 
d="M210 0v700h120v-700h-120zM158 700l-54 -157h-102l44 157h112z" />
    <glyph glyph-name="Omicrontonos" unicode="&#x38c;" horiz-adv-x="841" 
d="M160 350q0 166 79 265t240 99q162 0 241 -99t79 -265t-79 -265t-241 -99q-161 0 -240 99t-79 265zM674 350q0 121 -49 187.5t-146 66.5q-96 0 -145.5 -67t-49.5 -187t49.5 -187t145.5 -67q97 0 146 66.5t49 187.5zM176 700l-54 -157h-102l44 157h112z" />
    <glyph glyph-name="Upsilontonos" unicode="&#x38e;" horiz-adv-x="805" 
d="M558 270v-270h-120v270l-229 430h139l104 -208q28 -60 45 -116h2q18 59 46 116l103 208h139zM192 700l-54 -157h-102l44 157h112z" />
    <glyph glyph-name="Omegatonos" unicode="&#x38f;" horiz-adv-x="847" 
d="M807 107v-107h-274v99q76 22 110.5 87t34.5 168q0 119 -47.5 184.5t-144.5 65.5q-96 0 -143.5 -65.5t-47.5 -184.5q0 -103 34.5 -168t110.5 -87v-99h-274v107h106q-51 42 -76.5 109t-25.5 153q0 155 78 250t238 95t238.5 -95t78.5 -250q0 -86 -25.5 -153t-76.5 -109h106z
M176 700l-54 -157h-102l44 157h112z" />
    <glyph glyph-name="Iotadieresis" unicode="&#x3aa;" horiz-adv-x="279" 
d="M79 0v700h120v-700h-120zM-46 873h118v-110h-118v110zM207 873h118v-110h-118v110z" />
    <glyph glyph-name="Upsilondieresis" unicode="&#x3ab;" horiz-adv-x="614" 
d="M367 270v-270h-120v270l-229 430h139l104 -208q28 -60 45 -116h2q18 59 46 116l103 208h139zM121 873h118v-110h-118v110zM374 873h118v-110h-118v110z" />
    <glyph glyph-name="alpha" unicode="&#x3b1;" horiz-adv-x="570" 
d="M504 492v-492h-106v52q-47 -66 -144 -66q-211 0 -211 260t211 260q97 0 144 -66v52h106zM397 246q0 160 -120 160q-121 0 -121 -160q0 -159 121 -159q120 0 120 159z" />
    <glyph glyph-name="beta" unicode="&#x3b2;" horiz-adv-x="568" 
d="M527 194q0 -103 -58.5 -152.5t-152.5 -49.5q-50 0 -83.5 16t-53.5 49v-245h-112v669q0 232 209 232q109 0 163 -53.5t54 -140.5q0 -106 -77 -145q111 -29 111 -180zM414 202q0 58 -27.5 84.5t-83.5 26.5h-46v92h27q46 0 70.5 26t24.5 78q0 48 -26.5 76t-76.5 28
q-97 0 -97 -124v-287q0 -56 34 -83.5t87 -27.5q52 0 83 27.5t31 83.5z" />
    <glyph glyph-name="gamma" unicode="&#x3b3;" horiz-adv-x="509" 
d="M311 25v-213h-113v213l-184 467h123l73 -206q30 -89 43 -163h2q13 78 44 163l73 206h123z" />
    <glyph glyph-name="delta" unicode="&#x3b4;" horiz-adv-x="534" 
d="M494 227q0 -71 -26.5 -125.5t-78 -85t-122.5 -30.5q-108 0 -167 64t-59 173q0 106 56.5 170.5t159.5 68.5l-169 158v80h379v-92h-127q-66 0 -114 7v-2q39 -25 81 -65l61 -60q69 -67 97.5 -124t28.5 -137zM380 227q0 67 -29 104t-84 37q-54 0 -83 -37t-29 -104
q0 -66 29 -103t83 -37q55 0 84 37t29 103z" />
    <glyph glyph-name="epsilon" unicode="&#x3b5;" horiz-adv-x="498" 
d="M159 149q0 -65 97 -65q45 0 68 14t30 52h112q-8 -84 -60 -124t-150 -40q-110 0 -162.5 38.5t-52.5 109.5q0 46 22 78t62 42q-32 13 -50 41t-18 65q0 68 48 107t152 39q95 0 145 -38t60 -117h-113q-5 30 -27 44t-65 14q-40 0 -61 -15t-21 -44q0 -23 14.5 -37t43.5 -14h59
v-92h-59q-37 0 -55.5 -15t-18.5 -43z" />
    <glyph glyph-name="zeta" unicode="&#x3b6;" horiz-adv-x="440" 
d="M421 620l-50 -61q-93 -113 -133 -165.5t-62 -95.5t-22 -81q0 -30 15 -50.5t36.5 -33t60.5 -30.5q47 -20 77 -38.5t50.5 -52t20.5 -85.5q0 -25 -8 -53.5t-20 -51.5h-115q13 24 21.5 50t8.5 47q0 26 -13.5 43t-32.5 27t-56 25q-50 20 -82 39t-54.5 57t-22.5 99
q0 63 36 131.5t133 191.5q39 49 86 82v2q-23 -5 -50.5 -6.5t-69.5 -1.5h-123v92h369v-80z" />
    <glyph glyph-name="eta" unicode="&#x3b7;" horiz-adv-x="546" 
d="M67 492h105v-55q35 69 134 69q89 0 133 -45.5t44 -151.5v-497h-112v485q0 58 -23.5 83.5t-72.5 25.5t-72.5 -25.5t-23.5 -83.5v-297h-112v492z" />
    <glyph glyph-name="theta" unicode="&#x3b8;" horiz-adv-x="583" 
d="M534 350q0 -183 -58 -273.5t-184 -90.5t-184 90.5t-58 273.5t58 273.5t184 90.5t184 -90.5t58 -273.5zM165 398h254q-4 117 -34.5 166t-92.5 49t-92.5 -49t-34.5 -166zM419 305h-254q4 -119 34.5 -168.5t92.5 -49.5t92.5 49.5t34.5 168.5z" />
    <glyph glyph-name="iota" unicode="&#x3b9;" horiz-adv-x="303" 
d="M69 144v348h112v-339q0 -36 15 -50.5t50 -14.5q18 0 38 4v-93q-22 -6 -65 -6q-73 0 -111.5 38.5t-38.5 112.5z" />
    <glyph glyph-name="kappa" unicode="&#x3ba;" horiz-adv-x="519" 
d="M251 216q-8 -12 -17.5 -22.5t-20.5 -21.5l-34 -33v-139h-112v492h112v-96v-59.5t-2 -59.5h2q15 23 31.5 45.5t33.5 40.5l119 129h147l-181 -196l181 -296h-137l-93 166q-7 12 -14 24.5t-13 25.5h-2v0z" />
    <glyph glyph-name="lambda" unicode="&#x3bb;" horiz-adv-x="509" 
d="M197 470l-93 230h122l268 -700h-122l-79 219q-25 70 -39 147h-2q-14 -71 -39 -146l-77 -220h-122z" />
    <glyph glyph-name="uni03BC" unicode="&#x3bc;" horiz-adv-x="568" 
d="M537 90v-93q-28 -4 -49 -4q-77 0 -104 57q-20 -28 -52.5 -46t-69.5 -18q-48 0 -83 24v-198h-112v680h112v-291q0 -60 23.5 -87.5t70.5 -27.5q49 0 72 27t23 87v292h112v-353q0 -27 7.5 -39.5t23.5 -12.5q11 0 26 3z" />
    <glyph glyph-name="nu" unicode="&#x3bd;" horiz-adv-x="514" 
d="M297 251l78 241h122l-173 -492h-134l-173 492h122l78 -241q28 -94 39 -153h2q11 59 39 153z" />
    <glyph glyph-name="xi" unicode="&#x3be;" horiz-adv-x="457" 
d="M279 103q52 -22 83 -40.5t53 -51.5t22 -84q0 -25 -8 -53.5t-21 -51.5h-115q14 23 22.5 49t8.5 48q0 26 -14.5 43.5t-37 29t-61.5 27.5q-53 21 -87.5 41t-58.5 57t-24 96q0 61 24 101.5t71 57.5q-36 12 -55 44t-19 79q0 71 55 113h-87v92h400v-92h-170q-40 0 -62 -26.5
t-22 -71.5q0 -47 25.5 -71.5t80.5 -24.5h103v-92h-102q-68 0 -98.5 -23.5t-30.5 -74.5q0 -32 16.5 -54t41 -35.5t67.5 -31.5z" />
    <glyph glyph-name="omicron" unicode="&#x3bf;" horiz-adv-x="552" 
d="M42 246q0 122 58 191t176 69q119 0 176.5 -69t57.5 -191t-57.5 -191t-176.5 -69q-118 0 -176 69t-58 191zM156 246q0 -159 120 -159t120 159q0 160 -120 160t-120 -160z" />
    <glyph glyph-name="pi" unicode="&#x3c0;" horiz-adv-x="556" 
d="M489 492v-492h-112v400h-198v-400h-112v492h422z" />
    <glyph glyph-name="rho" unicode="&#x3c1;" horiz-adv-x="562" 
d="M60 247q0 127 54 193t173 66q117 0 175 -69.5t58 -189.5q0 -260 -210 -260q-96 0 -138 65v-240h-112v435zM406 247q0 158 -120 158t-120 -158q0 -160 120 -160t120 160z" />
    <glyph glyph-name="sigma1" unicode="&#x3c2;" horiz-adv-x="505" 
d="M340 -81q0 34 -25 51.5t-80 36.5q-60 21 -98.5 43.5t-67 71t-28.5 129.5q0 120 55 187.5t174 67.5q97 0 151 -44.5t65 -123.5h-112q-8 36 -33.5 52t-70.5 16q-59 0 -87 -39t-28 -116q0 -50 20 -80t48.5 -45.5t78.5 -32.5q51 -18 80.5 -34t50 -47.5t20.5 -84.5
q0 -26 -8 -54t-21 -51h-115q14 23 22.5 49t8.5 48z" />
    <glyph glyph-name="sigma" unicode="&#x3c3;" horiz-adv-x="567" 
d="M535 400h-97q71 -52 71 -167q0 -112 -58.5 -179.5t-175.5 -67.5q-118 0 -176 69t-58 190q0 115 58 181t176 66h260v-92zM275 400q-120 0 -120 -155q0 -158 120 -158t120 158q0 155 -120 155z" />
    <glyph glyph-name="tau" unicode="&#x3c4;" horiz-adv-x="463" 
d="M437 400h-160v-239q0 -40 19 -56.5t55 -16.5q19 0 39 4v-93q-24 -6 -61 -6q-79 0 -121.5 39.5t-42.5 118.5v249h-144v92h416v-92z" />
    <glyph glyph-name="upsilon" unicode="&#x3c5;" horiz-adv-x="537" 
d="M62 197v295h112v-289q0 -60 23 -88t71 -28q49 0 72 28t23 88v289h112v-295q0 -211 -207 -211q-206 0 -206 211z" />
    <glyph glyph-name="phi" unicode="&#x3c6;" horiz-adv-x="674" 
d="M281 -13q-119 7 -179 74.5t-60 185.5t60 185t179 74v194h112v-194q119 -7 179 -74t60 -185t-60 -185.5t-179 -74.5v-175h-112v175zM281 406q-65 -7 -95 -45.5t-30 -113.5q0 -76 30 -114.5t95 -45.5v319zM518 247q0 75 -30 113.5t-95 45.5v-319q65 7 95 45.5t30 114.5z
" />
    <glyph glyph-name="chi" unicode="&#x3c7;" horiz-adv-x="478" 
d="M238 92q-14 -66 -43 -137l-62 -143h-125l161 343l-161 337h125l64 -145q30 -73 41 -129h2q11 56 41 129l64 145h125l-161 -337l161 -343h-125l-62 143q-27 63 -43 137h-2z" />
    <glyph glyph-name="psi" unicode="&#x3c8;" horiz-adv-x="682" 
d="M174 492v-273q0 -65 26.5 -97t84.5 -36v614h112v-614q57 4 84 36t27 97v273h112v-279q0 -218 -223 -225v-175h-112v175q-224 7 -224 225v279h113z" />
    <glyph glyph-name="omega" unicode="&#x3c9;" horiz-adv-x="777" 
d="M732 250q0 -264 -202 -264q-103 0 -141 80q-40 -80 -142 -80q-202 0 -202 264q0 67 14.5 126t41.5 116h119q-30 -65 -46 -123t-16 -122q0 -81 21.5 -120.5t68.5 -39.5q43 0 64 31.5t21 91.5v168h112v-168q0 -123 84 -123q47 0 68.5 39.5t21.5 120.5q0 64 -16 122t-46 123
h119q27 -57 41.5 -116t14.5 -126z" />
    <glyph glyph-name="iotatonos" unicode="&#x3af;" horiz-adv-x="303" 
d="M69 144v348h112v-339q0 -36 15 -50.5t50 -14.5q18 0 38 4v-93q-22 -6 -65 -6q-73 0 -111.5 38.5t-38.5 112.5zM234 727l-56 -157h-100l44 157h112z" />
    <glyph glyph-name="iotadieresis" unicode="&#x3ca;" horiz-adv-x="303" 
d="M69 144v348h112v-339q0 -36 15 -50.5t50 -14.5q18 0 38 4v-93q-22 -6 -65 -6q-73 0 -111.5 38.5t-38.5 112.5zM-30 700h118v-110h-118v110zM166 700h119v-110h-119v110z" />
    <glyph glyph-name="iotadieresistonos" unicode="&#x390;" horiz-adv-x="303" 
d="M69 144v348h112v-339q0 -36 15 -50.5t50 -14.5q18 0 38 4v-93q-22 -6 -65 -6q-73 0 -111.5 38.5t-38.5 112.5zM204 740l-41 -157h-99l29 157h111zM-66 700h106v-107h-106v107zM218 700h106v-107h-106v107z" />
    <glyph glyph-name="upsilontonos" unicode="&#x3cd;" horiz-adv-x="537" 
d="M62 197v295h112v-289q0 -60 23 -88t71 -28q49 0 72 28t23 88v289h112v-295q0 -211 -207 -211q-206 0 -206 211zM375 727l-56 -157h-100l44 157h112z" />
    <glyph glyph-name="upsilondieresis" unicode="&#x3cb;" horiz-adv-x="537" 
d="M62 197v295h112v-289q0 -60 23 -88t71 -28q49 0 72 28t23 88v289h112v-295q0 -211 -207 -211q-206 0 -206 211zM111 700h118v-110h-118v110zM307 700h119v-110h-119v110z" />
    <glyph glyph-name="upsilondieresistonos" unicode="&#x3b0;" horiz-adv-x="537" 
d="M62 197v295h112v-289q0 -60 23 -88t71 -28q49 0 72 28t23 88v289h112v-295q0 -211 -207 -211q-206 0 -206 211zM345 740l-41 -157h-99l29 157h111zM75 700h106v-107h-106v107zM359 700h106v-107h-106v107z" />
    <glyph glyph-name="omicrontonos" unicode="&#x3cc;" horiz-adv-x="552" 
d="M42 246q0 122 58 191t176 69q119 0 176.5 -69t57.5 -191t-57.5 -191t-176.5 -69q-118 0 -176 69t-58 191zM156 246q0 -159 120 -159t120 159q0 160 -120 160t-120 -160zM383 727l-56 -157h-100l44 157h112z" />
    <glyph glyph-name="omegatonos" unicode="&#x3ce;" horiz-adv-x="777" 
d="M732 250q0 -264 -202 -264q-103 0 -141 80q-40 -80 -142 -80q-202 0 -202 264q0 67 14.5 126t41.5 116h119q-30 -65 -46 -123t-16 -122q0 -81 21.5 -120.5t68.5 -39.5q43 0 64 31.5t21 91.5v168h112v-168q0 -123 84 -123q47 0 68.5 39.5t21.5 120.5q0 64 -16 122t-46 123
h119q27 -57 41.5 -116t14.5 -126zM497 727l-56 -157h-100l44 157h112z" />
    <glyph glyph-name="alphatonos" unicode="&#x3ac;" horiz-adv-x="570" 
d="M504 492v-492h-106v52q-47 -66 -144 -66q-211 0 -211 260t211 260q97 0 144 -66v52h106zM397 246q0 160 -120 160q-121 0 -121 -160q0 -159 121 -159q120 0 120 159zM388 727l-56 -157h-100l44 157h112z" />
    <glyph glyph-name="epsilontonos" unicode="&#x3ad;" horiz-adv-x="498" 
d="M159 149q0 -65 97 -65q45 0 68 14t30 52h112q-8 -84 -60 -124t-150 -40q-110 0 -162.5 38.5t-52.5 109.5q0 46 22 78t62 42q-32 13 -50 41t-18 65q0 68 48 107t152 39q95 0 145 -38t60 -117h-113q-5 30 -27 44t-65 14q-40 0 -61 -15t-21 -44q0 -23 14.5 -37t43.5 -14h59
v-92h-59q-37 0 -55.5 -15t-18.5 -43zM363 727l-56 -157h-100l44 157h112z" />
    <glyph glyph-name="etatonos" unicode="&#x3ae;" horiz-adv-x="546" 
d="M67 492h105v-55q35 69 134 69q89 0 133 -45.5t44 -151.5v-497h-112v485q0 58 -23.5 83.5t-72.5 25.5t-72.5 -25.5t-23.5 -83.5v-297h-112v492zM382 727l-56 -157h-100l44 157h112z" />
    <glyph glyph-name="zero" unicode="0" horiz-adv-x="615" 
d="M565 350q0 -183 -64 -273.5t-194 -90.5q-129 0 -193 90.5t-64 273.5q0 364 257 364q130 0 194 -91t64 -273zM168 350q0 -136 34 -197.5t105 -61.5q72 0 106 61.5t34 197.5q0 135 -34 197t-106 62q-71 0 -105 -62t-34 -197z" />
    <glyph glyph-name="one" unicode="1" horiz-adv-x="369" 
d="M111 498l-86 -64v129l178 137h87v-700h-114v459q0 56 6 99h-2q-34 -36 -69 -60z" />
    <glyph glyph-name="two" unicode="2" horiz-adv-x="542" 
d="M261 714q108 0 166 -57.5t58 -158.5q0 -74 -34 -137t-103 -134l-56 -55q-46 -46 -90 -74v-2q57 6 142 6h153v-102h-450v86l208 208q57 58 85 103.5t28 99.5q0 50 -25.5 81t-79.5 31q-53 0 -79.5 -24.5t-30.5 -77.5h-113q14 207 221 207z" />
    <glyph glyph-name="three" unicode="3" horiz-adv-x="572" 
d="M278 91q65 0 97.5 29.5t32.5 83.5q0 109 -130 109h-66v99h66q109 0 109 98q0 46 -26.5 72.5t-82.5 26.5q-48 0 -73 -17.5t-33 -53.5l-114 -1q8 78 62.5 127.5t157.5 49.5q102 0 163.5 -51.5t61.5 -143.5q0 -55 -23 -95t-65 -61q51 -16 80.5 -60t29.5 -107
q0 -102 -64 -156t-183 -54q-121 0 -178 53t-67 150h116q6 -51 36.5 -75t92.5 -23z" />
    <glyph glyph-name="four" unicode="4" horiz-adv-x="579" 
d="M330 700h130v-465h85v-102h-85v-133h-114v133h-326v87zM348 437q0 56 5 121h-2q-34 -76 -58 -112l-92 -143q-28 -45 -50 -68v-2q24 2 74 2h123v202z" />
    <glyph glyph-name="five" unicode="5" horiz-adv-x="571" 
d="M485 700v-102h-299l-8 -167q44 53 131 53q104 0 163 -64t59 -186q0 -119 -65 -183.5t-183 -64.5q-114 0 -171.5 52.5t-67.5 144.5h116q9 -48 38.5 -70t84.5 -22q131 0 131 143q0 146 -129 146q-50 0 -74.5 -19t-37.5 -54h-111l17 393h406z" />
    <glyph glyph-name="six" unicode="6" horiz-adv-x="565" 
d="M536 234q0 -116 -65 -182t-181 -66q-124 0 -185.5 70t-61.5 186q0 59 20.5 117.5t55.5 120.5l128 220h126l-130 -224q24 6 50 6q111 0 177 -64t66 -184zM419 234q0 66 -32.5 105t-96.5 39q-65 0 -97.5 -38.5t-32.5 -105.5q0 -66 32.5 -104.5t97.5 -38.5q64 0 96.5 38.5
t32.5 104.5z" />
    <glyph glyph-name="seven" unicode="7" horiz-adv-x="483" 
d="M228 598h-205v102h442v-83l-265 -617h-132l217 491q26 56 58 110v2q-58 -5 -115 -5z" />
    <glyph glyph-name="eight" unicode="8" horiz-adv-x="597" 
d="M47 196q0 62 29.5 106.5t81.5 60.5q-43 21 -66 61t-23 95q0 88 57.5 141.5t172.5 53.5t172 -53.5t57 -141.5q0 -55 -23 -95t-66 -61q52 -16 81.5 -60.5t29.5 -106.5q0 -100 -63 -155t-188 -55q-126 0 -189 55t-63 155zM413 513q0 46 -28.5 72.5t-85.5 26.5t-85.5 -26.5
t-28.5 -72.5q0 -98 114 -98t114 98zM434 202q0 111 -135 111t-135 -111q0 -55 33 -83t102 -28t102 28t33 83z" />
    <glyph glyph-name="nine" unicode="9" horiz-adv-x="566" 
d="M29 466q0 116 65 182t181 66q124 0 185.5 -70t61.5 -186q0 -59 -20.5 -117.5t-55.5 -120.5l-128 -220h-126l130 224q-24 -6 -50 -6q-111 0 -177 64t-66 184zM146 466q0 -66 32.5 -105t96.5 -39q65 0 97.5 38.5t32.5 105.5q0 66 -32.5 104.5t-97.5 38.5q-64 0 -96.5 -38.5
t-32.5 -104.5z" />
    <glyph glyph-name="zero.tnum" 
d="M541 350q0 -183 -62 -273.5t-188 -90.5t-188.5 90.5t-62.5 273.5q0 364 251 364q126 0 188 -90.5t62 -273.5zM158 350q0 -135 32.5 -197t100.5 -62t100.5 61.5t32.5 197.5q0 135 -32.5 197t-100.5 62t-100.5 -62t-32.5 -197z" />
    <glyph glyph-name="one.tnum" 
d="M533 102v-102h-455v102h178v357q0 57 6 100h-2q-37 -39 -69 -61l-85 -64v129l177 137h87v-598h163z" />
    <glyph glyph-name="two.tnum" 
d="M281 714q108 0 166 -57.5t58 -158.5q0 -74 -34 -137t-103 -134l-56 -55q-46 -46 -90 -74v-2q57 6 142 6h153v-102h-450v86l208 208q57 58 85 103.5t28 99.5q0 50 -25.5 81t-79.5 31q-53 0 -79.5 -24.5t-30.5 -77.5h-113q14 207 221 207z" />
    <glyph glyph-name="three.tnum" 
d="M283 91q65 0 97.5 29.5t32.5 83.5q0 109 -130 109h-66v99h66q109 0 109 98q0 46 -26.5 72.5t-82.5 26.5q-48 0 -73 -17.5t-33 -53.5l-114 -1q8 78 62.5 127.5t157.5 49.5q102 0 163.5 -51.5t61.5 -143.5q0 -55 -23 -95t-65 -61q51 -16 80.5 -60t29.5 -107
q0 -102 -64 -156t-183 -54q-121 0 -178 53t-67 150h116q6 -51 36.5 -75t92.5 -23z" />
    <glyph glyph-name="four.tnum" 
d="M327 700h129v-465h77v-102h-77v-133h-113v133h-315v87zM344 437q0 67 7 120h-2q-38 -82 -56 -111l-88 -143q-13 -20 -39 -53l-13 -16v-2q33 3 75 3h116v202z" />
    <glyph glyph-name="five.tnum" 
d="M491 700v-102h-299l-8 -167q44 53 131 53q104 0 163 -64t59 -186q0 -119 -65 -183.5t-183 -64.5q-114 0 -171.5 52.5t-67.5 144.5h116q9 -48 38.5 -70t84.5 -22q131 0 131 143q0 146 -129 146q-50 0 -74.5 -19t-37.5 -54h-111l17 393h406z" />
    <glyph glyph-name="six.tnum" 
d="M544 234q0 -116 -65 -182t-181 -66q-124 0 -185.5 70t-61.5 186q0 59 20.5 117.5t55.5 120.5l128 220h126l-130 -224q24 6 50 6q111 0 177 -64t66 -184zM427 234q0 66 -32.5 105t-96.5 39q-65 0 -97.5 -38.5t-32.5 -105.5q0 -66 32.5 -104.5t97.5 -38.5q64 0 96.5 38.5
t32.5 104.5z" />
    <glyph glyph-name="seven.tnum" 
d="M290 598h-223v102h459v-83l-284 -617h-135l237 491q32 66 61 110v2q-44 -5 -115 -5z" />
    <glyph glyph-name="eight.tnum" 
d="M40 196q0 62 29.5 106.5t81.5 60.5q-43 21 -66 61t-23 95q0 88 57.5 141.5t172.5 53.5t172 -53.5t57 -141.5q0 -55 -23 -95t-66 -61q52 -16 81.5 -60.5t29.5 -106.5q0 -100 -63 -155t-188 -55q-126 0 -189 55t-63 155zM406 513q0 46 -28.5 72.5t-85.5 26.5t-85.5 -26.5
t-28.5 -72.5q0 -98 114 -98t114 98zM427 202q0 111 -135 111t-135 -111q0 -55 33 -83t102 -28t102 28t33 83z" />
    <glyph glyph-name="nine.tnum" 
d="M37 466q0 116 65 182t181 66q124 0 185.5 -70t61.5 -186q0 -59 -20.5 -117.5t-55.5 -120.5l-128 -220h-126l130 224q-24 -6 -50 -6q-111 0 -177 64t-66 184zM154 466q0 -66 32.5 -105t96.5 -39q65 0 97.5 38.5t32.5 105.5q0 66 -32.5 104.5t-97.5 38.5q-64 0 -96.5 -38.5
t-32.5 -104.5z" />
    <glyph glyph-name="zero.tnum.zero" 
d="M541 350q0 -183 -62 -273.5t-188 -90.5t-188.5 90.5t-62.5 273.5q0 364 251 364q126 0 188 -90.5t62 -273.5zM158 350q0 -66 7 -109l204 338q-30 30 -78 30q-68 0 -100.5 -62t-32.5 -197zM424 350q0 72 -9 123l-207 -346q30 -36 83 -36q68 0 100.5 61.5t32.5 197.5z" />
    <glyph glyph-name="zero.zero" horiz-adv-x="615" 
d="M565 350q0 -183 -64 -273.5t-194 -90.5q-129 0 -193 90.5t-64 273.5q0 364 257 364q130 0 194 -91t64 -273zM168 350q0 -64 8 -117l211 348q-31 28 -80 28q-71 0 -105 -62t-34 -197zM447 350q0 74 -11 131l-214 -357q33 -33 85 -33q72 0 106 61.5t34 197.5z" />
    <glyph glyph-name="uni2080" unicode="&#x2080;" horiz-adv-x="368" 
d="M33 38q0 96 38 146t113 50t113 -49.5t38 -146.5q0 -195 -151 -195q-75 0 -113 49.5t-38 145.5zM249 38q0 62 -16 91t-49 29t-49 -29t-16 -91t16 -90.5t49 -28.5t49 28.5t16 90.5z" />
    <glyph glyph-name="uni2081" unicode="&#x2081;" horiz-adv-x="245" 
d="M196 225v-374h-82v231q0 27 4 46h-1q-12 -13 -33 -26l-60 -42v88l107 77h65z" />
    <glyph glyph-name="uni2082" unicode="&#x2082;" horiz-adv-x="330" 
d="M206 108q0 50 -44 50q-42 0 -45 -47h-86q3 123 131 123q63 0 96.5 -31.5t33.5 -87.5q0 -41 -20 -74.5t-65 -75.5l-21 -21q-13 -11 -29 -21v-1q20 3 42 3h98v-74h-262v63l101 91q37 34 53.5 56t16.5 47z" />
    <glyph glyph-name="uni2083" unicode="&#x2083;" horiz-adv-x="347" 
d="M25 -41h86q4 -22 16.5 -31t39.5 -9q61 0 61 44q0 23 -14.5 34t-46.5 11h-36v73h36q50 0 50 39q0 41 -48 41q-41 0 -45 -31h-86q2 46 34 75t97 29q69 0 101.5 -30t32.5 -74q0 -32 -12 -52t-40 -33q32 -9 48 -33t16 -58q0 -51 -37.5 -81t-110.5 -30q-69 0 -103 30t-39 86z
" />
    <glyph glyph-name="uni2084" unicode="&#x2084;" horiz-adv-x="352" 
d="M278 225v-231h47v-74h-47v-69h-82v69h-175v64l168 241h89zM199 82q0 31 3 49h-1q-6 -14 -23 -43l-44 -65q-12 -20 -25 -32v-1q20 3 40 3h50v89z" />
    <glyph glyph-name="uni2085" unicode="&#x2085;" horiz-adv-x="340" 
d="M28 -46h86q4 -18 16.5 -26.5t36.5 -8.5q60 0 60 58q0 27 -14.5 42t-44.5 15q-36 0 -49 -25h-80l13 216h232v-73h-158l-5 -75q11 12 29.5 19.5t42.5 7.5q54 0 86 -31t32 -94q0 -66 -37.5 -101t-106.5 -35q-66 0 -101 30.5t-38 80.5z" />
    <glyph glyph-name="uni2086" unicode="&#x2086;" horiz-adv-x="350" 
d="M327 -19q0 -63 -40 -100.5t-109 -37.5q-74 0 -111 38.5t-37 102.5q0 31 11.5 61t32.5 65l67 115h92l-67 -111q6 1 17 1q68 0 106 -32t38 -102zM241 -19q0 29 -16 45t-47 16q-30 0 -45.5 -16t-15.5 -45q0 -30 15.5 -46t45.5 -16q31 0 47 16t16 46z" />
    <glyph glyph-name="uni2087" unicode="&#x2087;" horiz-adv-x="301" 
d="M281 166l-143 -315h-96l118 251q13 29 29 52v1q-18 -3 -51 -3h-113v73h256v-59z" />
    <glyph glyph-name="uni2088" unicode="&#x2088;" horiz-adv-x="359" 
d="M32 -41q0 30 16 52.5t46 32.5q-50 26 -50 84q0 46 33 76t102 30t102.5 -30t33.5 -76q0 -57 -50 -84q29 -10 45 -32.5t16 -52.5q0 -55 -36.5 -85.5t-110.5 -30.5q-73 0 -110 30.5t-37 85.5zM229 121q0 40 -50 40q-49 0 -49 -40q0 -39 49 -39q50 0 50 39zM240 -37
q0 46 -61 46q-60 0 -60 -46q0 -44 60 -44q61 0 61 44z" />
    <glyph glyph-name="uni2089" unicode="&#x2089;" horiz-adv-x="350" 
d="M320 93q0 -31 -11.5 -61.5t-32.5 -64.5l-67 -116h-92l68 111q-6 -1 -18 -1q-67 0 -105 32.5t-38 102.5q0 63 39.5 100t108.5 37q74 0 111 -38t37 -102zM172 35q30 0 45.5 16t15.5 45t-15.5 45.5t-45.5 16.5q-31 0 -46.5 -16.5t-15.5 -45.5t15.5 -45t46.5 -16z" />
    <glyph glyph-name="zero.dnom" horiz-adv-x="368" 
d="M33 187q0 96 38 146t113 50t113 -49.5t38 -146.5q0 -195 -151 -195q-75 0 -113 49.5t-38 145.5zM249 187q0 62 -16 91t-49 29t-49 -29t-16 -91t16 -90.5t49 -28.5t49 28.5t16 90.5z" />
    <glyph glyph-name="one.dnom" horiz-adv-x="245" 
d="M196 374v-374h-82v231q0 27 4 46h-1q-12 -13 -33 -26l-60 -42v88l107 77h65z" />
    <glyph glyph-name="two.dnom" horiz-adv-x="330" 
d="M205 257q0 50 -44 50q-42 0 -45 -47h-86q3 123 131 123q63 0 96.5 -31.5t33.5 -87.5q0 -41 -20 -74.5t-65 -75.5l-21 -21q-13 -11 -29 -21v-1q20 3 42 3h98v-74h-262v63l101 91q37 34 53.5 56t16.5 47z" />
    <glyph glyph-name="three.dnom" horiz-adv-x="347" 
d="M25 108h86q4 -22 16.5 -31t39.5 -9q61 0 61 44q0 23 -14.5 34t-46.5 11h-36v73h36q50 0 50 39q0 41 -48 41q-41 0 -45 -31h-86q2 46 34 75t97 29q69 0 101.5 -30t32.5 -74q0 -32 -12 -52t-40 -33q32 -9 48 -33t16 -58q0 -51 -37.5 -81t-110.5 -30q-69 0 -103 30t-39 86z
" />
    <glyph glyph-name="four.dnom" horiz-adv-x="352" 
d="M278 374v-231h47v-74h-47v-69h-82v69h-175v64l168 241h89zM199 231q0 31 3 49h-1q-6 -14 -23 -43l-44 -65q-12 -20 -25 -32v-1q20 3 40 3h50v89z" />
    <glyph glyph-name="five.dnom" horiz-adv-x="340" 
d="M28 103h86q4 -18 16.5 -26.5t36.5 -8.5q60 0 60 58q0 27 -14.5 42t-44.5 15q-36 0 -49 -25h-80l13 216h232v-73h-158l-5 -75q11 12 29.5 19.5t42.5 7.5q54 0 86 -31t32 -94q0 -66 -37.5 -101t-106.5 -35q-66 0 -101 30.5t-38 80.5z" />
    <glyph glyph-name="six.dnom" horiz-adv-x="350" 
d="M327 130q0 -63 -40 -100.5t-109 -37.5q-74 0 -111 38.5t-37 102.5q0 31 11.5 61t32.5 65l67 115h92l-67 -111q6 1 17 1q68 0 106 -32t38 -102zM241 130q0 29 -16 45t-47 16q-30 0 -45.5 -16t-15.5 -45q0 -30 15.5 -46t45.5 -16q31 0 47 16t16 46z" />
    <glyph glyph-name="seven.dnom" horiz-adv-x="301" 
d="M281 315l-143 -315h-96l118 251q13 29 29 52v1q-18 -3 -51 -3h-113v73h256v-59z" />
    <glyph glyph-name="eight.dnom" horiz-adv-x="359" 
d="M32 108q0 30 16 52.5t46 32.5q-50 26 -50 84q0 46 33 76t102 30t102.5 -30t33.5 -76q0 -57 -50 -84q29 -10 45 -32.5t16 -52.5q0 -55 -36.5 -85.5t-110.5 -30.5q-73 0 -110 30.5t-37 85.5zM229 270q0 40 -50 40q-49 0 -49 -40q0 -39 49 -39q50 0 50 39zM240 112
q0 46 -61 46q-60 0 -60 -46q0 -44 60 -44q61 0 61 44z" />
    <glyph glyph-name="nine.dnom" horiz-adv-x="350" 
d="M320 242q0 -31 -11.5 -61.5t-32.5 -64.5l-67 -116h-92l68 111q-6 -1 -18 -1q-67 0 -105 32.5t-38 102.5q0 63 39.5 100t108.5 37q74 0 111 -38t37 -102zM172 184q30 0 45.5 16t15.5 45t-15.5 45.5t-45.5 16.5q-31 0 -46.5 -16.5t-15.5 -45.5t15.5 -45t46.5 -16z" />
    <glyph glyph-name="zero.numr" horiz-adv-x="368" 
d="M33 513q0 96 38 146t113 50t113 -49.5t38 -146.5q0 -195 -151 -195q-75 0 -113 49.5t-38 145.5zM249 513q0 62 -16 91t-49 29t-49 -29t-16 -91t16 -90.5t49 -28.5t49 28.5t16 90.5z" />
    <glyph glyph-name="one.numr" horiz-adv-x="245" 
d="M196 700v-374h-82v231q0 27 4 46h-1q-12 -13 -33 -26l-60 -42v88l107 77h65z" />
    <glyph glyph-name="two.numr" horiz-adv-x="330" 
d="M206 583q0 50 -44 50q-42 0 -45 -47h-86q3 123 131 123q63 0 96.5 -31.5t33.5 -87.5q0 -41 -20 -74.5t-65 -75.5l-21 -21q-13 -11 -29 -21v-1q20 3 42 3h98v-74h-262v63l101 91q37 34 53.5 56t16.5 47z" />
    <glyph glyph-name="three.numr" horiz-adv-x="347" 
d="M25 434h86q4 -22 16.5 -31t39.5 -9q61 0 61 44q0 23 -14.5 34t-46.5 11h-36v73h36q50 0 50 39q0 41 -48 41q-41 0 -45 -31h-86q2 46 34 75t97 29q69 0 101.5 -30t32.5 -74q0 -32 -12 -52t-40 -33q32 -9 48 -33t16 -58q0 -51 -37.5 -81t-110.5 -30q-69 0 -103 30t-39 86z
" />
    <glyph glyph-name="four.numr" horiz-adv-x="352" 
d="M278 700v-231h47v-74h-47v-69h-82v69h-175v64l168 241h89zM199 557q0 31 3 49h-1q-6 -14 -23 -43l-44 -65q-12 -20 -25 -32v-1q20 3 40 3h50v89z" />
    <glyph glyph-name="five.numr" horiz-adv-x="340" 
d="M28 429h86q4 -18 16.5 -26.5t36.5 -8.5q60 0 60 58q0 27 -14.5 42t-44.5 15q-36 0 -49 -25h-80l13 216h232v-73h-158l-5 -75q11 12 29.5 19.5t42.5 7.5q54 0 86 -31t32 -94q0 -66 -37.5 -101t-106.5 -35q-66 0 -101 30.5t-38 80.5z" />
    <glyph glyph-name="six.numr" horiz-adv-x="350" 
d="M327 456q0 -63 -40 -100.5t-109 -37.5q-74 0 -111 38.5t-37 102.5q0 31 11.5 61t32.5 65l67 115h92l-67 -111q6 1 17 1q68 0 106 -32t38 -102zM241 456q0 29 -16 45t-47 16q-30 0 -45.5 -16t-15.5 -45q0 -30 15.5 -46t45.5 -16q31 0 47 16t16 46z" />
    <glyph glyph-name="seven.numr" horiz-adv-x="301" 
d="M281 641l-143 -315h-96l118 251q13 29 29 52v1q-18 -3 -51 -3h-113v73h256v-59z" />
    <glyph glyph-name="eight.numr" horiz-adv-x="359" 
d="M32 434q0 30 16 52.5t46 32.5q-50 26 -50 84q0 46 33 76t102 30t102.5 -30t33.5 -76q0 -57 -50 -84q29 -10 45 -32.5t16 -52.5q0 -55 -36.5 -85.5t-110.5 -30.5q-73 0 -110 30.5t-37 85.5zM229 596q0 40 -50 40q-49 0 -49 -40q0 -39 49 -39q50 0 50 39zM240 438
q0 46 -61 46q-60 0 -60 -46q0 -44 60 -44q61 0 61 44z" />
    <glyph glyph-name="nine.numr" horiz-adv-x="350" 
d="M320 568q0 -31 -11.5 -61.5t-32.5 -64.5l-67 -116h-92l68 111q-6 -1 -18 -1q-67 0 -105 32.5t-38 102.5q0 63 39.5 100t108.5 37q74 0 111 -38t37 -102zM172 510q30 0 45.5 16t15.5 45t-15.5 45.5t-45.5 16.5q-31 0 -46.5 -16.5t-15.5 -45.5t15.5 -45t46.5 -16z" />
    <glyph glyph-name="uni2070" unicode="&#x2070;" horiz-adv-x="368" 
d="M33 613q0 96 38 146t113 50t113 -49.5t38 -146.5q0 -195 -151 -195q-75 0 -113 49.5t-38 145.5zM249 613q0 62 -16 91t-49 29t-49 -29t-16 -91t16 -90.5t49 -28.5t49 28.5t16 90.5z" />
    <glyph glyph-name="uni00B9" unicode="&#xb9;" horiz-adv-x="245" 
d="M196 800v-374h-82v231q0 27 4 46h-1q-12 -13 -33 -26l-60 -42v88l107 77h65z" />
    <glyph glyph-name="uni00B2" unicode="&#xb2;" horiz-adv-x="330" 
d="M205 683q0 50 -44 50q-42 0 -45 -47h-86q3 123 131 123q63 0 96.5 -31.5t33.5 -87.5q0 -41 -20 -74.5t-65 -75.5l-21 -21q-13 -11 -29 -21v-1q20 3 42 3h98v-74h-262v63l101 91q37 34 53.5 56t16.5 47z" />
    <glyph glyph-name="uni00B3" unicode="&#xb3;" horiz-adv-x="347" 
d="M25 534h86q4 -22 16.5 -31t39.5 -9q61 0 61 44q0 23 -14.5 34t-46.5 11h-36v73h36q50 0 50 39q0 41 -48 41q-41 0 -45 -31h-86q2 46 34 75t97 29q69 0 101.5 -30t32.5 -74q0 -32 -12 -52t-40 -33q32 -9 48 -33t16 -58q0 -51 -37.5 -81t-110.5 -30q-69 0 -103 30t-39 86z
" />
    <glyph glyph-name="uni2074" unicode="&#x2074;" horiz-adv-x="352" 
d="M278 800v-231h47v-74h-47v-69h-82v69h-175v64l168 241h89zM199 657q0 31 3 49h-1q-6 -14 -23 -43l-44 -65q-12 -20 -25 -32v-1q20 3 40 3h50v89z" />
    <glyph glyph-name="uni2075" unicode="&#x2075;" horiz-adv-x="340" 
d="M28 529h86q4 -18 16.5 -26.5t36.5 -8.5q60 0 60 58q0 27 -14.5 42t-44.5 15q-36 0 -49 -25h-80l13 216h232v-73h-158l-5 -75q11 12 29.5 19.5t42.5 7.5q54 0 86 -31t32 -94q0 -66 -37.5 -101t-106.5 -35q-66 0 -101 30.5t-38 80.5z" />
    <glyph glyph-name="uni2076" unicode="&#x2076;" horiz-adv-x="350" 
d="M327 556q0 -63 -40 -100.5t-109 -37.5q-74 0 -111 38.5t-37 102.5q0 31 11.5 61t32.5 65l67 115h92l-67 -111q6 1 17 1q68 0 106 -32t38 -102zM241 556q0 29 -16 45t-47 16q-30 0 -45.5 -16t-15.5 -45q0 -30 15.5 -46t45.5 -16q31 0 47 16t16 46z" />
    <glyph glyph-name="uni2077" unicode="&#x2077;" horiz-adv-x="301" 
d="M281 741l-143 -315h-96l118 251q13 29 29 52v1q-18 -3 -51 -3h-113v73h256v-59z" />
    <glyph glyph-name="uni2078" unicode="&#x2078;" horiz-adv-x="359" 
d="M32 534q0 30 16 52.5t46 32.5q-50 26 -50 84q0 46 33 76t102 30t102.5 -30t33.5 -76q0 -57 -50 -84q29 -10 45 -32.5t16 -52.5q0 -55 -36.5 -85.5t-110.5 -30.5q-73 0 -110 30.5t-37 85.5zM229 696q0 40 -50 40q-49 0 -49 -40q0 -39 49 -39q50 0 50 39zM240 538
q0 46 -61 46q-60 0 -60 -46q0 -44 60 -44q61 0 61 44z" />
    <glyph glyph-name="uni2079" unicode="&#x2079;" horiz-adv-x="350" 
d="M320 668q0 -31 -11.5 -61.5t-32.5 -64.5l-67 -116h-92l68 111q-6 -1 -18 -1q-67 0 -105 32.5t-38 102.5q0 63 39.5 100t108.5 37q74 0 111 -38t37 -102zM172 610q30 0 45.5 16t15.5 45t-15.5 45.5t-45.5 16.5q-31 0 -46.5 -16.5t-15.5 -45.5t15.5 -45t46.5 -16z" />
    <glyph glyph-name="fraction" unicode="&#x2044;" horiz-adv-x="168" 
d="M207 700h107l-356 -700h-108z" />
    <glyph glyph-name="onehalf" unicode="&#xbd;" horiz-adv-x="774" 
d="M489 700h107l-356 -700h-108zM222 700v-374h-82v231q0 27 4 46h-1q-12 -13 -33 -26l-60 -42v88l107 77h65zM633 257q0 50 -44 50q-42 0 -45 -47h-86q3 123 131 123q63 0 96.5 -31.5t33.5 -87.5q0 -41 -20 -74.5t-65 -75.5l-21 -21q-13 -11 -29 -21v-1q20 3 42 3h98v-74
h-262v63l101 91q37 34 53.5 56t16.5 47z" />
    <glyph glyph-name="onethird" unicode="&#x2153;" horiz-adv-x="790" 
d="M489 700h107l-356 -700h-108zM222 700v-374h-82v231q0 27 4 46h-1q-12 -13 -33 -26l-60 -42v88l107 77h65zM450 108h86q4 -22 16.5 -31t39.5 -9q61 0 61 44q0 23 -14.5 34t-46.5 11h-36v73h36q50 0 50 39q0 41 -48 41q-41 0 -45 -31h-86q2 46 34 75t97 29q69 0 101.5 -30
t32.5 -74q0 -32 -12 -52t-40 -33q32 -9 48 -33t16 -58q0 -51 -37.5 -81t-110.5 -30q-69 0 -103 30t-39 86z" />
    <glyph glyph-name="twothirds" unicode="&#x2154;" horiz-adv-x="865" 
d="M567 700h107l-356 -700h-108zM525 108h86q4 -22 16.5 -31t39.5 -9q61 0 61 44q0 23 -14.5 34t-46.5 11h-36v73h36q50 0 50 39q0 41 -48 41q-41 0 -45 -31h-86q2 46 34 75t97 29q69 0 101.5 -30t32.5 -74q0 -32 -12 -52t-40 -33q32 -9 48 -33t16 -58q0 -51 -37.5 -81
t-110.5 -30q-69 0 -103 30t-39 86zM225 582q0 50 -44 50q-42 0 -45 -47h-86q3 123 131 123q63 0 96.5 -31.5t33.5 -87.5q0 -41 -20 -74.5t-65 -75.5l-21 -21q-13 -11 -29 -21v-1q20 3 42 3h98v-74h-262v63l101 91q37 34 53.5 56t16.5 47z" />
    <glyph glyph-name="onequarter" unicode="&#xbc;" horiz-adv-x="761" 
d="M489 700h107l-356 -700h-108zM222 700v-374h-82v231q0 27 4 46h-1q-12 -13 -33 -26l-60 -42v88l107 77h65zM665 374v-231h47v-74h-47v-69h-82v69h-175v64l168 241h89zM586 231q0 31 3 49h-1q-6 -14 -23 -43l-44 -65q-12 -20 -25 -32v-1q20 3 40 3h50v89z" />
    <glyph glyph-name="threequarters" unicode="&#xbe;" horiz-adv-x="838" 
d="M565 700h107l-356 -700h-108zM741 374v-231h47v-74h-47v-69h-82v69h-175v64l168 241h89zM662 231q0 31 3 49h-1q-6 -14 -23 -43l-44 -65q-12 -20 -25 -32v-1q20 3 40 3h50v89zM50 433h86q4 -22 16.5 -31t39.5 -9q61 0 61 44q0 23 -14.5 34t-46.5 11h-36v73h36q50 0 50 39
q0 41 -48 41q-41 0 -45 -31h-86q2 46 34 75t97 29q69 0 101.5 -30t32.5 -74q0 -32 -12 -52t-40 -33q32 -9 48 -33t16 -58q0 -51 -37.5 -81t-110.5 -30q-69 0 -103 30t-39 86z" />
    <glyph glyph-name="oneeighth" unicode="&#x215b;" horiz-adv-x="795" 
d="M489 700h107l-356 -700h-108zM222 700v-374h-82v231q0 27 4 46h-1q-12 -13 -33 -26l-60 -42v88l107 77h65zM450 108q0 30 16 52.5t46 32.5q-50 26 -50 84q0 46 33 76t102 30t102.5 -30t33.5 -76q0 -57 -50 -84q29 -10 45 -32.5t16 -52.5q0 -55 -36.5 -85.5t-110.5 -30.5
q-73 0 -110 30.5t-37 85.5zM647 270q0 40 -50 40q-49 0 -49 -40q0 -39 49 -39q50 0 50 39zM658 112q0 46 -61 46q-60 0 -60 -46q0 -44 60 -44q61 0 61 44z" />
    <glyph glyph-name="threeeighths" unicode="&#x215c;" horiz-adv-x="873" 
d="M565 700h107l-356 -700h-108zM50 433h86q4 -22 16.5 -31t39.5 -9q61 0 61 44q0 23 -14.5 34t-46.5 11h-36v73h36q50 0 50 39q0 41 -48 41q-41 0 -45 -31h-86q2 46 34 75t97 29q69 0 101.5 -30t32.5 -74q0 -32 -12 -52t-40 -33q32 -9 48 -33t16 -58q0 -51 -37.5 -81
t-110.5 -30q-69 0 -103 30t-39 86zM528 108q0 30 16 52.5t46 32.5q-50 26 -50 84q0 46 33 76t102 30t102.5 -30t33.5 -76q0 -57 -50 -84q29 -10 45 -32.5t16 -52.5q0 -55 -36.5 -85.5t-110.5 -30.5q-73 0 -110 30.5t-37 85.5zM725 270q0 40 -50 40q-49 0 -49 -40
q0 -39 49 -39q50 0 50 39zM736 112q0 46 -61 46q-60 0 -60 -46q0 -44 60 -44q61 0 61 44z" />
    <glyph glyph-name="fiveeighths" unicode="&#x215d;" horiz-adv-x="859" 
d="M551 700h107l-356 -700h-108zM515 108q0 30 16 52.5t46 32.5q-50 26 -50 84q0 46 33 76t102 30t102.5 -30t33.5 -76q0 -57 -50 -84q29 -10 45 -32.5t16 -52.5q0 -55 -36.5 -85.5t-110.5 -30.5q-73 0 -110 30.5t-37 85.5zM712 270q0 40 -50 40q-49 0 -49 -40q0 -39 49 -39
q50 0 50 39zM723 112q0 46 -61 46q-60 0 -60 -46q0 -44 60 -44q61 0 61 44zM50 429h86q4 -18 16.5 -26.5t36.5 -8.5q60 0 60 58q0 27 -14.5 42t-44.5 15q-36 0 -49 -25h-80l13 216h232v-73h-158l-5 -75q11 12 29.5 19.5t42.5 7.5q54 0 86 -31t32 -94q0 -66 -37.5 -101
t-106.5 -35q-66 0 -101 30.5t-38 80.5z" />
    <glyph glyph-name="seveneighths" unicode="&#x215e;" horiz-adv-x="805" 
d="M498 700h107l-356 -700h-108zM461 108q0 30 16 52.5t46 32.5q-50 26 -50 84q0 46 33 76t102 30t102.5 -30t33.5 -76q0 -57 -50 -84q29 -10 45 -32.5t16 -52.5q0 -55 -36.5 -85.5t-110.5 -30.5q-73 0 -110 30.5t-37 85.5zM658 270q0 40 -50 40q-49 0 -49 -40q0 -39 49 -39
q50 0 50 39zM669 112q0 46 -61 46q-60 0 -60 -46q0 -44 60 -44q61 0 61 44zM306 641l-143 -315h-96l118 251q13 29 29 52v1q-18 -3 -51 -3h-113v73h256v-59z" />
    <glyph glyph-name="uni2080.aalt" horiz-adv-x="368" 
d="M335 38q0 -97 -38 -146.5t-113 -49.5t-113 50t-38 146t38 145.5t113 49.5q151 0 151 -195zM119 38q0 -26 3 -47l100 152q-14 14 -38 14q-33 0 -49 -28.5t-16 -90.5zM249 38q0 18 -2 44l-99 -152q14 -12 36 -12q33 0 49 29t16 91z" />
    <glyph glyph-name="zero.dnom.zero" horiz-adv-x="368" 
d="M335 187q0 -97 -38 -146.5t-113 -49.5t-113 50t-38 146t38 145.5t113 49.5q151 0 151 -195zM119 187q0 -26 3 -47l100 152q-14 14 -38 14q-33 0 -49 -28.5t-16 -90.5zM249 187q0 18 -2 44l-99 -152q14 -12 36 -12q33 0 49 29t16 91z" />
    <glyph glyph-name="zero.numr.zero" horiz-adv-x="368" 
d="M335 513q0 -97 -38 -146.5t-113 -49.5t-113 50t-38 146t38 145.5t113 49.5q151 0 151 -195zM119 513q0 -26 3 -47l100 152q-14 14 -38 14q-33 0 -49 -28.5t-16 -90.5zM249 513q0 18 -2 44l-99 -152q14 -12 36 -12q33 0 49 29t16 91z" />
    <glyph glyph-name="uni2070.aalt" horiz-adv-x="368" 
d="M335 613q0 -97 -38 -146.5t-113 -49.5t-113 50t-38 146t38 145.5t113 49.5q151 0 151 -195zM119 613q0 -26 3 -47l100 152q-14 14 -38 14q-33 0 -49 -28.5t-16 -90.5zM249 613q0 18 -2 44l-99 -152q14 -12 36 -12q33 0 49 29t16 91z" />
    <glyph glyph-name="asterisk" unicode="*" horiz-adv-x="432" 
d="M80 403l80 100l-124 28l25 86l120 -46l-11 129h92l-11 -129l120 46l25 -86l-124 -28l80 -100l-69 -48l-67 108l-67 -108z" />
    <glyph glyph-name="backslash" unicode="\" horiz-adv-x="447" 
d="M25 700h113l285 -700h-113z" />
    <glyph glyph-name="periodcentered" unicode="&#xb7;" horiz-adv-x="265" 
d="M205 363v-144h-144v144h144z" />
    <glyph glyph-name="bullet" unicode="&#x2022;" horiz-adv-x="396" 
d="M71 302q0 54 35 90t92 36t92 -36t35 -90q0 -56 -34.5 -92t-92.5 -36t-92.5 36t-34.5 92z" />
    <glyph glyph-name="colon" unicode=":" horiz-adv-x="265" 
d="M205 492v-144h-144v144h144zM205 144v-144h-144v144h144z" />
    <glyph glyph-name="comma" unicode="," horiz-adv-x="266" 
d="M126 -177h-75l77 177h-67v144h144v-133z" />
    <glyph glyph-name="ellipsis" unicode="&#x2026;" horiz-adv-x="706" 
d="M205 144v-144h-144v144h144zM424 144v-144h-144v144h144zM645 144v-144h-144v144h144z" />
    <glyph glyph-name="exclam" unicode="!" horiz-adv-x="269" 
d="M74 554v146h121v-146l-25 -330h-71zM206 144v-144h-143v144h143z" />
    <glyph glyph-name="exclamdown" unicode="&#xa1;" horiz-adv-x="255" 
d="M188 -62v-146h-121v146l25 330h71zM56 348v144h143v-144h-143z" />
    <glyph glyph-name="numbersign" unicode="#" horiz-adv-x="657" 
d="M515 436l-39 -171h92l-23 -93h-90l-40 -172h-101l40 172h-133l-40 -172h-101l40 172h-91l22 93h90l40 171h-93l23 92h91l40 172h100l-40 -172h134l40 172h100l-40 -172h92l-23 -92h-90zM415 436h-134l-39 -171h133z" />
    <glyph glyph-name="period" unicode="." horiz-adv-x="265" 
d="M205 144v-144h-144v144h144z" />
    <glyph glyph-name="question" unicode="?" horiz-adv-x="506" 
d="M250 714q101 0 161 -52t60 -144q0 -67 -24 -104.5t-69 -64.5l-43 -24q-49 -28 -49 -70v-34h-108v49q0 49 18.5 77.5t59.5 53.5l40 23q31 18 42.5 39t11.5 57q0 40 -25.5 63.5t-74.5 23.5q-47 0 -73.5 -20t-32.5 -67h-115q8 91 62 142.5t159 51.5zM303 144v-144h-143v144
h143z" />
    <glyph glyph-name="questiondown" unicode="&#xbf;" horiz-adv-x="500" 
d="M253 -222q-101 0 -161 52t-60 144q0 67 24 104.5t69 64.5l43 24q49 28 49 70v34h108v-49q0 -49 -18.5 -77.5t-59.5 -53.5l-40 -23q-31 -18 -42.5 -39t-11.5 -57q0 -40 25.5 -63.5t74.5 -23.5q47 0 73.5 20t32.5 67h115q-8 -91 -62 -142.5t-159 -51.5zM200 348v144h143
v-144h-143z" />
    <glyph glyph-name="quotedbl" unicode="&#x22;" horiz-adv-x="420" 
d="M62 700h107v-269h-107v269zM251 700h107v-269h-107v269z" />
    <glyph glyph-name="quotesingle" unicode="'" horiz-adv-x="232" 
d="M62 700h107v-269h-107v269z" />
    <glyph glyph-name="semicolon" unicode=";" horiz-adv-x="275" 
d="M211 492v-144h-144v144h144zM132 -177h-75l77 177h-67v144h144v-133z" />
    <glyph glyph-name="slash" unicode="/" horiz-adv-x="447" 
d="M24 0l285 700h113l-285 -700h-113z" />
    <glyph glyph-name="underscore" unicode="_" horiz-adv-x="330" 
d="M0 -60h330v-86h-330v86z" />
    <glyph glyph-name="backslash.aalt" horiz-adv-x="447" 
d="M24 700h113l285 -700h-113z" />
    <glyph glyph-name="bullet.aalt" horiz-adv-x="394" 
d="M71 332q0 54 35 90t92 36t92 -36t35 -90q0 -56 -34.5 -92t-92.5 -36t-92.5 36t-34.5 92z" />
    <glyph glyph-name="colon.aalt" horiz-adv-x="282" 
d="M213 597v-144h-144v144h144zM213 249v-144h-144v144h144z" />
    <glyph glyph-name="exclamdown.aalt" horiz-adv-x="277" 
d="M199 146v-146h-121v146l25 330h71zM67 556v144h143v-144h-143z" />
    <glyph glyph-name="numbersign.aalt" horiz-adv-x="657" 
d="M515 436l-39 -171h92l-23 -93h-90l-40 -172h-101l40 172h-133l-40 -172h-101l40 172h-91l22 93h90l40 171h-93l23 92h91l40 172h100l-40 -172h134l40 172h100l-40 -172h92l-23 -92h-90zM415 436h-134l-39 -171h133z" />
    <glyph glyph-name="questiondown.aalt" horiz-adv-x="506" 
d="M256 -14q-101 0 -161 52t-60 144q0 67 24 104.5t69 64.5l43 24q49 28 49 70v34h108v-49q0 -49 -18.5 -77.5t-59.5 -53.5l-40 -23q-31 -18 -42.5 -39t-11.5 -57q0 -40 25.5 -63.5t74.5 -23.5q47 0 73.5 20t32.5 67h115q-8 -91 -62 -142.5t-159 -51.5zM203 556v144h143
v-144h-143z" />
    <glyph glyph-name="slash.case" horiz-adv-x="447" 
d="M24 0l285 700h113l-285 -700h-113z" />
    <glyph glyph-name="braceleft" unicode="{" horiz-adv-x="314" 
d="M205 129v-142q0 -48 15.5 -67.5t56.5 -21.5v-89q-90 1 -128.5 42.5t-38.5 135.5v142q0 43 -16 62t-42 19h-35v94h35q26 0 42 19.5t16 61.5v143q0 93 38.5 134.5t128.5 43.5v-90q-41 -2 -56.5 -21t-15.5 -67v-143q0 -53 -18.5 -86t-50.5 -42q32 -9 50.5 -41.5t18.5 -86.5z
" />
    <glyph glyph-name="braceright" unicode="}" horiz-adv-x="313" 
d="M109 387v142q0 48 -15.5 67.5t-56.5 21.5v89q90 -1 128.5 -42.5t38.5 -135.5v-142q0 -43 16 -62t42 -19h35v-94h-35q-26 0 -42 -19.5t-16 -61.5v-143q0 -93 -38.5 -134.5t-128.5 -43.5v90q41 2 56.5 21t15.5 67v143q0 53 18.5 86t50.5 42q-32 9 -50.5 41.5t-18.5 86.5z
" />
    <glyph glyph-name="bracketleft" unicode="[" horiz-adv-x="306" 
d="M77 700h201v-88h-105v-712h105v-88h-201v888z" />
    <glyph glyph-name="bracketright" unicode="]" horiz-adv-x="306" 
d="M229 -187h-201v88h105v712h-105v88h201v-888z" />
    <glyph glyph-name="parenleft" unicode="(" horiz-adv-x="318" 
d="M293 704v-89q-47 -3 -76.5 -27.5t-46.5 -102t-17 -230.5q0 -155 17 -232.5t46 -101t77 -27.5v-89q-81 3 -132 33t-81.5 127t-30.5 290q0 191 31 288t82 128t131 33z" />
    <glyph glyph-name="parenright" unicode=")" horiz-adv-x="318" 
d="M25 704q80 -2 131 -33t82 -128t31 -288q0 -193 -30.5 -290t-81.5 -127t-132 -33v89q48 4 77 27.5t46 101t17 232.5q0 153 -17 230.5t-46.5 102t-76.5 27.5v89v0z" />
    <glyph glyph-name="braceleft.aalt" horiz-adv-x="321" 
d="M210 225v-142q0 -48 15.5 -67.5t56.5 -21.5v-89q-90 1 -128.5 42.5t-38.5 135.5v142q0 43 -16 62t-42 19h-35v94h35q26 0 42 19.5t16 61.5v143q0 93 38.5 134.5t128.5 43.5v-90q-41 -2 -56.5 -21t-15.5 -67v-143q0 -53 -18.5 -86t-50.5 -42q32 -9 50.5 -41.5t18.5 -86.5z
" />
    <glyph glyph-name="braceright.aalt" horiz-adv-x="321" 
d="M110.993 480.971v141.991q0 47.9971 -15.499 67.4961t-56.4961 21.499v88.9941q89.9941 -1 128.492 -42.4971q38.4971 -41.498 38.4971 -135.492v-141.991q0 -42.9971 15.999 -61.9961t41.998 -18.999h34.9971v-93.9941h-34.9971q-25.999 0 -41.998 -19.499
t-15.999 -61.4961v-142.991q0 -92.9941 -38.4971 -134.492q-38.498 -41.4971 -128.492 -43.4971v89.9941q40.9971 2 56.4961 20.999t15.499 66.9961v142.991q0 52.9971 18.499 85.9951q18.499 32.9971 50.4971 41.9971q-31.998 8.99902 -50.4971 41.4971t-18.499 86.4951z
" />
    <glyph glyph-name="bracketleft.aalt" horiz-adv-x="310" 
d="M80 798h201v-88h-105v-712h105v-88h-201v888z" />
    <glyph glyph-name="bracketright.aalt" horiz-adv-x="310" 
d="M230.986 -88.9941h-200.988v87.9941h104.994v711.957h-104.994v87.9941h200.988v-887.945z" />
    <glyph glyph-name="parenleft.aalt" horiz-adv-x="323" 
d="M296 802v-89q-47 -3 -76.5 -27.5t-46.5 -102t-17 -230.5q0 -155 17 -232.5t46 -101t77 -27.5v-89q-81 3 -132 33t-81.5 127t-30.5 290q0 191 31 288t82 128t131 33z" />
    <glyph glyph-name="parenright.aalt" horiz-adv-x="323" 
d="M26.998 802v-89q46.9971 -3 76.4961 -27.5q29.498 -24.5 46.4971 -102t16.999 -230.5q0 -155 -16.999 -232.5t-45.9971 -101q-28.999 -23.5 -76.9961 -27.5v-89q80.9951 3 131.992 33t81.4951 127t30.498 290q0 191 -30.998 288t-81.9951 128t-130.992 33z" />
    <glyph glyph-name="emdash" unicode="&#x2014;" horiz-adv-x="817" 
d="M756 328v-92h-695v92h695z" />
    <glyph glyph-name="endash" unicode="&#x2013;" horiz-adv-x="538" 
d="M61 328h416v-92h-416v92z" />
    <glyph glyph-name="hyphen" unicode="-" horiz-adv-x="412" 
d="M61 328h290v-92h-290v92z" />
    <glyph glyph-name="uni00AD" unicode="&#xad;" horiz-adv-x="412" 
d="M61 328h290v-92h-290v92z" />
    <glyph glyph-name="emdash.aalt" horiz-adv-x="821" 
d="M758 399v-92h-695v92h695z" />
    <glyph glyph-name="endash.aalt" horiz-adv-x="542" 
d="M63 399h416v-92h-416v92z" />
    <glyph glyph-name="hyphen.aalt" horiz-adv-x="417" 
d="M63 398h290v-92h-290v92z" />
    <glyph glyph-name="uni00AD.aalt" horiz-adv-x="417" 
d="M63 398h290v-92h-290v92z" />
    <glyph glyph-name="guillemotleft" unicode="&#xab;" horiz-adv-x="526" 
d="M159 477h110l-120 -194l120 -194h-110l-127 194zM375 477h110l-120 -194l120 -194h-110l-127 194z" />
    <glyph glyph-name="guillemotright" unicode="&#xbb;" horiz-adv-x="526" 
d="M151 89h-110l120 194l-120 194h110l127 -194zM367 89h-110l120 194l-120 194h110l127 -194z" />
    <glyph glyph-name="guilsinglleft" unicode="&#x2039;" horiz-adv-x="310" 
d="M32 283l127 194h110l-120 -194l120 -194h-110z" />
    <glyph glyph-name="guilsinglright" unicode="&#x203a;" horiz-adv-x="310" 
d="M151 89h-110l120 194l-120 194h110l127 -194z" />
    <glyph glyph-name="quotedblbase" unicode="&#x201e;" horiz-adv-x="469" 
d="M126 -177h-75l77 177h-67v144h144v-133zM329 -177h-75l78 177h-68v144h144v-133z" />
    <glyph glyph-name="quotedblleft" unicode="&#x201c;" horiz-adv-x="461" 
d="M131 700h75l-78 -177h68v-144h-144v133zM334 700h75l-77 -177h67v-144h-143v133z" />
    <glyph glyph-name="quotedblright" unicode="&#x201d;" horiz-adv-x="453" 
d="M128 379h-74l77 177h-67v144h143v-133zM332 379h-75l77 177h-67v144h144v-133z" />
    <glyph glyph-name="quoteleft" unicode="&#x2018;" horiz-adv-x="257" 
d="M131 700h75l-77 -177h67v-144h-144v133z" />
    <glyph glyph-name="quoteright" unicode="&#x2019;" horiz-adv-x="250" 
d="M129 379h-75l77 177h-67v144h144v-133z" />
    <glyph glyph-name="quotesinglbase" unicode="&#x201a;" horiz-adv-x="266" 
d="M126 -177h-75l77 177h-67v144h144v-133z" />
    <glyph glyph-name="guillemotleft.aalt" horiz-adv-x="544" 
d="M165 547h110l-120 -194l120 -194h-110l-127 194zM381 547h110l-120 -194l120 -194h-110l-127 194z" />
    <glyph glyph-name="guillemotright.aalt" horiz-adv-x="544" 
d="M163 159h-110l121 194l-121 194h110l127 -194zM379 159h-110l121 194l-121 194h110l127 -194z" />
    <glyph glyph-name="guilsinglleft.aalt" horiz-adv-x="328" 
d="M38 353l127 194h110l-120 -194l120 -194h-110z" />
    <glyph glyph-name="guilsinglright.aalt" horiz-adv-x="328" 
d="M163 159h-110l120 194l-120 194h110l127 -194z" />
    <glyph glyph-name="uni00A0" unicode="&#xa0;" horiz-adv-x="227" 
 />
    <glyph glyph-name="uniEA00" unicode="&#xea00;" horiz-adv-x="813" 
d="M783 243h-102v-243h-120v315q0 91 7 177h-2q-19 -78 -49 -171l-109 -321h-85l-108 321q-12 37 -25 80t-24 91h-2q7 -86 7 -177v-315h-120v243h-102v93h102v364h143l131 -377q26 -78 40 -155h2q11 70 40 155l131 377h143v-364h102v-93z" />
    <glyph glyph-name="cent" unicode="&#xa2;" horiz-adv-x="527" 
d="M377 254h111q-12 -79 -65.5 -123.5t-150.5 -44.5q-31 0 -52 4l-39 -97l-89 34l39 98q-88 64 -88 221q0 121 55.5 190.5t173.5 69.5q24 0 47 -3l37 94l89 -34l-36 -91q65 -43 79 -134h-111q-9 35 -34.5 51.5t-70.5 16.5q-59 0 -87.5 -41t-28.5 -119q0 -159 116 -159
q45 0 70.5 16.5t34.5 50.5z" />
    <glyph glyph-name="currency" unicode="&#xa4;" horiz-adv-x="527" 
d="M45 111l59 66q-23 49 -23 105t23 104l-59 67l67 67l59 -66q41 25 92 25q53 0 92 -25l59 66l68 -67l-59 -67q23 -48 23 -104t-23 -105l59 -66l-68 -67l-59 67q-37 -25 -92 -25q-54 0 -91 25l-60 -67zM346 282q0 48 -21.5 75t-61.5 27q-39 0 -60.5 -27t-21.5 -75
q0 -47 21.5 -74.5t60.5 -27.5q40 0 61.5 27.5t21.5 74.5z" />
    <glyph glyph-name="dollar" unicode="$" horiz-adv-x="591" 
d="M350 -10v-106h-99v103q-105 9 -157.5 62t-61.5 146h120q8 -55 39 -78.5t99 -23.5q143 0 143 101q0 42 -24.5 67t-86.5 35l-91 14q-87 13 -130 61.5t-43 137.5q0 81 48.5 135.5t144.5 66.5v92h99v-91q87 -10 134 -55.5t58 -128.5h-119q-9 43 -36.5 62t-85.5 19
q-64 0 -94.5 -25t-30.5 -65q0 -43 20 -64.5t72 -29.5l91 -14q97 -15 145.5 -65.5t48.5 -145.5q0 -90 -52 -144t-151 -66z" />
    <glyph glyph-name="Euro" unicode="&#x20ac;" horiz-adv-x="656" 
d="M499 193h116q-18 -107 -83 -157t-167 -50q-116 0 -180 64t-84 180h-65v81h57q-1 13 -1 39q0 24 1 36h-57v81h65q19 117 83 182t181 65q103 0 167.5 -48t82.5 -159h-116q-12 56 -45.5 79t-88.5 23q-58 0 -92 -36t-48 -106h163v-81h-172q-1 -12 -1 -36q0 -26 1 -39h172v-81
h-163q15 -69 49 -104t91 -35q55 0 88.5 23t45.5 79z" />
    <glyph glyph-name="florin" unicode="&#x192;" horiz-adv-x="466" 
d="M436 312h-144l-20 -153q-13 -82 -50.5 -126.5t-114.5 -44.5q-38 0 -64 3v102q21 -3 42 -3q57 0 67 75l20 147h-122v94h135l18 134q11 81 48 126.5t114 45.5q39 0 64 -3v-102q-19 3 -42 3q-28 0 -44 -18t-21 -57l-17 -129h131v-94z" />
    <glyph glyph-name="uni20B4" unicode="&#x20b4;" horiz-adv-x="610" 
d="M475 389l-126 -74h216v-81h-347q-20 -21 -20 -58q0 -38 25 -61.5t88 -23.5q54 0 80 18t34 62h123q-16 -96 -72.5 -140.5t-164.5 -44.5q-120 0 -179.5 46t-59.5 130q0 39 14 72h-39v81h118l123 74h-241v81h351q11 20 11 49q0 43 -28 67t-80 24q-50 0 -76 -18t-34 -57h-123
q12 93 73.5 136t159.5 43q110 0 171 -51t61 -135q0 -31 -8 -58h40v-81h-90z" />
    <glyph glyph-name="lira" unicode="&#x20a4;" horiz-adv-x="568" 
d="M207 102h313v-102h-449v92q58 53 65 112h-85v81h79q-4 21 -12 42l-9 33h-58v81h39q-4 21 -4 51q0 65 26.5 115.5t76.5 78.5t119 28q205 0 220 -207h-112q-5 53 -32 77.5t-77 24.5q-48 0 -76 -32t-28 -88q0 -25 3 -48h212v-81h-193q16 -58 19 -75h174v-81h-168
q-7 -64 -43 -102z" />
    <glyph glyph-name="uni20BA" unicode="&#x20ba;" horiz-adv-x="586" 
d="M559 300q-13 -141 -92.5 -220.5t-232.5 -79.5h-120v234l-57 -28v86l57 28v75l-57 -28v85l57 28v220h120v-160l130 64v-86l-130 -64v-75l130 64v-86l-130 -64v-186q91 1 145.5 49.5t64.5 143.5h115z" />
    <glyph glyph-name="peseta" unicode="&#x20a7;" horiz-adv-x="591" 
d="M563 431h-48q-11 -90 -66.5 -139.5t-148.5 -49.5h-82v-242h-120v431h-51v84h51v185h202q94 0 149 -47t66 -138h48v-84zM218 515h170q-8 42 -33.5 62.5t-70.5 20.5h-66v-83zM389 431h-171v-87h66q47 0 72.5 21t32.5 66z" />
    <glyph glyph-name="uni20BD" unicode="&#x20bd;" horiz-adv-x="588" 
d="M237 210h155v-88h-155v-122h-120v122h-65v88h65v73h-65v101h65v316h234q101 0 154 -55t53 -153q0 -94 -53.5 -151.5t-153.5 -57.5h-114v-73zM237 384h98q98 0 98 110q0 50 -24.5 77t-73.5 27h-98v-214z" />
    <glyph glyph-name="uni20B9" unicode="&#x20b9;" horiz-adv-x="577" 
d="M541 612h-123q38 -31 52 -84h71v-85h-65q-6 -78 -54.5 -126.5t-152.5 -48.5h-41l256 -268h-162l-253 275v88h169q50 0 76.5 20t34.5 60h-280v85h279q-8 40 -33.5 59t-73.5 19h-172v94h472v-88z" />
    <glyph glyph-name="sterling" unicode="&#xa3;" horiz-adv-x="570" 
d="M208 102h313v-102h-449v92q37 34 52 66t15 67q0 27 -6 54h-95v82h72q-11 38 -17 68t-6 63q0 65 26.5 115.5t76.5 78.5t119 28q205 0 220 -207h-117q-4 54 -29 78t-75 24q-48 0 -76 -32t-28 -88q0 -31 5.5 -60t16.5 -68h187v-82h-165q5 -28 5 -51q0 -36 -11.5 -69.5
t-33.5 -56.5z" />
    <glyph glyph-name="uni20B8" unicode="&#x20b8;" horiz-adv-x="575" 
d="M38 700h498v-101h-498v101zM38 415v101h498v-101h-189v-415h-120v415h-189z" />
    <glyph glyph-name="uni20AE" unicode="&#x20ae;" horiz-adv-x="553" 
d="M339 593v-124l105 44v-85l-105 -45v-75l105 45v-86l-105 -45v-222h-120v171l-115 -49v86l115 49v75l-115 -49v86l115 49v175h-186v107h492v-107h-186z" />
    <glyph glyph-name="yen" unicode="&#xa5;" horiz-adv-x="620" 
d="M410 356h121v-80h-160v-76h160v-81h-160v-119h-120v119h-162v81h162v76h-162v80h121l-183 344h138l102 -201q22 -48 42 -116h2q20 65 43 116l101 201h138z" />
    <glyph glyph-name="cent.aalt" 
d="M404 254h111q-12 -79 -65.5 -123.5t-150.5 -44.5q-31 0 -52 4l-39 -97l-89 34l39 98q-88 64 -88 221q0 121 55.5 190.5t173.5 69.5q24 0 47 -3l37 94l89 -34l-36 -91q65 -43 79 -134h-111q-9 35 -34.5 51.5t-70.5 16.5q-59 0 -87.5 -41t-28.5 -119q0 -159 116 -159
q45 0 70.5 16.5t34.5 50.5z" />
    <glyph glyph-name="dollar.aalt" 
d="M343.673 -10v-106h-96.9326v103q-102.809 9 -154.213 62t-60.2158 146h117.495q7.83301 -55 38.1855 -78.5t96.9336 -23.5q140.015 0 140.015 101q0 42 -23.9883 67t-84.6943 35l-89.1006 14q-85.1836 13 -127.286 61.5t-42.1025 137.5q0 81 47.4873 135.5
q47.4883 54.5 141.484 66.5v92h96.9326v-91q85.1846 -10 131.203 -55.5t56.7891 -128.5h-116.516q-8.8125 43 -35.7383 62t-83.7148 19q-62.6641 0 -92.5273 -25t-29.8633 -65q0 -43 19.582 -64.5q19.583 -21.5 70.4971 -29.5l89.1006 -14q94.9756 -15 142.463 -65.5
t47.4873 -145.5q0 -90 -50.9141 -144q-50.915 -54 -147.849 -66z" />
    <glyph glyph-name="Euro.aalt" 
d="M442 193h115q-10 -99 -68 -153t-160 -54q-207 0 -244 244h-64v81h57q-1 13 -1 39q0 24 1 36h-57v81h64q36 247 244 247q102 0 160 -54t68 -153h-115q-15 97 -112 97q-51 0 -80.5 -31.5t-41.5 -105.5h153v-81h-160q-1 -11 -1 -36q0 -27 1 -39h160v-81h-153
q12 -72 41.5 -103t80.5 -31q97 0 112 97z" />
    <glyph glyph-name="uni20B4.aalt" 
d="M460 389l-126 -74h216v-81h-347q-20 -21 -20 -58q0 -38 25 -61.5t88 -23.5q54 0 80 18t34 62h123q-16 -96 -72.5 -140.5t-164.5 -44.5q-120 0 -179.5 46t-59.5 130q0 39 14 72h-39v81h118l123 74h-241v81h351q11 20 11 49q0 43 -28 67t-80 24q-50 0 -76 -18t-34 -57h-123
q12 93 73.5 136t159.5 43q110 0 171 -51t61 -135q0 -31 -8 -58h40v-81h-90z" />
    <glyph glyph-name="lira.aalt" 
d="M214 102h313v-102h-449v92q58 53 65 112h-85v81h79q-4 21 -12 42l-9 33h-58v81h39q-4 21 -4 51q0 65 26.5 115.5t76.5 78.5t119 28q205 0 220 -207h-112q-5 53 -32 77.5t-77 24.5q-48 0 -76 -32t-28 -88q0 -25 3 -48h212v-81h-193q16 -58 19 -75h174v-81h-168
q-7 -64 -43 -102z" />
    <glyph glyph-name="uni20BA.aalt" 
d="M558 300q-13 -141 -92.5 -220.5t-232.5 -79.5h-120v234l-57 -28v86l57 28v75l-57 -28v85l57 28v220h120v-160l130 64v-86l-130 -64v-75l130 64v-86l-130 -64v-186q91 1 145.5 49.5t64.5 143.5h115z" />
    <glyph glyph-name="peseta.aalt" 
d="M560 431h-48q-11 -90 -66.5 -139.5t-148.5 -49.5h-82v-242h-120v431h-51v84h51v185h202q94 0 149 -47t66 -138h48v-84zM215 515h170q-8 42 -33.5 62.5t-70.5 20.5h-66v-83zM386 431h-171v-87h66q47 0 72.5 21t32.5 66z" />
    <glyph glyph-name="uni20BD.aalt" 
d="M235 210h155v-88h-155v-122h-120v122h-65v88h65v73h-65v101h65v316h234q101 0 154 -55t53 -153q0 -94 -53.5 -151.5t-153.5 -57.5h-114v-73zM235 384h98q98 0 98 110q0 50 -24.5 77t-73.5 27h-98v-214z" />
    <glyph glyph-name="uni20B9.aalt" 
d="M544 612h-123q38 -31 52 -84h71v-85h-65q-6 -78 -54.5 -126.5t-152.5 -48.5h-41l256 -268h-162l-253 275v88h169q50 0 76.5 20t34.5 60h-280v85h279q-8 40 -33.5 59t-73.5 19h-172v94h472v-88z" />
    <glyph glyph-name="sterling.aalt" 
d="M214 102h313v-102h-449v92q37 34 52 66t15 67q0 27 -6 54h-95v82h72q-11 38 -17 68t-6 63q0 65 26.5 115.5t76.5 78.5t119 28q205 0 220 -207h-117q-4 54 -29 78t-75 24q-48 0 -76 -32t-28 -88q0 -31 5.5 -60t16.5 -68h187v-82h-165q5 -28 5 -51q0 -36 -11.5 -69.5
t-33.5 -56.5z" />
    <glyph glyph-name="uni20B8.aalt" 
d="M42 700h498v-101h-498v101zM42 415v101h498v-101h-189v-415h-120v415h-189z" />
    <glyph glyph-name="uni20AE.aalt" 
d="M354 593v-124l105 44v-85l-105 -45v-75l105 45v-86l-105 -45v-222h-120v171l-115 -49v86l115 49v75l-115 -49v86l115 49v175h-186v107h492v-107h-186z" />
    <glyph glyph-name="yen.aalt" 
d="M392 356h121v-80h-160v-76h160v-81h-160v-119h-120v119h-162v81h162v76h-162v80h121l-183 344h138l102 -201q22 -48 42 -116h2q20 65 43 116l101 201h138z" />
    <glyph glyph-name="uni2219" unicode="&#x2219;" horiz-adv-x="351" 
d="M248 363v-144h-144v144h144z" />
    <glyph glyph-name="uni2215" unicode="&#x2215;" horiz-adv-x="169" 
d="M205 700h107l-356 -700h-108z" />
    <glyph glyph-name="plus" unicode="+" 
d="M77 241v93h167v191h94v-191h167v-93h-167v-191h-94v191h-167z" />
    <glyph glyph-name="minus" unicode="&#x2212;" 
d="M77 334h428v-93h-428v93z" />
    <glyph glyph-name="multiply" unicode="&#xd7;" 
d="M108 405l66 67l117 -118l121 121l67 -66l-121 -121l118 -119l-66 -66l-118 118l-121 -121l-67 67l121 121z" />
    <glyph glyph-name="divide" unicode="&#xf7;" 
d="M229 554h125v-131h-125v131zM77 333h428v-93h-428v93zM228 150h125v-131h-125v131z" />
    <glyph glyph-name="equal" unicode="=" 
d="M505 453v-93h-428v93h428zM505 214v-93h-428v93h428z" />
    <glyph glyph-name="notequal" unicode="&#x2260;" 
d="M363 360l-64 -146h206v-93h-246l-53 -121h-80l53 121h-102v93h142l64 146h-206v93h246l53 122h81l-53 -122h101v-93h-142z" />
    <glyph glyph-name="greater" unicode="&#x3e;" 
d="M77 48v100l209 94q77 33 133 45v2q-56 11 -133 44l-209 94v100l428 -188v-103z" />
    <glyph glyph-name="less" unicode="&#x3c;" 
d="M77 236v103l428 188v-100l-209 -94q-77 -33 -133 -44v-2q56 -12 133 -45l209 -94v-100z" />
    <glyph glyph-name="greaterequal" unicode="&#x2265;" 
d="M77 184v101l201 75q43 15 72.5 23.5t64.5 14.5v3q-57 10 -137 39l-201 76v100l428 -165v-106zM505 35h-428v94h428v-94z" />
    <glyph glyph-name="lessequal" unicode="&#x2264;" 
d="M77 345v106l428 165v-100l-201 -76q-80 -29 -137 -39v-3q35 -6 64.5 -14.5t72.5 -23.5l201 -75v-101zM77 129h428v-94h-428v94z" />
    <glyph glyph-name="plusminus" unicode="&#xb1;" 
d="M77 351v93h167v170h92v-170h169v-93h-169v-149h-92v149h-167zM505 129v-94h-428v94h428z" />
    <glyph glyph-name="approxequal" unicode="&#x2248;" 
d="M281 363q-27 13 -41.5 18.5t-29.5 5.5q-20 0 -30 -11.5t-13 -33.5h-92q5 71 40 107t90 36q25 0 47 -8t50 -23q25 -13 40.5 -19t30.5 -6q37 0 44 46h91q-5 -71 -40 -107t-90 -36q-25 0 -47 8t-50 23zM281 126q-27 13 -41.5 18.5t-29.5 5.5q-20 0 -30 -11.5t-13 -33.5h-92
q5 71 40 107t90 36q25 0 47 -8t50 -23q27 -13 41.5 -18.5t29.5 -5.5q37 0 44 46h91q-5 -72 -40 -108t-90 -36q-25 0 -47 8t-50 23z" />
    <glyph glyph-name="asciitilde" unicode="~" 
d="M282 233q-25 13 -40.5 19t-31.5 6q-20 0 -29.5 -12t-12.5 -34h-92q5 72 40 107.5t90 35.5q25 0 46 -7.5t51 -23.5q25 -12 40 -18t31 -6q20 0 30 11.5t14 34.5h91q-6 -72 -40.5 -108t-89.5 -36q-25 0 -47 8t-50 23z" />
    <glyph glyph-name="logicalnot" unicode="&#xac;" 
d="M77 286v93h428v-268h-93v175h-335z" />
    <glyph glyph-name="infinity" unicode="&#x221e;" horiz-adv-x="751" 
d="M538 110q-97 0 -162 104q-66 -104 -162 -104q-77 0 -121.5 51t-44.5 133q0 81 44.5 131.5t121.5 50.5q95 0 162 -103q65 103 162 103q76 0 120.5 -50.5t44.5 -131.5q0 -82 -44.5 -133t-120.5 -51zM149 294q0 -38 19 -59.5t54 -21.5q54 0 94 81q-39 80 -94 80
q-35 0 -54 -21.5t-19 -58.5zM435 294q40 -81 94 -81q35 0 54 21.5t19 59.5q0 37 -19 58.5t-54 21.5q-55 0 -94 -80z" />
    <glyph glyph-name="integral" unicode="&#x222b;" horiz-adv-x="402" 
d="M1 -197v108q18 -3 40 -3q29 0 45 19t21 59l71 554q11 82 47.5 127t113.5 45q38 0 64 -3v-108q-19 3 -41 3q-29 0 -45 -19t-21 -59l-72 -554q-10 -81 -46.5 -126.5t-113.5 -45.5q-39 0 -63 3z" />
    <glyph glyph-name="Omega" unicode="&#x2126;" horiz-adv-x="742" 
d="M693 107v-107h-274v99q76 22 110.5 87t34.5 168q0 119 -47.5 184.5t-144.5 65.5q-96 0 -143.5 -65.5t-47.5 -184.5q0 -103 34.5 -168t110.5 -87v-99h-274v107h106q-51 42 -76.5 109t-25.5 153q0 155 78 250t238 95t238.5 -95t78.5 -250q0 -86 -25.5 -153t-76.5 -109h106z
" />
    <glyph glyph-name="Delta" unicode="&#x2206;" horiz-adv-x="677" 
d="M654 0h-631l241 700h149zM490 107l-111 336q-25 77 -40 155h-2q-13 -76 -39 -155l-111 -336h303z" />
    <glyph glyph-name="product" unicode="&#x220f;" horiz-adv-x="704" 
d="M624 -188h-120v781h-304v-781h-120v888h544v-888z" />
    <glyph glyph-name="summation" unicode="&#x2211;" horiz-adv-x="547" 
d="M165 600v-2q32 -37 60 -92l130 -254l-130 -237q-28 -51 -71 -100v-2q47 6 115 6h245v-107h-482v91l195 349l-187 356v92h474v-107h-245q-37 0 -58.5 1t-45.5 6z" />
    <glyph glyph-name="radical" unicode="&#x221a;" horiz-adv-x="535" 
d="M5 398h118l51 -143q28 -74 44 -159h2q13 70 43 159l161 482h118l-256 -737h-127z" />
    <glyph glyph-name="partialdiff" unicode="&#x2202;" horiz-adv-x="558" 
d="M504 283q0 -144 -58 -220t-178 -76q-109 0 -167.5 67.5t-58.5 177.5q0 117 57 179t158 62q71 0 121 -39q-13 92 -57 134t-125 42q-46 0 -81 -10l-1 99q50 10 102 10q99 0 162 -42t94.5 -135.5t31.5 -248.5zM388 232q0 66 -28.5 105t-86.5 39q-59 0 -87 -38.5t-28 -105.5
t28 -106.5t87 -39.5t87 39t28 107z" />
    <glyph glyph-name="mu" unicode="&#xb5;" horiz-adv-x="584" 
d="M543 90v-93q-28 -4 -49 -4q-77 0 -104 57q-20 -28 -52.5 -46t-69.5 -18q-48 0 -83 24v-198h-112v680h112v-291q0 -60 23.5 -87.5t70.5 -27.5q49 0 72 27t23 87v292h112v-353q0 -27 7.5 -39.5t23.5 -12.5q11 0 26 3z" />
    <glyph glyph-name="percent" unicode="%" horiz-adv-x="799" 
d="M30 542q0 81 38.5 126.5t119.5 45.5t120 -46t39 -126q0 -81 -39 -127t-120 -46t-119.5 46t-38.5 127zM522 700h107l-356 -700h-108zM119 542q0 -94 69 -94t69 94q0 93 -69 93t-69 -93zM453 163q0 81 38.5 126.5t119.5 45.5t120 -46t39 -126q0 -81 -39 -127t-120 -46
t-119.5 46t-38.5 127zM542 163q0 -94 69 -94t69 94q0 93 -69 93t-69 -93z" />
    <glyph glyph-name="perthousand" unicode="&#x2030;" horiz-adv-x="1151" 
d="M30 542q0 81 38.5 126.5t119.5 45.5t120 -46t39 -126q0 -81 -39 -127t-120 -46t-119.5 46t-38.5 127zM522 700h107l-356 -700h-108zM119 542q0 -94 69 -94t69 94q0 93 -69 93t-69 -93zM453 163q0 81 38.5 126.5t119.5 45.5t120 -46t39 -126q0 -81 -39 -127t-120 -46
t-119.5 46t-38.5 127zM805 163q0 81 38.5 126.5t119.5 45.5t120 -46t39 -126q0 -81 -39 -127t-120 -46t-119.5 46t-38.5 127zM542 163q0 -94 69 -94t69 94q0 93 -69 93t-69 -93zM894 163q0 -94 69 -94t69 94q0 93 -69 93t-69 -93z" />
    <glyph glyph-name="uni29F5" unicode="&#x29f5;" horiz-adv-x="377" 
d="M-11 800h113l285 -900h-113z" />
    <glyph glyph-name="arrowup" unicode="&#x2191;" 
d="M247 417l-153 -152l-58 56l257 256l253 -254l-58 -57l-151 152v-423h-90v422z" />
    <glyph glyph-name="uni2197" unicode="&#x2197;" 
d="M60 124l297 299h-215v80h361v-357h-81v215l-299 -300z" />
    <glyph glyph-name="arrowright" unicode="&#x2192;" 
d="M276 89l152 151h-423v90h422l-153 152l56 58l256 -256l-253 -253z" />
    <glyph glyph-name="uni2198" unicode="&#x2198;" 
d="M144 143h215l-300 299l63 64l299 -299v216h80v-361h-357v81z" />
    <glyph glyph-name="arrowdown" unicode="&#x2193;" 
d="M36 247l58 57l152 -152v423h89v-423l153 153l58 -56l-257 -256z" />
    <glyph glyph-name="uni2199" unicode="&#x2199;" 
d="M80 421h82v-215l298 300l64 -64l-298 -299h215v-80h-361v358z" />
    <glyph glyph-name="arrowleft" unicode="&#x2190;" 
d="M-4 287l253 253l57 -58l-152 -152h423v-89h-422l152 -153l-55 -58z" />
    <glyph glyph-name="uni2196" unicode="&#x2196;" 
d="M159 359v-215h-80v360h358v-81h-215l299 -299l-63 -63z" />
    <glyph glyph-name="arrowboth" unicode="&#x2194;" horiz-adv-x="920" 
d="M882 284l-253 -253l-56 58l153 153h-532l153 -153l-57 -58l-252 253l255 256l55 -57l-154 -153h531l-153 153l55 57z" />
    <glyph glyph-name="arrowupdn" unicode="&#x2195;" 
d="M488 174l57 -55l-256 -256l-252 254l57 56l153 -154v533l-153 -153l-57 57l252 252l256 -255l-57 -55l-153 154v-532z" />
    <glyph glyph-name="arrowdblright" unicode="&#x21d2;" 
d="M596 284l-253 -253l-56 58l69 69h-352v74h426l52 52l-52 52h-426v75h352l-69 68l56 58z" />
    <glyph glyph-name="uni27A4" unicode="&#x27a4;" horiz-adv-x="750" 
d="M39 578l692 -288l-692 -290l178 290z" />
    <glyph glyph-name="arrowup.aalt" 
d="M248 487l-154 -153l-57 54l256 256l252 -253l-57 -56l-152 152v-424h-88v424z" />
    <glyph glyph-name="uni2197.aalt" 
d="M58 191l299 301h-217v78h361v-356h-81v216l-300 -301z" />
    <glyph glyph-name="arrowright.aalt" 
d="M276 156l153 153h-424v88h424l-154 153l55 57l255 -255l-253 -253z" />
    <glyph glyph-name="uni2198.aalt" 
d="M143 210h216l-301 301l62 62l300 -300v217h79v-360h-356v80z" />
    <glyph glyph-name="arrowdown.aalt" 
d="M36 314l58 57l152 -154v425h88v-424l154 153l57 -54l-256 -256z" />
    <glyph glyph-name="uni2199.aalt" 
d="M80 488h80v-216l300 301l63 -63l-300 -299h217v-79h-360v356z" />
    <glyph glyph-name="arrowleft.aalt" 
d="M-3 354l253 253l56 -57l-153 -152h425v-88h-424l153 -155l-55 -56z" />
    <glyph glyph-name="uni2196.aalt" 
d="M162 428v-216h-79v360h356v-81h-216l301 -300l-62 -62z" />
    <glyph glyph-name="arrowboth.aalt" horiz-adv-x="920" 
d="M883 352l-253 -253l-56 58l153 152h-534l154 -153l-57 -57l-253 253l256 255l55 -57l-154 -153h532l-154 154l55 57z" />
    <glyph glyph-name="arrowupdn.aalt" 
d="M37 186l57 55l153 -154v532l-154 -154l-57 55l256 256l253 -253l-58 -56l-152 153v-534l153 153l57 -56l-252 -253z" />
    <glyph glyph-name="arrowdblright.aalt" 
d="M596 352l-253 -253l-56 57l69 69h-351v74h425l53 53l-52 52h-426v74h351l-69 69l56 57z" />
    <glyph glyph-name="uni27A4.aalt" horiz-adv-x="764" 
d="M50 644l691 -290l-691 -289l177 289z" />
    <glyph glyph-name="H18533" unicode="&#x25cf;" horiz-adv-x="613" 
d="M50 350q0 70 34.5 128.5t93.5 93t129 34.5t128.5 -34.5t93 -93t34.5 -128.5q0 -69 -34.5 -128.5t-93 -94t-128.5 -34.5t-129 34.5t-93.5 94t-34.5 128.5z" />
    <glyph glyph-name="circle" unicode="&#x25cb;" horiz-adv-x="613" 
d="M50 350q0 70 34.5 128.5t93.5 93t129 34.5t128.5 -34.5t93 -93t34.5 -128.5q0 -69 -34.5 -128.5t-93 -94t-128.5 -34.5t-129 34.5t-93.5 94t-34.5 128.5zM495 350q0 51 -25.5 94t-68.5 68.5t-94 25.5q-52 0 -95 -25t-68.5 -68.5t-25.5 -94.5q0 -52 25.5 -95t68.5 -68.5
t95 -25.5q51 0 94.5 25.5t68.5 68.5t25 95z" />
    <glyph glyph-name="lozenge" unicode="&#x25ca;" horiz-adv-x="691" 
d="M55 350l238 350h106l237 -350l-237 -350h-106zM504 350l-158 235l-159 -235l159 -235z" />
    <glyph glyph-name="filledbox" unicode="&#x25a0;" horiz-adv-x="552" 
d="M502 576v-452h-452v452h452z" />
    <glyph glyph-name="H22073" unicode="&#x25a1;" horiz-adv-x="552" 
d="M502 576v-452h-452v452h452zM123 197h306v306h-306v-306z" />
    <glyph glyph-name="H18543" unicode="&#x25aa;" horiz-adv-x="552" 
d="M442 516v-332h-332v332h332z" />
    <glyph glyph-name="H18551" unicode="&#x25ab;" horiz-adv-x="552" 
d="M110 516h332v-332h-332v332zM375 251v198h-198v-198h198z" />
    <glyph glyph-name="triagup" unicode="&#x25b2;" horiz-adv-x="860" 
d="M840 0h-820l410 710z" />
    <glyph glyph-name="uni25B6" unicode="&#x25b6;" horiz-adv-x="860" 
d="M787 341l-706 -416v832z" />
    <glyph glyph-name="triagdn" unicode="&#x25bc;" horiz-adv-x="860" 
d="M20 710h820l-410 -710z" />
    <glyph glyph-name="uni25C0" unicode="&#x25c0;" horiz-adv-x="860" 
d="M787 -75l-706 416l706 416v-832z" />
    <glyph glyph-name="uni25B3" unicode="&#x25b3;" horiz-adv-x="860" 
d="M840 0h-820l410 710zM154 77h551l-275 477z" />
    <glyph glyph-name="uni25B7" unicode="&#x25b7;" horiz-adv-x="860" 
d="M787 341l-706 -416v832zM158 60l477 281l-477 281v-562z" />
    <glyph glyph-name="uni25BD" unicode="&#x25bd;" horiz-adv-x="860" 
d="M20 710h820l-410 -710zM705 633h-551l276 -477z" />
    <glyph glyph-name="uni25C1" unicode="&#x25c1;" horiz-adv-x="860" 
d="M787 -75l-706 416l706 416v-832zM233 341l477 -281v562z" />
    <glyph glyph-name="uni25B4" unicode="&#x25b4;" horiz-adv-x="500" 
d="M250 527l202 -349h-404z" />
    <glyph glyph-name="uni25B8" unicode="&#x25b8;" horiz-adv-x="500" 
d="M76 542l348 -202l-348 -202v404z" />
    <glyph glyph-name="uni25BE" unicode="&#x25be;" horiz-adv-x="500" 
d="M48 527h404l-202 -349z" />
    <glyph glyph-name="uni25C2" unicode="&#x25c2;" horiz-adv-x="500" 
d="M76 340l348 202v-404z" />
    <glyph glyph-name="uni25B5" unicode="&#x25b5;" horiz-adv-x="500" 
d="M250 527l202 -349h-404zM351 237l-101 173l-101 -173h202z" />
    <glyph glyph-name="uni25B9" unicode="&#x25b9;" horiz-adv-x="500" 
d="M76 542l348 -202l-348 -202v404zM307 340l-173 101v-202z" />
    <glyph glyph-name="uni25BF" unicode="&#x25bf;" horiz-adv-x="500" 
d="M48 527h404l-202 -349zM351 468h-202l101 -173z" />
    <glyph glyph-name="uni25C3" unicode="&#x25c3;" horiz-adv-x="500" 
d="M76 340l348 202v-404zM366 441l-173 -101l173 -101v202z" />
    <glyph glyph-name="uni2610" unicode="&#x2610;" horiz-adv-x="750" 
d="M694 668v-637h-637v637h637zM118 92h515v515h-515v-515z" />
    <glyph glyph-name="uni2611" unicode="&#x2611;" horiz-adv-x="750" 
d="M694 668v-637h-637v637h637zM118 92h515v515h-515v-515zM580 493l-258 -318l-147 138l36 43l107 -98l216 273z" />
    <glyph glyph-name="uni2612" unicode="&#x2612;" horiz-adv-x="750" 
d="M694 31h-637v637h637v-637zM118 607v-515h515v515h-515zM334 349l-139 140l42 42l139 -140l139 140l42 -42l-139 -140l138 -139l-42 -42l-138 140l-139 -140l-41 42z" />
    <glyph glyph-name="uni26AB" unicode="&#x26ab;" horiz-adv-x="613" 
d="M50 350q0 70 34.5 128.5t93.5 93t129 34.5t128.5 -34.5t93 -93t34.5 -128.5q0 -69 -34.5 -128.5t-93 -94t-128.5 -34.5t-129 34.5t-93.5 94t-34.5 128.5z" />
    <glyph glyph-name="uni26AC" unicode="&#x26ac;" horiz-adv-x="613" 
d="M50 350q0 70 34.5 128.5t93.5 93t129 34.5t128.5 -34.5t93 -93t34.5 -128.5q0 -69 -34.5 -128.5t-93 -94t-128.5 -34.5t-129 34.5t-93.5 94t-34.5 128.5zM465 350q0 43 -21 79.5t-57.5 57.5t-79.5 21q-44 0 -80.5 -21t-57.5 -57.5t-21 -79.5q0 -44 21 -80.5t57.5 -57.5
t80.5 -21q43 0 79.5 21t57.5 57.5t21 80.5z" />
    <glyph glyph-name="uni275B" unicode="&#x275b;" horiz-adv-x="365" 
d="M103 535q14 17 40 27.5t52 10.5q57 0 93 -33.5t36 -91.5q0 -62 -40 -100t-101 -38q-63 0 -103 41.5t-40 116.5q0 106 64.5 172.5t192.5 66.5v-56q-157 0 -194 -116z" />
    <glyph glyph-name="uni275C" unicode="&#x275c;" horiz-adv-x="369" 
d="M267.983 481.971q-13.999 -16.999 -39.9971 -27.498q-25.999 -10.5 -51.9971 -10.5q-56.9961 0 -92.9941 33.498t-35.998 91.4941q0 61.9971 39.998 99.9941q39.9971 37.998 100.993 37.998q62.9961 0 102.994 -41.498q39.9971 -41.4971 39.9971 -116.492
q0 -105.994 -64.4961 -172.49q-64.4961 -66.4951 -192.488 -66.4951v55.9961q156.991 0 193.988 115.993z" />
    <glyph glyph-name="uni275D" unicode="&#x275d;" horiz-adv-x="699" 
d="M103 535q14 17 40 27.5t52 10.5q57 0 93 -33.5t36 -91.5q0 -62 -40 -100t-101 -38q-63 0 -103 41.5t-40 116.5q0 106 64.5 172.5t192.5 66.5v-56q-157 0 -194 -116zM438 535q13 17 39 27.5t52 10.5q57 0 93 -33.5t36 -91.5q0 -62 -40 -100t-101 -38q-63 0 -103 41.5
t-40 116.5q0 105 65 172t192 67v-56q-158 0 -193 -116z" />
    <glyph glyph-name="uni275E" unicode="&#x275e;" horiz-adv-x="703" 
d="M268 483q-14 -18 -39.5 -28.5t-52.5 -10.5q-57 0 -93 33.5t-36 91.5q0 62 40 100t102 38q63 0 102.5 -41t39.5 -117q0 -106 -64.5 -172.5t-192.5 -66.5v56q158 0 194 117zM602 483q-14 -18 -39.5 -28.5t-52.5 -10.5q-57 0 -93 33.5t-36 91.5q0 62 40 100t102 38
q63 0 102.5 -41t39.5 -117q0 -106 -64.5 -172.5t-192.5 -66.5v56q158 0 194 117z" />
    <glyph glyph-name="at" unicode="@" horiz-adv-x="857" 
d="M812 370q0 -108 -26 -175.5t-67 -97t-89 -29.5q-45 0 -72 18.5t-36 49.5q-44 -68 -133 -68q-78 0 -119.5 48.5t-41.5 135.5q0 117 49 184t145 67q75 0 111 -55l3 44h92l-24 -271q-1 -5 -1 -15q0 -46 39 -46q29 0 51 48.5t22 156.5q0 130 -66 195t-196 65
q-151 0 -233.5 -101.5t-82.5 -293.5q0 -138 66.5 -208.5t191.5 -70.5q79 0 147 37l31 -81q-87 -45 -182 -45q-108 0 -186.5 42t-120.5 124t-42 198q0 156 49 265.5t141.5 166t221.5 56.5q111 0 191.5 -41t123.5 -118.5t43 -184.5zM513 311q0 99 -80 99q-50 0 -76 -38
t-26 -111q0 -100 81 -100q52 0 76.5 42t24.5 108z" />
    <glyph glyph-name="ampersand" unicode="&#x26;" horiz-adv-x="681" 
d="M519 0l-56 63q-91 -77 -205 -77q-101 0 -156.5 52t-55.5 141q0 64 35 111t103 83q-40 44 -60 80.5t-20 79.5q0 49 21 90t65 66t109 25q94 0 144 -50t50 -130q0 -115 -136 -181l-16 -8l122 -131q29 52 43 121h101q-15 -106 -75 -195l131 -140h-144zM206 536
q0 -27 14.5 -52t42.5 -55l11 -12l33 16q46 22 65 46.5t19 56.5q0 36 -25.5 60t-67.5 24q-45 0 -68.5 -24t-23.5 -60zM399 134l-150 167q-55 -28 -75.5 -55t-20.5 -67q0 -43 29 -69t79 -26q78 0 138 50z" />
    <glyph glyph-name="paragraph" unicode="&#xb6;" horiz-adv-x="564" 
d="M476 -187h-82v807h-95v-807h-83v556h-29q-78 0 -119.5 41.5t-41.5 123.5q0 83 41.5 124t119.5 42h289v-887z" />
    <glyph glyph-name="section" unicode="&#xa7;" horiz-adv-x="568" 
d="M42 66h117q5 -42 32.5 -57.5t92.5 -15.5q61 0 88 16.5t27 50.5q0 27 -18 41.5t-59 21.5l-98 17q-83 14 -122.5 49t-39.5 101q0 44 21 77t61 51q-41 19 -61.5 49.5t-20.5 77.5q0 77 54 123t168 46q106 0 160.5 -39t60.5 -119h-119q-4 34 -27 49t-75 15t-77 -17t-25 -46
q0 -27 15.5 -40.5t61.5 -20.5l85 -12q85 -12 128.5 -49t43.5 -106q0 -91 -80 -130q42 -18 61 -48t19 -79q0 -173 -236 -173q-125 0 -178 41t-60 126zM399 300q0 33 -17 51t-58 25l-92 15q-50 -22 -50 -74q0 -33 17 -51t58 -25l93 -16q23 10 36 29t13 46z" />
    <glyph glyph-name="copyright" unicode="&#xa9;" horiz-adv-x="814" 
d="M44 350q0 110 44 192.5t126.5 127t192.5 44.5t192.5 -44.5t127 -127t44.5 -192.5t-44.5 -192.5t-127 -127t-192.5 -44.5t-192.5 44.5t-126.5 127t-44 192.5zM702 350q0 92 -35 159.5t-101.5 104t-158.5 36.5t-158.5 -36.5t-101.5 -104t-35 -159.5t35 -159t101.5 -103.5
t158.5 -36.5t158.5 36.5t101.5 103.5t35 159zM212 351q0 96 48.5 151t146.5 55q82 0 127.5 -35t56.5 -108h-96q-7 30 -29 43.5t-59 13.5q-51 0 -75.5 -30t-24.5 -90q0 -61 24.5 -91t75.5 -30q37 0 59 13.5t29 43.5h96q-11 -72 -56.5 -107.5t-127.5 -35.5q-98 0 -146.5 55.5
t-48.5 151.5z" />
    <glyph glyph-name="registered" unicode="&#xae;" horiz-adv-x="511" 
d="M468 501q0 -97 -57.5 -154t-155.5 -57t-155.5 57t-57.5 154q0 98 57.5 155.5t155.5 57.5t155.5 -57.5t57.5 -155.5zM425 501q0 82 -44 127t-126 45q-81 0 -125.5 -45t-44.5 -127q0 -81 44.5 -126t125.5 -45t125.5 45t44.5 126zM354 423l6 -34h-59l-4 29q-4 32 -15 43.5
t-35 11.5h-25v-84h-57v236h110q41 0 61.5 -19.5t20.5 -52.5q0 -46 -36 -63q13 -8 21 -23.5t12 -43.5zM222 520h40q19 0 28.5 6.5t9.5 22.5t-9.5 22.5t-28.5 6.5h-40v-58z" />
    <glyph glyph-name="uni2117" unicode="&#x2117;" horiz-adv-x="814" 
d="M44 350q0 110 44 192.5t126.5 127t192.5 44.5t192.5 -44.5t127 -127t44.5 -192.5t-44.5 -192.5t-127 -127t-192.5 -44.5t-192.5 44.5t-126.5 127t-44 192.5zM702 350q0 92 -35 159.5t-101.5 104t-158.5 36.5t-158.5 -36.5t-101.5 -104t-35 -159.5t35 -159t101.5 -103.5
t158.5 -36.5t158.5 36.5t101.5 103.5t35 159zM275 548h181q69 0 106 -34.5t37 -98.5q0 -62 -37 -98t-106 -36h-90v-129h-91v396zM436 360q36 0 52.5 13t16.5 42q0 30 -16 42t-53 12h-70v-109h70z" />
    <glyph glyph-name="trademark" unicode="&#x2122;" horiz-adv-x="680" 
d="M34 641v59h224v-59h-78v-217h-67v217h-79zM391 541q-19 54 -26 75q4 -48 4 -76v-116h-68v276h85l50 -133q13 -32 20 -65q7 33 20 65l49 133h86v-276h-68v116q0 28 4 76q-7 -21 -26 -75l-45 -117h-40z" />
    <glyph glyph-name="degree" unicode="&#xb0;" horiz-adv-x="434" 
d="M217 714q88 0 132.5 -46.5t44.5 -124.5t-44.5 -124.5t-132.5 -46.5t-132.5 46.5t-44.5 124.5t44.5 124.5t132.5 46.5zM217 632q-41 0 -63 -23.5t-22 -65.5t22 -65.5t63 -23.5t63.5 23.5t22.5 65.5t-22.5 65.5t-63.5 23.5z" />
    <glyph glyph-name="bar" unicode="|" horiz-adv-x="236" 
d="M159 700v-888h-82v888h82z" />
    <glyph glyph-name="brokenbar" unicode="&#xa6;" horiz-adv-x="236" 
d="M77 700h82v-342h-82v342zM77 154h82v-342h-82v342z" />
    <glyph glyph-name="dagger" unicode="&#x2020;" horiz-adv-x="428" 
d="M167 418h-138v95h138v187h94v-187h139v-95h-139v-418h-94v418z" />
    <glyph glyph-name="uni2113" unicode="&#x2113;" horiz-adv-x="418" 
d="M105 153v19l-70 -48v99l70 47v267q0 89 43 133t110 44q66 0 100.5 -42t34.5 -117q0 -104 -46 -183.5t-130 -148.5v-44q0 -43 16.5 -64.5t51.5 -21.5q36 0 78 19v-100q-27 -9 -51.5 -13.5t-65.5 -4.5q-63 0 -102 41t-39 118zM303 550q0 32 -11.5 50.5t-31.5 18.5
t-31.5 -18t-11.5 -54v-213q44 45 65 95t21 121z" />
    <glyph glyph-name="daggerdbl" unicode="&#x2021;" horiz-adv-x="470" 
d="M187 154h-138v95h138v199h-138v95h138v157h95v-157h138v-95h-138v-199h138v-95h-138v-154h-95v154z" />
    <glyph glyph-name="estimated" unicode="&#x212e;" horiz-adv-x="781" 
d="M45 351q0 106 47 189t127.5 128.5t176.5 45.5t176.5 -45.5t127.5 -128.5t47 -189v-18h-558v-234q44 -38 101.5 -58t123.5 -20q83 0 153.5 37t112.5 102l29 -21q-47 -72 -125 -112.5t-170 -40.5q-105 0 -189 46t-132 129t-48 190zM189 603v-235h418v231q-42 38 -96 58.5
t-115 20.5q-60 0 -112.5 -19.5t-94.5 -55.5z" />
    <glyph glyph-name="uni2116" unicode="&#x2116;" horiz-adv-x="1075" 
d="M872 711q85 0 126 -48t41 -132q0 -83 -41 -131t-126 -48t-126 48t-41 131q0 84 41 132t126 48zM525 700h120v-700h-114l-254 377q-55 82 -85 157h-2q10 -76 10 -162v-372h-120v700h114l254 -377q52 -78 84 -157h2q-9 68 -9 162v372zM872 429q80 0 80 102t-80 102
q-79 0 -79 -102t79 -102zM744 283h257v-79h-257v79z" />
    <glyph glyph-name="asciicircum" unicode="^" 
d="M224 700h134l154 -269h-117l-105 185l-103 -185h-116z" />
    <glyph glyph-name="minute" unicode="&#x2032;" horiz-adv-x="244" 
d="M211 700l-61 -269h-106l61 269h106z" />
    <glyph glyph-name="second" unicode="&#x2033;" horiz-adv-x="430" 
d="M105 700h106l-61 -269h-106zM290 700h107l-61 -269h-106z" />
    <glyph glyph-name="bar.aalt" horiz-adv-x="241" 
d="M162 791v-888h-82v888h82z" />
    <glyph glyph-name="brokenbar.aalt" horiz-adv-x="241" 
d="M80 791h82v-342h-82v342zM80 245h82v-342h-82v342z" />
    <glyph glyph-name="uni0308" unicode="&#x308;" horiz-adv-x="0" 
d="M-358 700h118v-110h-118v110zM-162 700h119v-110h-119v110z" />
    <glyph glyph-name="uni0307" unicode="&#x307;" horiz-adv-x="0" 
d="M-267 700h123v-116h-123v116z" />
    <glyph glyph-name="gravecomb" unicode="&#x300;" horiz-adv-x="0" 
d="M-158 573h-107l-84 158h119z" />
    <glyph glyph-name="acutecomb" unicode="&#x301;" horiz-adv-x="0" 
d="M-73 731l-84 -158h-107l72 158h119z" />
    <glyph glyph-name="uni030B" unicode="&#x30b;" horiz-adv-x="0" 
d="M-166 731l-84 -158h-107l72 158h119zM25 731l-84 -158h-107l72 158h119z" />
    <glyph glyph-name="uni0302" unicode="&#x302;" horiz-adv-x="0" 
d="M-137 731l100 -158h-104l-62 92l-60 -92h-105l100 158h131z" />
    <glyph glyph-name="uni030C" unicode="&#x30c;" horiz-adv-x="0" 
d="M-278 573l-100 158h104l62 -92l60 92h105l-100 -158h-131z" />
    <glyph glyph-name="uni0306" unicode="&#x306;" horiz-adv-x="0" 
d="M-357 730h86q2 -80 69 -80q66 0 69 80h85q0 -79 -38.5 -120.5t-115.5 -41.5t-115.5 41.5t-39.5 120.5z" />
    <glyph glyph-name="uni030A" unicode="&#x30a;" horiz-adv-x="0" 
d="M-338 665q0 56 35 90t100 34q64 0 99 -34t35 -90t-35 -90t-99 -34q-65 0 -100 34t-35 90zM-150 665q0 24 -14 38t-39 14t-39 -14t-14 -38t14 -38t39 -14t39 14t14 38z" />
    <glyph glyph-name="tildecomb" unicode="&#x303;" horiz-adv-x="0" 
d="M-214 592q-17 10 -28 15t-23 5q-16 0 -23.5 -10t-11.5 -29h-74q4 59 32 91t74 32q20 0 36 -6.5t39 -19.5q17 -10 28 -15t23 -5q16 0 23.5 10t11.5 28h75q-4 -58 -33 -90t-74 -32q-20 0 -36 6.5t-39 19.5z" />
    <glyph glyph-name="uni0304" unicode="&#x304;" horiz-adv-x="0" 
d="M-366 676h291v-92h-291v92z" />
    <glyph glyph-name="hookabovecomb" unicode="&#x309;" horiz-adv-x="0" 
d="M-121 604q0 -14 -4 -46h-104q1 10 1 27q0 41 -13.5 71.5t-46.5 61.5l90 42q41 -33 59 -71t18 -85z" />
    <glyph glyph-name="uni0312" unicode="&#x312;" horiz-adv-x="0" 
d="M-238 795h65l-33 -103h53v-116h-119v106z" />
    <glyph glyph-name="dotbelowcomb" unicode="&#x323;" horiz-adv-x="0" 
d="M-263 -67h123v-116h-123v116z" />
    <glyph glyph-name="uni0326" unicode="&#x326;" horiz-adv-x="0" 
d="M-207 -291h-64l33 104h-54v116h120v-106z" />
    <glyph glyph-name="uni0327" unicode="&#x327;" horiz-adv-x="0" 
d="M-313 -159l72 188l100 -15l-60 -173h-112z" />
    <glyph glyph-name="uni0328" unicode="&#x328;" horiz-adv-x="0" 
d="M-292 -114q0 31 12.5 55t43.5 48l63 49l65 -38l-60 -53q-13 -12 -18 -21.5t-5 -21.5q0 -13 8 -20t21 -7t27.5 5t25.5 12v-72q-11 -7 -33 -13t-52 -6q-45 0 -71.5 22.5t-26.5 60.5z" />
    <glyph glyph-name="uni0335" unicode="&#x335;" horiz-adv-x="0" 
d="M-367 643h268v-78h-268v78z" />
    <glyph glyph-name="uni0336" unicode="&#x336;" horiz-adv-x="0" 
d="M-652 605h618v-93h-618v93z" />
    <glyph glyph-name="uni0337" unicode="&#x337;" horiz-adv-x="0" 
d="M-511 56l417 450l61 -67l-419 -449z" />
    <glyph glyph-name="uni0338" unicode="&#x338;" horiz-adv-x="0" 
d="M-687 71l586 633l64 -71l-586 -633z" />
    <glyph glyph-name="uni0308.aalt" horiz-adv-x="0" 
d="M-398 873h118v-110h-118v110zM-145 873h118v-110h-118v110z" />
    <glyph glyph-name="uni0307.aalt" horiz-adv-x="0" 
d="M-274 873h124v-110h-124v110z" />
    <glyph glyph-name="gravecomb.aalt" horiz-adv-x="0" 
d="M-269 756l-93 141h123l80 -141h-110z" />
    <glyph glyph-name="acutecomb.aalt" horiz-adv-x="0" 
d="M-191 897h123l-93 -141h-110z" />
    <glyph glyph-name="uni030B.aalt" horiz-adv-x="0" 
d="M-267 897h123l-93 -141h-110zM-72 897h123l-95 -141h-108z" />
    <glyph glyph-name="uni0302.aalt" horiz-adv-x="0" 
d="M-148 897l109 -141h-111l-63 74l-62 -74h-111l108 141h130z" />
    <glyph glyph-name="uni030C.aalt" horiz-adv-x="0" 
d="M-385 897h110l63 -74l62 74h110l-107 -141h-130z" />
    </font>
</defs>
</svg>
